<!-- Created with Inkscape (http://www.inkscape.org/) -->
<svg id="project" width="4047.25" height="1039.5" version="1.1" viewBox="0 0 4047.2501 1039.5" xml:space="preserve"
	xmlns="http://www.w3.org/2000/svg">
	<g id="canvas" transform="translate(-16974.75,234)">
		<g id="keycap-guides">
			<rect fill="#d5e5ff" x="18729.75" y="221" width="130" height="130"/>
			<rect fill="#d5e5ff" x="18112.25" y="26" width="130" height="130"/>
			<rect fill="#d5e5ff" x="18924.75" y="221" width="130" height="130"/>
			<rect fill="#d5e5ff" x="19119.75" y="221" width="130" height="130"/>
			<rect fill="#d5e5ff" x="19314.75" y="221" width="130" height="130"/>
			<rect fill="#d5e5ff" x="19509.75" y="221" width="130" height="130"/>
			<rect fill="#d5e5ff" x="19704.75" y="221" width="130" height="130"/>
			<rect fill="#d5e5ff" x="18534.75" y="221" width="130" height="130"/>
			<rect fill="#d5e5ff" x="18339.75" y="221" width="130" height="130"/>
			<rect fill="#d5e5ff" x="18144.75" y="221" width="130" height="130"/>
			<rect fill="#d5e5ff" x="17949.75" y="221" width="130" height="130"/>
			<rect fill="#d5e5ff" x="17754.75" y="221" width="130" height="130"/>
			<rect fill="#d5e5ff" x="17852.25" y="416" width="130" height="130"/>
			<rect fill="#d5e5ff" x="17072.25" y="416" width="130" height="130"/>
			<rect fill="#d5e5ff" x="17267.25" y="221" width="130" height="130"/>
			<rect fill="#d5e5ff" x="17462.25" y="221" width="227.5" height="130"/>
			<rect fill="#d5e5ff" x="17007.25" y="611" width="195" height="130"/>
			<rect fill="#d5e5ff" x="17267.25" y="611" width="195" height="130"/>
			<rect fill="#d5e5ff" x="19802.25" y="416" width="292.5" height="130"/>
			<rect fill="#d5e5ff" x="20159.75" y="416" width="292.5" height="130"/>
			<rect fill="#d5e5ff" x="17267.25" y="416" width="162.5" height="130"/>
			<rect fill="#d5e5ff" x="17494.75" y="416" width="292.5" height="130"/>
			<rect fill="#d5e5ff" x="19899.75" y="221" width="292.5" height="130"/>
			<rect fill="#d5e5ff" x="17722.25" y="26" width="130" height="130"/>
			<rect fill="#d5e5ff" x="20257.25" y="221" width="195" height="130"/>
			<rect fill="#d5e5ff" x="20062.25" y="26" width="195" height="130"/>
			<rect fill="#d5e5ff" x="17072.25" y="221" width="130" height="130"/>
			<rect fill="#d5e5ff" x="17072.25" y="26" width="130" height="130"/>
			<rect fill="#d5e5ff" x="18047.25" y="416" width="130" height="130"/>
			<rect fill="#d5e5ff" x="18047.25" y="611" width="1495" height="130"/>
			<rect fill="#d5e5ff" x="18242.25" y="416" width="130" height="130"/>
			<rect fill="#d5e5ff" x="18437.25" y="416" width="130" height="130"/>
			<rect fill="#d5e5ff" x="18632.25" y="416" width="130" height="130"/>
			<rect fill="#d5e5ff" x="18827.25" y="416" width="130" height="130"/>
			<rect fill="#d5e5ff" x="19022.25" y="416" width="130" height="130"/>
			<rect fill="#d5e5ff" x="19217.25" y="416" width="130" height="130"/>
			<rect fill="#d5e5ff" x="19412.25" y="416" width="130" height="130"/>
			<rect fill="#d5e5ff" x="19607.25" y="416" width="130" height="130"/>
			<rect fill="#d5e5ff" x="17917.25" y="26" width="130" height="130"/>
			<rect fill="#d5e5ff" x="17527.25" y="26" width="130" height="130"/>
			<rect fill="#d5e5ff" x="18307.25" y="26" width="130" height="130"/>
			<rect fill="#d5e5ff" x="18502.25" y="26" width="130" height="130"/>
			<rect fill="#d5e5ff" x="18697.25" y="26" width="130" height="130"/>
			<rect fill="#d5e5ff" x="18892.25" y="26" width="130" height="130"/>
			<rect fill="#d5e5ff" x="19087.25" y="26" width="130" height="130"/>
			<rect fill="#d5e5ff" x="19282.25" y="26" width="130" height="130"/>
			<rect fill="#d5e5ff" x="19477.25" y="26" width="130" height="130"/>
			<rect fill="#d5e5ff" x="19672.5" y="26.000008" width="130" height="130"/>
			<rect fill="#d5e5ff" x="19867.5" y="26.000008" width="130" height="130"/>
			<rect fill="#d5e5ff" x="20322.25" y="26" width="130" height="130"/>
			<rect fill="#d5e5ff" x="20517.25" y="26" width="130" height="130"/>
			<rect fill="#d5e5ff" x="20712.25" y="26" width="130" height="130"/>
			<rect fill="#d5e5ff" x="20517.25" y="221" width="130" height="130"/>
			<rect fill="#d5e5ff" x="20354.75" y="611" width="195" height="130"/>
			<rect fill="#d5e5ff" x="20094.75" y="611" width="195" height="130"/>
			<rect fill="#d5e5ff" x="17267.25" y="26" width="195" height="130"/>
			<rect fill="#d5e5ff" x="17657.25" y="-169" width="130" height="130"/>
			<rect fill="#d5e5ff" x="17072.25" y="-169" width="130" height="130"/>
			<rect fill="#d5e5ff" x="17267.25" y="-169" width="325" height="130"/>
			<rect fill="#d5e5ff" x="20192.25" y="-169" width="260" height="130"/>
			<rect fill="#d5e5ff" x="20517.25" y="-169" width="325" height="130"/>
			<rect fill="#d5e5ff" x="18047.25" y="-169" width="130" height="130"/>
			<rect fill="#d5e5ff" x="17852.25" y="-169" width="130" height="130"/>
			<rect fill="#d5e5ff" x="18242.25" y="-169" width="130" height="130"/>
			<rect fill="#d5e5ff" x="18437.25" y="-169" width="130" height="130"/>
			<rect fill="#d5e5ff" x="18632.25" y="-169" width="130" height="130"/>
			<rect fill="#d5e5ff" x="18827.25" y="-169" width="130" height="130"/>
			<rect fill="#d5e5ff" x="19022.25" y="-169" width="130" height="130"/>
			<rect fill="#d5e5ff" x="19217.25" y="-169" width="130" height="130"/>
			<rect fill="#d5e5ff" x="19412.25" y="-169" width="130" height="130"/>
			<rect fill="#d5e5ff" x="19607.25" y="-169" width="130" height="130"/>
			<rect fill="#d5e5ff" x="19802.25" y="-169" width="130" height="130"/>
			<rect fill="#d5e5ff" x="19997.25" y="-169" width="130" height="130"/>
			<text id="nfpo" xml:space="preserve">
				<tspan id="tspan295894" x="16972.244" y="-335.0195" fill="#ff0000" font-family="serif" font-size="72px" font-weight="bold">NOT SIZED FOR PLACEMENT</tspan>
			</text>
		</g>
		<g id="W" transform="translate(-129.99999)" fill="none" stroke="#000" stroke-linecap="round" stroke-linejoin="round">
			<path id="path79107-3" d="m18135.786 103.00002-10.767 41.99177-12.769-42-12.769 42-10.767-41.99177" stroke-width="6.75"/>
			<path id="path91274-6" d="m18093.692 41.991791 18.558 42 18.558-42" stroke-width="6"/>
		</g>
		<g id="N" transform="translate(-146.25038)" fill="none" stroke="#000" stroke-linecap="round" stroke-linejoin="round">
			<path id="path85076-3" d="m19055.2 436-16.7 42-16.7-42" stroke-width="6"/>
			<path id="path85219-5" d="m19050 444h-23" stroke-width="6"/>
			<path id="path92698" d="m19025.5 535v-42l28 42v-42" stroke-width="6.75"/>
		</g>
		<g id="M" transform="translate(-146.75032)" fill="none" stroke="#000" stroke-linecap="round" stroke-linejoin="round">
			<path id="path79927-5" d="m19217 475h30v-38h-30" stroke-width="6"/>
			<path id="path79929-8" d="m19247 455h-18" stroke-width="6"/>
			<path id="path93133-1-4-9-9-9-0" d="m19216 535v-42h2l16 40 16-40h2v42" stroke-width="6.75"/>
		</g>
		<g id="Q" transform="translate(-129.99999)" fill="none" stroke="#000" stroke-linecap="round" stroke-linejoin="round">
			<path id="path79105" d="m17917.692 135.99179 11.624 12" stroke-width="6.75"/>
			<path id="path91274-6-9" d="m17898.692 83.991202 18.558-42 18.558 42" stroke-width="6"/>
			<ellipse id="path202877" cx="17915.691" cy="123.9918" rx="17" ry="22" stroke-miterlimit="5" stroke-width="6.75" style="paint-order:fill markers stroke"/>
		</g>
		<g id="E" transform="translate(-129.99958)" fill="none" stroke="#000" stroke-linecap="round" stroke-linejoin="round">
			<path id="path79927" d="m18322.25 102.99179h-30v42h30" stroke-width="6.75"/>
			<path id="path79929" d="m18292.25 122.99179h22" stroke-width="6.75"/>
			<path id="path19069-6" d="m18322.25 80.991791v-28s0.132-15-15-15-15 15-15 15v28" stroke-width="6"/>
		</g>
		<g id="R" transform="translate(-129.99999)" fill="none" stroke="#000" stroke-linecap="round" stroke-linejoin="round">
			<path id="path81447" d="m18486.75 144.99179v-42h23s9-0.26938 9 10-11 10-11 10h-21" stroke-width="6.75"/>
			<path id="path81449" d="m18516.75 144.99179-9-22" stroke-width="6.75"/>
			<path id="path19069-6-1" d="m18515.75 37.991791v28s0.132 15-15 15-15-15-15-15v-28" stroke-width="6"/>
		</g>
		<g id="T" transform="translate(-129.99999)" fill="none" stroke="#000" stroke-linecap="round" stroke-linejoin="round">
			<path id="path81451" d="m18679.75 102.99179h34" stroke-width="6.75"/>
			<path id="path81453" d="m18696.75 144.99179v-42" stroke-width="6.75"/>
			<path id="path19069-6-1-2" d="m18718.75 74.491791h-28s-15 0.132-15-15 15-15 15-15h28" stroke-width="6"/>
		</g>
		<g id="Y" transform="translate(-129.99999)" fill="none" stroke="#000" stroke-linecap="round" stroke-linejoin="round">
			<path id="path81455-4" d="m18911.044 102.99179-17.294 21m-17.294-21 17.294 21v21" stroke-width="6.75"/>
			<path id="path19069-6-1-2-2" d="m18870.75 74.491791h28s15 0.132 15-15-15-15-15-15h-28" stroke-width="6"/>
		</g>
		<g id="A" transform="translate(-146.25032)" fill="none" stroke="#000" stroke-linecap="round" stroke-linejoin="round">
			<path id="path85076" d="m17949.3 340.00001 16.7-42 16.7 42" stroke-width="6.75"/>
			<path id="path85219" d="m17954.5 332.00001h23" stroke-width="6.75"/>
			<path id="path32889-8-9" d="m17976.5 243.92501-21 12.075 21 12.075" stroke-width="6"/>
			<path id="path35392-8" d="m17955.5 277.00001h21" stroke-width="6"/>
		</g>
		<g id="S" transform="translate(-146.24999)" fill="none" stroke="#000" stroke-linecap="round" stroke-linejoin="round">
			<path id="path85221" d="m18146.426 331.46974s4.517 9.53027 15.147 9.53027c8 0 14-5.35463 14-12s-3-11-14-11-14.759-6-14.759-11 4.689-10 14.759-10 14 6 14 6" stroke-width="6.75"/>
			<path id="path32889-8-9-2" d="m18151.573 243.92501 21 12.075-21 12.075" stroke-width="6"/>
			<path id="path35392-8-4" d="m18172.573 277.00001h-21" stroke-width="6"/>
		</g>
		<g id="X" transform="translate(-146.25081,-1e-5)" fill="none" stroke="#000" stroke-linecap="round" stroke-linejoin="round">
			<path id="path90602" d="m18273.689 493-31.92 42" stroke-width="6.75"/>
			<path id="path90602-6" d="m18244.186 493 31.044 42" stroke-width="6.75"/>
			<path id="path18404-3-5" d="m18243.429 478.98276 8.442-43.05812s2.316-11.80231 13.21-9.66617c6.355 1.24614 10.378 9.57716 7.316 15.57623-3.062 5.99909-9.221 8.56248-9.221 8.56248s13.264 4.48594 10.592 18.10399c-1.246 6.35508-9.382 14.1877-18.105 10.59181-8.721-3.59587-10.556-8.66925-10.556-8.66925" stroke-width="6"/>
		</g>
		<g id="Z" transform="translate(-146.24991,-1e-5)" fill="none" stroke="#000" stroke-linecap="round" stroke-linejoin="round">
			<path id="path89739" d="m18046.5 493h31l-30 41.98754h33" stroke-width="6.75"/>
			<path id="path89752" d="m18036.5 513h54" stroke-width="6.75"/>
			<path id="path30663-8" d="m18074.5 443s-7 23.5-14 26.5c-6.434 2.75732-13-2-13-10s5-14 11-13c9.864 1.64399 11.596 21.2564 15 23s6-1 6-1" stroke-width="6"/>
		</g>
		<g id="C" transform="translate(-146.25032)" fill="none" stroke="#000" stroke-linecap="round" stroke-linejoin="round" stroke-miterlimit="9">
			<path id="path90730" d="m18468.5 499.82812c-3.229-4.96235-7.987-7.82701-13-7.82812-9.389 0-17 9.84974-17 22s7.611 22 17 22c5.021-0.0161 9.779-2.90374 13-7.88867" stroke-width="6.75" style="paint-order:fill markers stroke"/>
			<path id="path224490" d="m18465.5 454h-26" stroke-width="6" style="paint-order:fill markers stroke"/>
			<path id="path31111-8" d="m18464 432.5c-13.531 0-24.5 7.96902-24.5 21.5s10.969 21.5 24.5 21.5" stroke-width="6" style="paint-order:fill markers stroke"/>
		</g>
		<g id="V" transform="translate(-146.25063)" fill="none" stroke="#000" stroke-linecap="round" stroke-linejoin="round">
			<path id="path91274" d="m18629.942 493 18.558 42 18.558-42" stroke-width="6.75"/>
			<path id="path31512-7-4" d="m18661.745 477.5s-10.368-5.36244-14-22c-4.652-21.30923-14-24-14-24" stroke-width="6"/>
			<path id="path31682-5" d="m18639.745 477.5 7.755-23.08519" stroke-width="6"/>
		</g>
		<g id="B" transform="translate(-146.24999)" fill="none" stroke="#000" stroke-linecap="round" stroke-linejoin="round">
			<path id="path91740-1" d="m18843 513.01603c6-0.016 12 2.98397 12 10.98397s-6.057 10.94597-12 11h-15v-42h15c6 0 12 2 12 10s-6 10.02034-12 10.02034h-15" stroke-width="6.75"/>
			<path id="path32064-6" d="m18821 446s4-5.16909 11-6.16909 17 2.16909 24 1.16909 10-5 10-5" stroke-width="6"/>
			<path id="path32247-5" d="m18831 467v-26.99466" stroke-width="6"/>
			<path id="path32247-9-6" d="m18854 467v-25.82351" stroke-width="6"/>
		</g>
		<g id="D" transform="translate(-146.24906)" fill="none" stroke="#000" stroke-linecap="round" stroke-linejoin="round">
			<path id="path85233" d="m18343 340.00001v-42h17s14 0.0785 14 21c0 20.92149-14 21-14 21z" stroke-width="6.75"/>
			<path id="path117134" d="m18332 245.00001h48" stroke-width="6"/>
			<path id="path117134-1" d="m18332 257.00001h48" stroke-width="6"/>
			<path id="path117134-1-6" d="m18332 269.00001h48" stroke-width="6"/>
		</g>
		<g id="lbracket" transform="translate(-129.74999)" fill="none" stroke="#000" stroke-linecap="round" stroke-linejoin="round" stroke-width="6">
			<path id="path27593-4-77-5" d="m19871.75 91.919598c-7.544 0-7.95-1.15014-8-14.07091 0-6.84867-4-8.84867-4-8.84867s4-2 4-8.84867c0.05-12.92077 0.456-14.07091 8-14.07091"/>
			<path id="path118877" d="m19879.75 103.00002h-26v40h27"/>
		</g>
		<g id="rbracket" transform="translate(-129.75043)" fill="none" stroke="#000" stroke-linecap="round" stroke-linejoin="round" stroke-width="6">
			<path id="path27593-4-77-5-0" d="m20056.25 91.919599c7.544 0 7.95-1.15014 8-14.07091 0-6.84867 4-8.84867 4-8.84867s-4-2-4-8.84867c-0.05-12.92077-0.456-14.07091-8-14.07091"/>
			<path id="path118877-6" d="m20049.75 103.00002h26v40h-27"/>
		</g>
		<g id="period" transform="translate(-147.24999)">
			<circle id="path125940-9" cx="19624.998" cy="506.00073" r="6" style="paint-order:fill markers stroke"/>
			<path id="path123253-0" d="m19605 435.00076 39 16-39 16" fill="none" stroke="#000" stroke-linecap="round" stroke-linejoin="round" stroke-width="5"/>
		</g>
		<g id="semicolon" transform="translate(-146.24999)">
			<circle id="path125940-9-2" cx="19721.998" cy="308" r="6" style="paint-order:fill markers stroke"/>
			<circle id="path125940-1" cx="19720.998" cy="326" r="5" style="paint-order:fill markers stroke"/>
			<circle id="path125942-3" cx="19720.998" cy="340" r="3" style="paint-order:fill markers stroke"/>
			<path id="path125955-1" d="m19721 331.00002c3 0-2.121 6.87868-2.121 6.87868l4.242 4.24264c7.024-7.18846 6.879-21.12132-2.121-21.12132z"/>
			<path id="path124872" d="m19707 265.00002h28" fill="none" stroke="#000" stroke-linecap="round" stroke-linejoin="round" stroke-width="6"/>
			<path id="path124872-2" d="m19721 251.00002v28" fill="none" stroke="#000" stroke-linecap="round" stroke-linejoin="round" stroke-width="6"/>
		</g>
		<g id="comma" transform="translate(-147.24973)">
			<circle id="path125940" cx="19427.998" cy="503.00073" r="5" style="paint-order:fill markers stroke"/>
			<circle id="path125942" cx="19427.998" cy="517.00073" r="3" style="paint-order:fill markers stroke"/>
			<path id="path125955" d="m19428 508.00076c3 0-2.121 6.87868-2.121 6.87868l4.242 4.24264c7.024-7.18846 6.879-21.12132-2.121-21.12132z"/>
			<path id="path123253" d="m19449 435.00076-39 16 39 16" fill="none" stroke="#000" stroke-linecap="round" stroke-linejoin="round" stroke-width="5"/>
		</g>
		<g id="slash-question" transform="translate(-147.24999)">
			<circle id="path208298" cx="19818.5" cy="466.00076" r="3" style="paint-order:fill markers stroke"/>
			<path id="path123853" d="m19809.5 438.00076s0-12 11-12c6 0 9 4 9 8s-0.932 6.19345-6 10-5 8-5 13" fill="none" stroke="#000" stroke-linecap="round" stroke-linejoin="round" stroke-width="4"/>
			<path id="path126477" d="m19802.5 521.00076 34-40" fill="none" stroke="#000" stroke-linecap="round" stroke-linejoin="round" stroke-width="4"/>
		</g>
		<g id="backslash" transform="translate(-122.125)" fill="none" stroke="#000" stroke-linecap="round" stroke-linejoin="round" stroke-width="6">
			<path id="path128441-0" d="m20281.875 45.491917v45"/>
			<path id="path128441-0-3" d="m20262.375 104.49222 39 38.99914"/>
		</g>
		<g id="U" transform="translate(-130.00004)" fill="none" stroke="#000" stroke-linecap="round" stroke-linejoin="round">
			<path id="path82649-2" d="m19104.25 102.99179v28.5c0 7.45584-6.94 13.5-15.5 13.5s-15.5-6.04416-15.5-13.5v-28.5" stroke-width="6.75"/>
			<path id="path129493" d="m19063.25 48.991791h48v25" stroke-width="6"/>
		</g>
		<g id="I" transform="translate(-130.00035)" fill="none" stroke="#000" stroke-linecap="round" stroke-linejoin="round">
			<path id="path84948" d="m19282.252 102.99179v42" stroke-width="6.75"/>
			<circle id="path130000" cx="19282.25" cy="58.991783" r="21" stroke-miterlimit="5" stroke-width="6" style="paint-order:fill markers stroke"/>
			<path id="path130002" d="m19271.884 40.729611 20.396 36.71304" stroke-width="4"/>
			<path id="path130002-3" d="m19292.28 40.729611-20.396 36.71304" stroke-width="4"/>
		</g>
		<g id="colon" transform="translate(-146.24999)">
			<circle id="path125940-9-2-3" cx="19916.998" cy="308" r="6" style="paint-order:fill markers stroke"/>
			<circle id="path125940-9-2-3-0" cx="19916.998" cy="327" r="6" style="paint-order:fill markers stroke"/>
			<path id="path35601-5" d="m19902 264.00002h28" fill="none" stroke="#000" stroke-linecap="round" stroke-linejoin="round" stroke-width="6"/>
			<path id="path35601-9-2" d="m19909 251.87566 14 24.24872" fill="none" stroke="#000" stroke-linecap="round" stroke-linejoin="round" stroke-width="6"/>
			<path id="path35601-9-5-1" d="m19923 251.87566-14 24.24872" fill="none" stroke="#000" stroke-linecap="round" stroke-linejoin="round" stroke-width="6"/>
		</g>
		<g id="slash-infinity" transform="translate(-114.24919)" fill="none" stroke="#000" stroke-linecap="round" stroke-linejoin="round" stroke-width="6">
			<path id="path128441-0-3-6" d="m20524 104.49222-39 38.99914"/>
			<path id="path28244-3" d="m20501.5 65.491921s-13 13-23 13-20-6.08454-20-14 6-13 18-13 25 14 25 14z"/>
			<path id="path28244-6-4" d="m20501.5 65.491921s13 13 23 13 20-6.08454 20-14-6-13-18-13-25 14-25 14z"/>
		</g>
		<g id="H" transform="translate(-146.25025,-1e-5)" fill="none" stroke="#000" stroke-linecap="round" stroke-linejoin="round">
			<path id="path86915" d="m18926 298.00001v42" stroke-width="6.75"/>
			<path id="path86917" d="m18926 319.00001h32" stroke-width="6.75"/>
			<path id="path86919" d="m18958 298.00001v42" stroke-width="6.75"/>
			<path id="path10426-7-7-8-7" d="m18897 249.00001v20" stroke-width="4"/>
			<path id="path10426-9-7-1-7-9" d="m18913 249.00001v20" stroke-width="4"/>
			<path id="path10450-2-3-6-8" d="m18897 259h16" stroke-width="4"/>
			<path id="path120658-0" d="m18940 269h-17v-20h17" stroke-width="4"/>
			<path id="path120658-0-7-6" d="m18962 269h-16v-19.99999" stroke-width="4"/>
			<path id="path120712" d="m18923 258h13" stroke-width="4"/>
			<path id="path3948-2-2-0-7" d="m18969 269.00001v-20l11.74-1e-5s4.122 0.41978 4.257 5.67567c0.134 5.25589-4.683 5.70449-4.683 5.70449l-11.314 1e-5" stroke-width="4"/>
		</g>
		<g id="return" transform="translate(-138.125)" fill="none" stroke="#000" stroke-linecap="round" stroke-linejoin="round" stroke-width="4">
			<path id="path79927-0-7" d="m20157.875 275.5h-15v21h15"/>
			<path id="path79929-6-4" d="m20142.875 285.5h11"/>
			<path id="path81447-0-38" d="m20211.375 296.5v-21h11.5s4.5-0.13469 4.5 5-5.5 5-5.5 5h-10.5"/>
			<path id="path81449-1-7" d="m20226.375 296.5-4.501-11"/>
			<path id="path81447-0-3" d="m20119.875 296.5v-21h11.5s4.5-0.13469 4.5 5-5.5 5-5.5 5h-10.5"/>
			<path id="path81449-1-8" d="m20134.875 296.5-4.501-11"/>
			<path id="path81451-3-9" d="m20164.875 275.5h17"/>
			<path id="path81453-0-3" d="m20173.375 296.5v-21"/>
			<path id="path82649-2-9-1" d="m20204.375 275.5v14.25c0 3.72792-3.471 6.75-7.75 6.75-4.28 0-7.75-3.02208-7.75-6.75v-14.25"/>
			<path id="path92698-4-9" d="m20234.375 296.50002v-21l14 21v-21"/>
		</g>
		<g id="line" transform="translate(-122.125,-1e-5)" fill="none" stroke="#000" stroke-linecap="round" stroke-linejoin="round" stroke-width="4">
			<path id="path79927-0-4" d="m20509.625 275.5h-15v21h15"/>
			<path id="path79929-6-0" d="m20494.625 285.5h11"/>
			<path id="path84948-6-8" d="m20466.625 275.5v21"/>
			<path id="path88893-5-3" d="m20444.125 275.50002v21h15.5"/>
			<path id="path92698-4-8" d="m20473.625 296.50002v-21l14 21v-21"/>
		</g>
		<g id="back-next" transform="translate(-114.75 -.5)" fill="none" stroke="#000" stroke-linecap="round" stroke-linejoin="round" stroke-width="4">
			<path id="path85076-9-8" d="m20676.02 283.50002 8.35-21 8.35 21"/>
			<path id="path85219-3-6" d="m20678.62 279.50002h11.5"/>
			<path id="path87740-0-2" d="m20722.464 262.50002v21"/>
			<path id="path87742-9-3" d="m20738.48 262.50002-16.016 15.5"/>
			<path id="path88891-4-8" d="m20736.445 283.50002-8.627-10.68106"/>
			<path id="path90730-1-8" d="m20713.502 265.91408c-1.615-2.48118-3.994-3.9135-6.5-3.91406-4.694 0-8.5 4.92487-8.5 11s3.806 11 8.5 11c2.51-8e-3 4.889-1.45187 6.5-3.94434" stroke-miterlimit="9" style="paint-order:fill markers stroke"/>
			<path id="path91740-1-7-0" d="m20663.02 272.50804c3-8e-3 6 1.49198 6 5.49198s-3.029 5.47299-6 5.5h-7.5v-21h7.5c3 0 6 1 6 5s-3 5.01017-6 5.01017h-7.5"/>
			<path id="path79927-0-0" d="m20691.52 295.5h-15v21h15"/>
			<path id="path79929-6-5" d="m20676.52 305.5h11"/>
			<path id="path81451-3-6" d="m20721.48 295.5h17"/>
			<path id="path81453-0-8" d="m20729.98 316.5v-21"/>
			<path id="path90602-5-9" d="m20714.48 295.50002-15.96 21"/>
			<path id="path90602-6-9-2" d="m20699.729 295.50002 15.521 21.00001"/>
			<path id="path92698-4-5" d="m20655.52 316.50002v-21l14 21v-21"/>
		</g>
		<g id="shift" transform="translate(-114.75)" fill="none" stroke="#000" stroke-linecap="round" stroke-linejoin="round" stroke-width="4">
			<path id="path81451-3-7" d="m20091.537 470.49998h17"/>
			<path id="path81453-0-2" d="m20100.037 491.49998v-21"/>
			<path id="path84948-6-6" d="m20062.537 470.49998v21"/>
			<path id="path85221-5-5" d="m20017.963 487.23487s2.259 4.76513 7.574 4.76513c4 0 7-2.67732 7-6s-1.5-5.5-7-5.5-7.38-3-7.38-5.5 2.345-5 7.38-5 7 3 7 3"/>
			<path id="path85898-3-7" d="m20069.537 491.5v-21h15"/>
			<path id="path85900-6-8" d="m20082.037 480h-12.5"/>
			<path id="path86915-3-2" d="m20039.537 470.5v21"/>
			<path id="path86917-1-8" d="m20039.537 481h16"/>
			<path id="path86919-9-3" d="m20055.537 470.5v21"/>
		</g>
		<g id="top" transform="translate(-49.7495)" fill="none" stroke="#000" stroke-linecap="round" stroke-linejoin="round" stroke-width="4">
			<path id="path81451-3-66" d="m20325.25 470.5h17"/>
			<path id="path81453-0-29" d="m20333.75 491.5v-21"/>
			<path id="path81447-1-4-7" d="m20370.249 491.5v-21h11.5s4.5-0.13469 4.5 5-5.5 5-5.5 5h-10.5"/>
			<ellipse id="path84950-0-0" cx="20354.75" cy="481" rx="8.5" ry="11" stroke-miterlimit="9" style="paint-order:fill markers stroke"/>
		</g>
		<g id="meta" transform="translate(-48.75 .5)" fill="none" stroke="#000" stroke-linecap="round" stroke-linejoin="round" stroke-width="4">
			<path id="path79927-0-8-4" d="m17151.15 664.99999h-15v21h15"/>
			<path id="path79929-6-7-5" d="m17136.15 674.99999h11"/>
			<path id="path81451-3-3-7" d="m17158.15 664.99999h17"/>
			<path id="path81453-0-35-0" d="m17166.65 685.99999v-21"/>
			<path id="path85076-9-0-7" d="m17179.15 686.00001 8.35-21 8.35 21"/>
			<path id="path85219-3-1-8" d="m17181.75 682.00001h11.5"/>
			<path id="path93133-1-4-9" d="m17111.15 686.00001v-21h1l8 20 8-20h1v21"/>
		</g>
		<g id="ctrl" transform="translate(-97.5 .5)" fill="none" stroke="#000" stroke-linecap="round" stroke-linejoin="round" stroke-width="4">
			<path id="path81447-0-6-9" d="m17464.5 685.99999v-21h11.5s4.5-0.13469 4.5 5-5.5 5-5.5 5h-10.5"/>
			<path id="path81449-1-4-3" d="m17479.5 685.99999-4.501-11"/>
			<path id="path81451-3-4-9" d="m17440.5 664.99999h17"/>
			<path id="path81453-0-1-4" d="m17449 685.99999v-21"/>
			<path id="path88893-5-35-6" d="m17487.5 665.00001v21h15.5"/>
			<path id="path90730-1-89-4" d="m17436.5 668.41407c-1.615-2.48118-3.994-3.9135-6.5-3.91406-4.694 0-8.5 4.92487-8.5 11s3.806 11 8.5 11c2.51-8e-3 4.889-1.45187 6.5-3.94434" stroke-miterlimit="9" style="paint-order:fill markers stroke"/>
		</g>
		<g id="lshift" transform="translate(-105.625,2e-5)" fill="none" stroke="#000" stroke-linecap="round" stroke-linejoin="round" stroke-width="4">
			<path id="path81451-3-7-5" d="m17774.912 470.5h17"/>
			<path id="path81453-0-2-2" d="m17783.412 491.5v-21"/>
			<path id="path84948-6-6-4" d="m17745.912 470.5v21"/>
			<path id="path85221-5-5-0" d="m17701.338 487.23489s2.259 4.76513 7.574 4.76513c4 0 7-2.67732 7-6s-1.5-5.5-7-5.5-7.38-3-7.38-5.5 2.345-5 7.38-5 7 3 7 3"/>
			<path id="path85898-3-7-0" d="m17752.912 491.50002v-21h15"/>
			<path id="path85900-6-8-6" d="m17765.412 480.00002h-12.5"/>
			<path id="path86915-3-2-8" d="m17722.912 470.50002v21"/>
			<path id="path86917-1-8-5" d="m17722.912 481.00002h16"/>
			<path id="path86919-9-3-4" d="m17738.912 470.50002v21"/>
		</g>
		<g id="g296604" transform="translate(48.7505)" fill="none" stroke="#000" stroke-linecap="round" stroke-linejoin="round" stroke-width="4">
			<path id="path81451-3-66-9" d="m17269.25 470.5h17"/>
			<path id="path81453-0-29-4" d="m17277.75 491.5v-21"/>
			<path id="path81447-1-4-7-6" d="m17314.249 491.5v-21h11.5s4.5-0.13469 4.5 5-5.5 5-5.5 5h-10.5"/>
			<ellipse id="path84950-0-0-8" cx="17298.752" cy="481" rx="8.5" ry="11" stroke-miterlimit="9" style="paint-order:fill markers stroke"/>
		</g>
		<g id="shiftlock" transform="translate(-65.0005)" fill="none" stroke="#000" stroke-linecap="round" stroke-linejoin="round" stroke-width="4">
			<path id="path81451-3-7-5-3" d="m17231.001 454.99998h17"/>
			<path id="path81453-0-2-2-2" d="m17239.501 475.99998v-21"/>
			<path id="path84948-6-6-4-3" d="m17202.001 454.99998v21"/>
			<path id="path85221-5-5-0-6" d="m17157.426 471.73487s2.259 4.76513 7.575 4.76513c4 0 7-2.67732 7-6s-1.5-5.5-7-5.5-7.381-3-7.381-5.5 2.346-5 7.381-5 7 3 7 3"/>
			<path id="path85898-3-7-0-2" d="m17209.001 476v-21h15"/>
			<path id="path85900-6-8-6-2" d="m17221.501 464.5h-12.5"/>
			<path id="path86915-3-2-8-4" d="m17179.001 455v21"/>
			<path id="path86917-1-8-5-7" d="m17179.001 465.5h16"/>
			<path id="path86919-9-3-4-0" d="m17195.001 455v21"/>
			<ellipse id="path84950-0-6" cx="17187.002" cy="498.49988" rx="8.5" ry="11" stroke-miterlimit="9" style="paint-order:fill markers stroke"/>
			<path id="path87740-0-4" d="m17223.486 487.99987v21"/>
			<path id="path87742-9-6" d="m17239.501 487.99987-16.013 15.5"/>
			<path id="path88891-4-4" d="m17237.467 508.99987-8.628-10.68106"/>
			<path id="path88893-5-4" d="m17160.198 487.99987v21h15.5"/>
			<path id="path90730-1-5" d="m17216.486 491.41393c-1.616-2.48118-3.993-3.9135-6.5-3.91406-4.693 0-8.5 4.92487-8.5 11s3.807 11 8.5 11c2.509-8e-3 4.888-1.45187 6.5-3.94434" stroke-miterlimit="9" style="paint-order:fill markers stroke"/>
		</g>
		<g id="rubout" transform="translate(-105.375)" fill="none" stroke="#000" stroke-linecap="round" stroke-linejoin="round" stroke-width="4">
			<path id="path81447-0-2" d="m17607.875 296.49998v-21h11.5s4.5-0.13469 4.5 5-5.5 5-5.5 5h-10.5"/>
			<path id="path81449-1-5" d="m17622.875 296.49998-4.501-11"/>
			<path id="path82649-2-9-16" d="m17646.375 275.49998v14.25c0 3.72792-3.47 6.75-7.75 6.75s-7.75-3.02208-7.75-6.75v-14.25"/>
			<path id="path91740-1-7-1" d="m17660.875 285.50802c3-8e-3 6 1.49198 6 5.49198s-3.029 5.47299-6 5.5h-7.5v-21h7.5c3 0 6 1 6 5s-3 5.01017-6 5.01017h-7.5"/>
			<path id="path81451-3-71" d="m17737.875 275.49987h17"/>
			<path id="path81453-0-21" d="m17746.375 296.49987v-21"/>
			<path id="path82649-2-9-7" d="m17730.875 275.49987v14.25c0 3.72791-3.47 6.75-7.75 6.75s-7.75-3.02209-7.75-6.75v-14.25"/>
			<ellipse id="path84950-0-3" cx="17699.875" cy="285.99985" rx="8.5" ry="11" stroke-miterlimit="9" style="paint-order:fill markers stroke"/>
		</g>
		<g id="form" transform="translate(-65)" fill="none" stroke="#000" stroke-linecap="round" stroke-linejoin="round" stroke-width="4">
			<path id="path81447-0-34" d="m17204.75 296.5v-21h11.5s4.5-0.13469 4.5 5-5.5 5-5.5 5h-10.5"/>
			<path id="path81449-1-85" d="m17219.75 296.5-4.501-11"/>
			<ellipse id="path84950-0-01" cx="17189.25" cy="286" rx="8.5" ry="11" stroke-miterlimit="9" style="paint-order:fill markers stroke"/>
			<path id="path85898-3-0" d="m17158.75 296.50002v-21h15"/>
			<path id="path85900-6-89" d="m17171.25 285.00002h-12.5"/>
			<path id="path93133-1-4-9-9" d="m17227.75 296.50002v-21h1l8 20 8-20h1v21"/>
		</g>
		<g id="vt" transform="translate(-64.99999)" fill="none" stroke="#000" stroke-linecap="round" stroke-linejoin="round" stroke-width="4">
			<path id="path81451-3-2" d="m17401.529 275.5h17"/>
			<path id="path81453-0-0" d="m17410.029 296.5v-21"/>
			<path id="path91274-7-2" d="m17375.971 275.50002 9.279 21 9.279-21"/>
		</g>
		<g id="clear" transform="translate(-65)" fill="none" stroke="#000" stroke-linecap="round" stroke-linejoin="round" stroke-width="4">
			<path id="path79927-0-1" d="m17208.65 80.499988h-15v21.000002h15"/>
			<path id="path79929-6-05" d="m17193.65 90.499988h11"/>
			<path id="path81447-0-20" d="m17239.35 101.49999v-21.000002h11.5s4.5-0.13469 4.5 5-5.5 5-5.5 5h-10.5"/>
			<path id="path81449-1-0" d="m17254.35 101.49999-4.501-11.000002"/>
			<path id="path85076-9-7" d="m17215.65 101.50001 8.35-21.000002 8.35 21.000002"/>
			<path id="path85219-3-4" d="m17218.25 97.500008h11.5"/>
			<path id="path88893-5-36" d="m17171.15 80.500008v21.000002h15.5"/>
			<path id="path90730-1-6" d="m17164.15 83.914068c-1.615-2.48118-3.994-3.9135-6.5-3.91406-4.694 0-8.5 4.92487-8.5 11s3.806 11.000002 8.5 11.000002c2.51-8e-3 4.889-1.45187 6.5-3.944342" stroke-miterlimit="9" style="paint-order:fill markers stroke"/>
		</g>
		<g id="tab" transform="translate(-97.499989)" fill="none" stroke="#000" stroke-linecap="round" stroke-linejoin="round" stroke-width="4">
			<path id="path81451-3-33" d="m17433.15 80.499988h17"/>
			<path id="path81453-0-9" d="m17441.65 101.49999v-21.000002"/>
			<path id="path85076-9-04" d="m17454.15 101.50001 8.35-21.000002 8.35 21.000002"/>
			<path id="path85219-3-3" d="m17456.75 97.500008h11.5"/>
			<path id="path91740-1-7-34" d="m17485.35 90.508028c3-8e-3 6 1.49198 6 5.49198 0 4.000002-3.029 5.472992-6 5.500002h-7.5v-21.000002h7.5c3 0 6 1 6 5s-3 5.01017-6 5.01017h-7.5"/>
		</g>
		<g id="alt" transform="translate(-129.99999)" fill="none" stroke="#000" stroke-linecap="round" stroke-linejoin="round" stroke-width="4">
			<path id="path81451-3-1" d="m17735.35 80.499988h17"/>
			<path id="path81453-0-13" d="m17743.85 101.49999v-21.000002"/>
			<path id="path85076-9-2" d="m17692.15 101.50001 8.35-21.000002 8.35 21.000002"/>
			<path id="path85219-3-45" d="m17694.75 97.500008h11.5"/>
			<path id="path88893-5-38" d="m17715.85 80.500008v21.000002h15.5"/>
		</g>
		<g id="F" transform="translate(-146.24999)" fill="none" stroke="#000" stroke-linecap="round" stroke-linejoin="round">
			<path id="path85898" d="m18536 340.00001v-42h30" stroke-width="6.75"/>
			<path id="path85900" d="m18561 317.00001h-25" stroke-width="6.75"/>
			<path id="path227530" d="m18542 240.99961c13.991-17.69778 17.137 16.33042 17.851 32.25155m-0.795-6.25155c3.133 15.94896-3.257 20-9.056 20.00001-5.799-1e-5 -11-5.99188-11-14.00001s3.918-15.00001 10-15.00001c6.116 0 8.882 3.02205 10.056 9.00001z" stroke-width="6"/>
		</g>
		<g id="G" transform="translate(-146.24999)" fill="none" stroke="#000" stroke-linecap="round" stroke-linejoin="round">
			<path id="path86479-6" d="m18750.187 319.00001h14c0.356 12.39262-0.755 22-15.687 22-10.493 0-19-9.84974-19-22s8.507-22 19-22c5.324 3e-3 10.403 2.59166 14 7.13672" stroke-width="6.75"/>
			<path id="path15345-3-5-0-3" d="m18730.5 255.00001h27" stroke-width="6"/>
			<path id="path15345-2-7-2-6-9" d="m18730.5 269.00001h27" stroke-width="6"/>
			<path id="path29779-9-1" d="m18736 285.00001 13-46" stroke-width="6"/>
		</g>
		<g id="O" transform="translate(-129.99999)">
			<path id="path29918-7-0-2-4" d="m19482.311 61.755791-1.266 3.795-6.815 20.441-6.748-20.453-1.253-3.799 4.021 8e-6v-25.455008h8v25.455008z" color="#000000" stroke-linecap="square" stroke-miterlimit="5" style="-inkscape-stroke:none"/>
			<ellipse id="path84950" cx="19477.25" cy="123.9918" rx="17" ry="22" fill="none" stroke="#000" stroke-linecap="round" stroke-linejoin="round" stroke-miterlimit="9" stroke-width="6.75" style="paint-order:fill markers stroke"/>
		</g>
		<g id="P" transform="translate(-129.99932)">
			<path id="path29918-7-0-3" d="m19680.291 60.520791-1.266-3.795-6.815-20.441-6.748 20.453-1.253 3.799 4.021 8e-6v25.454992h8v-25.454992z" color="#000000" stroke-linecap="square" stroke-miterlimit="5" style="-inkscape-stroke:none"/>
			<path id="path81447-1" d="m19656.25 144.99179v-42h23s9-0.26938 9 10-11 10-11 10h-21" fill="none" stroke="#000" stroke-linecap="round" stroke-linejoin="round" stroke-width="6.75"/>
		</g>
		<g id="J" transform="translate(-146.24916)">
			<path id="path29918-7-04-2" d="m19135.384 257.93946-3.795 1.26563-20.441 6.81445 20.453 6.74805 3.799 1.2539-0.02-4.02148h25.471v-8h-25.471z" color="#000000"/>
			<path id="path87716-7" d="m19122.855 321.00001v7.5c0 6.90356 6.716 12.5 15 12.5s15-5.59644 15-12.5v-30.5" fill="none" stroke="#000" stroke-linecap="round" stroke-linejoin="round" stroke-width="6.75"/>
		</g>
		<g id="K" transform="translate(-146.25071)">
			<path id="path29918-7-7-1-7" d="m19331.616 257.93946 3.795 1.26563 20.44 6.81445-20.453 6.74805-3.799 1.2539 0.02-4.02148h-25.471v-8h25.471z" color="#000000"/>
			<path id="path87740-2" d="m19315.145 298.00001v42" fill="none" stroke="#000" stroke-linecap="round" stroke-linejoin="round" stroke-width="6.75"/>
			<path id="path87742-99" d="m19347.177 298.00001-32.032 31" fill="none" stroke="#000" stroke-linecap="round" stroke-linejoin="round" stroke-width="6.75"/>
			<path id="path88891-3" d="m19343.106 340.00001-17.254-21.36212" fill="none" stroke="#000" stroke-linecap="round" stroke-linejoin="round" stroke-width="6.75"/>
		</g>
		<g id="L" transform="translate(-146.24905)">
			<path id="path231110-9" d="m19529.115 257.93947 3.795 1.26563 20.444 6.81445-20.456 6.74805-3.796 1.2539 0.01-7.59765-1.177-0.44336 1.177-0.45117zm-8.761 5.06055v6h5.646v-6zm2.531-5.06055-3.795 1.26563-20.444 6.81445 20.456 6.74805 3.796 1.2539-0.01-7.59765 1.177-0.44336-1.177-0.45117zm8.761 5.06055v6h-5.646v-6z" color="#000000"/>
			<path id="path88893-0" d="m19514.5 298.00001v42h31" fill="none" stroke="#000" stroke-linecap="round" stroke-linejoin="round" stroke-width="6.75"/>
		</g>
		<g id="rmeta" transform="translate(242.75,-1e-5)" fill="none" stroke="#000" stroke-linecap="round" stroke-linejoin="round" stroke-width="4">
			<path id="path79927-0-8-4-9" d="m20207.15 665.5h-15v21h15"/>
			<path id="path79929-6-7-5-0" d="m20192.15 675.5h11"/>
			<path id="path81451-3-3-7-5" d="m20214.15 665.5h17"/>
			<path id="path81453-0-35-0-5" d="m20222.65 686.5v-21"/>
			<path id="path85076-9-0-7-0" d="m20235.15 686.50002 8.35-21 8.35 21"/>
			<path id="path85219-3-1-8-1" d="m20237.75 682.50002h11.5"/>
			<path id="path93133-1-4-9-9-9" d="m20167.15 686.50002v-21h1l8 20 8-20h1v21"/>
		</g>
		<g id="rctrl" transform="translate(-309.75,-1e-5)" fill="none" stroke="#000" stroke-linecap="round" stroke-linejoin="round" stroke-width="4">
			<path id="path81447-0-6-9-2" d="m20504.25 686.5v-21h11.5s4.5-0.13469 4.5 5-5.5 5-5.5 5h-10.5"/>
			<path id="path81449-1-4-3-8" d="m20519.25 686.5-4.501-11"/>
			<path id="path81451-3-4-9-8" d="m20480.25 665.5h17"/>
			<path id="path81453-0-1-4-4" d="m20488.75 686.5v-21"/>
			<path id="path88893-5-35-6-9" d="m20527.25 665.50002v21h15.5"/>
			<path id="path90730-1-89-4-8" d="m20476.25 668.91408c-1.615-2.48118-3.994-3.9135-6.5-3.91406-4.694 0-8.5 4.92487-8.5 11s3.806 11 8.5 11c2.51-8e-3 4.889-1.45187 6.5-3.94434" stroke-miterlimit="9" style="paint-order:fill markers stroke"/>
		</g>
		<g id="hyphen" transform="translate(-97.49933)" fill="none" stroke="#000" stroke-linecap="round" stroke-linejoin="round" stroke-width="6">
			<path id="path15345-3-2" d="m19759.25-130.49997h21"/>
			<path id="path15345-2-7-1" d="m19759.25-120h21"/>
			<path id="path15345-2-7-1-9" d="m19759.25-66.49998h21"/>
		</g>
		<g id="3" transform="translate(-97.5)" fill="none" stroke="#000" stroke-linecap="round" stroke-linejoin="round">
			<path id="path1173-7" d="m18194.25-93.49999h28c0 6.77423-20 18-20 18s25-4.65811 25 12c0 10.16134-7.967 13-17 13-9.032 0-18-7-18-7" stroke-width="6.75" style="mix-blend-mode:normal"/>
			<path id="path15264-5" d="m18199.25-114.99999 10-47" stroke-width="6"/>
			<path id="path15264-7-0" d="m18212.25-114.99999 10-47" stroke-width="6"/>
			<path id="path15345-7" d="m18195.25-144.49999h32" stroke-width="6"/>
			<path id="path15345-2-3" d="m18193.25-129.49999h32" stroke-width="6"/>
		</g>
		<g id="0" transform="translate(-97.49933)" fill="none" stroke="#000" stroke-linecap="round" stroke-linejoin="round">
			<ellipse id="path105190" cx="19574.248" cy="-72.499992" rx="17.000151" ry="22" stroke-miterlimit="9" stroke-width="6" style="paint-order:fill markers stroke"/>
			<path id="path105196" d="m19557.25-47.49999 34-50" stroke-width="4"/>
			<path id="path128441" d="m19552.25-130.49999h45" stroke-width="6"/>
		</g>
		<g id="9" transform="translate(-97.49933)" fill="none" stroke="#000" stroke-linecap="round" stroke-linejoin="round">
			<path id="path103462-8" d="m19363.25-82.49999c0-6.35127 6.492-12 14.5-12s14.5 5.64873 14.5 12-6.492 11.5-14.5 11.5-14.5-5.14873-14.5-11.5z" stroke-miterlimit="9" stroke-width="6.75" style="paint-order:fill markers stroke"/>
			<path id="path103462-0-1" d="m19365.25-56.28319c3.292 3.59066 7.681 5.7832 12.5 5.7832 10.217 0 18.5-9.84975 18.5-22s-8.283-22-18.5-22" stroke-miterlimit="9" stroke-width="6.75" style="paint-order:fill markers stroke"/>
			<path id="path130557-9" d="m19371.75-154.49997s10 6.72936 10 23-12 23-12 23" stroke-width="6"/>
		</g>
		<g id="at" transform="translate(-97.49933)">
			<path id="path37349-4-4-9" d="m19975.558-126.03014-17.465-22.34136-8.361 8.36154 22.342 17.46443z"/>
			<circle id="path127616-6-9" transform="matrix(-.70710678 .70710678 .70710678 .70710678 0 0)" cx="-14211.506" cy="14006.861" r="5.9565001" style="paint-order:fill markers stroke"/>
			<circle id="path127620-6-1" transform="matrix(-.70710678 .70710678 .70710678 .70710678 0 0)" cx="-14211.506" cy="14035.436" r="2.4820001" style="paint-order:fill markers stroke"/>
			<path id="path134674" d="m19971.355-63.758126s4-8.741864 0-14.741864-14-3-12 6 20 13 23 4-3-24-16-24-20 10-20 20 9 20 20 20" fill="none" stroke="#000" stroke-linecap="round" stroke-linejoin="round" stroke-width="6"/>
		</g>
		<g id="caret" transform="translate(-97.4993)" fill="none" stroke="#000" stroke-linecap="round" stroke-linejoin="round" stroke-width="6">
			<path id="path28244-3-5" d="m20133.75-127.49999c1.098-5.16219 3.155-11.79349 12-11.79349s20 18.26066 29 18.26066 9.902-6.6313 11-11.7935"/>
			<path id="path138025" d="m20144.75-55.49999 16-38 16 38"/>
		</g>
		<g id="5" transform="translate(-97.50006)" fill="none" stroke="#000" stroke-linecap="round" stroke-linejoin="round">
			<path id="path22080-5" d="m18586.752-116.51299 26-47" stroke-width="4"/>
			<circle id="path22082-0" cx="18587.25" cy="-153.513" r="9.5" stroke-miterlimit="9" stroke-width="6" style="paint-order:fill markers stroke"/>
			<circle id="path22082-3-0-6" transform="scale(-1)" cx="-18612.25" cy="126.51299" r="9.5" stroke-miterlimit="9" stroke-width="6" style="paint-order:fill markers stroke"/>
			<path id="path302325" d="m18616.831-93.49999h-24.566l-6.142 18.42491c5.672-0.731599 10.301-1.923 15.446-2.05575 9.562-0.24666 17.318 5.961637 17.318 13.31542 0 7.353793-7.753 13.31527-17.318 13.31542-6.409-1.01e-4 -12.005-2.677243-14.999-6.65646" stroke-width="6.75"/>
		</g>
		<g id="bs" transform="translate(-117.937)" fill="none" stroke="#000" stroke-linecap="round" stroke-linejoin="round" stroke-width="4">
			<path id="path85221-5-7" d="m20443.15-97.76512s2.259 4.76513 7.574 4.76513c4 0 7-2.67732 7-6s-1.5-5.5-7-5.5-7.38-3-7.38-5.5 2.345-5 7.38-5 7 3 7 3"/>
			<path id="path91740-1-7-3" d="m20430.15-104.49197c3-8e-3 6 1.49198 6 5.49198s-3.029 5.47299-6 5.5h-7.5v-21h7.5c3 0 6 1 6 5s-3 5.01017-6 5.01017h-7.5"/>
		</g>
		<g id="call" transform="translate(-126.562)" fill="none" stroke="#000" stroke-linecap="round" stroke-linejoin="round" stroke-width="4">
			<path id="path85076-9-3" d="m20786.462-93.49999 8.35-21 8.35 21"/>
			<path id="path85219-3-5" d="m20789.062-97.49999h11.5"/>
			<path id="path88893-5-1" d="m20808.662-114.49999v21h15.5"/>
			<path id="path88893-5-1-7" d="m20829.662-114.49999v21h15.5"/>
			<path id="path90730-1-2" d="m20782.462-111.08593c-1.615-2.48118-3.994-3.9135-6.5-3.91406-4.694 0-8.5 4.92487-8.5 11s3.806 11 8.5 11c2.51-8e-3 4.889-1.45187 6.5-3.94434" stroke-miterlimit="9" style="paint-order:fill markers stroke"/>
		</g>
		<g id="esc" transform="translate(-81.25)" fill="none" stroke="#000" stroke-linecap="round" stroke-linejoin="round" stroke-width="4">
			<path id="path79927-0-15" d="m17496.713-114.49999h-15v21h15"/>
			<path id="path79929-6-8" d="m17481.713-104.49999h11"/>
			<path id="path85221-5-1" d="m17503.713-97.7651s2.259 4.76513 7.574 4.76513c4 0 7-2.67732 7-6s-1.5-5.5-7-5.5-7.38-3-7.38-5.5 2.345-5 7.38-5 7 3 7 3"/>
			<path id="path90730-1-3" d="m17540.287-111.08591c-1.615-2.48118-3.994-3.9135-6.5-3.91406-4.694 0-8.5 4.92487-8.5 11s3.806 11 8.5 11c2.51-8e-3 4.889-1.45187 6.5-3.94434" stroke-miterlimit="9" style="paint-order:fill markers stroke"/>
		</g>
		<g id="break" transform="translate(-68.12)" fill="none" stroke="#000" stroke-linecap="round" stroke-linejoin="round" stroke-width="4">
			<path id="path79927-0-9" d="m17211.262-114.50002h-15v21h15"/>
			<path id="path79929-6-6" d="m17196.262-104.50002h11"/>
			<path id="path81447-0-5" d="m17174.762-93.50002v-21h11.5s4.5-0.13469 4.5 5-5.5 5-5.5 5h-10.5"/>
			<path id="path81449-1-44" d="m17189.762-93.50002-4.501-11"/>
			<path id="path85076-9-72" d="m17216.762-93.5 8.35-21 8.35 21"/>
			<path id="path85219-3-10" d="m17219.362-97.5h11.5"/>
			<path id="path87740-0-1" d="m17238.962-114.5v21"/>
			<path id="path87742-9-37" d="m17254.978-114.5-16.016 15.5"/>
			<path id="path88891-4-7" d="m17252.943-93.5-8.627-10.68106"/>
			<path id="path91740-1-7-7" d="m17163.262-104.49198c3-8e-3 6 1.49198 6 5.49198s-3.029 5.47299-6 5.5h-7.5v-21h7.5c3 0 6 1 6 5s-3 5.01017-6 5.01017h-7.5"/>
		</g>
		<g id="6" transform="translate(-97.49933)" fill="none" stroke="#000" stroke-linecap="round" stroke-linejoin="round">
			<path id="path103462-0-7" d="m18809.476-88.71679c-3.292-3.59066-7.681-5.7832-12.5-5.7832-10.217 0-18.5 9.84975-18.5 22s8.283 22 18.5 22" stroke-miterlimit="9" stroke-width="6.75" style="paint-order:fill markers stroke"/>
			<path id="path103462-85-0" d="m18811.476-62.49999c0 6.35127-6.492 12-14.5 12s-14.5-5.64873-14.5-12 6.492-11.5 14.5-11.5 14.5 5.14873 14.5 11.5z" stroke-miterlimit="9" stroke-width="6.75" style="paint-order:fill markers stroke"/>
			<path id="path15593-8-4" d="m18813.976-116.49999c-10-8-35.989-24.39155-36-36 0-5 4-9 8.5-9s8.5 1.72953 8.5 9c0 7.27048-10 11-17 19s2 20 10 20 15-5 21-21" stroke-width="6"/>
		</g>
		<g id="8" transform="translate(-97.49933)" fill="none" stroke="#000" stroke-linecap="round" stroke-linejoin="round">
			<ellipse id="path104634-5" cx="19184.75" cy="-84.841454" rx="14.857142" ry="9.6585369" stroke-miterlimit="9" stroke-width="6.75" style="paint-order:fill markers stroke"/>
			<ellipse id="path104634-1-3" cx="19184.75" cy="-62.84145" rx="14.857142" ry="12.341463" stroke-miterlimit="9" stroke-width="6.75" style="paint-order:fill markers stroke"/>
			<path id="path130557-0" d="m19188.752-154.49999s-10 6.72936-10 23c0 16.27065 12 23 12 23" stroke-width="6"/>
		</g>
		<g id="4" transform="translate(-97.5)" fill="none" stroke="#000" stroke-linecap="round" stroke-linejoin="round">
			<path id="path101122" d="m18421.75-65.625012h-34l26.235-27.874978v42" stroke-width="6.75"/>
			<path id="path7396-8-5" d="m18412.325-147.43646s-2-3.07692-6.857-3.07692-8.848 1.79317-8.857 6.15385c-0.01 4.36068 4.285 5.53847 7.714 5.84615 3.428 0.30769 8.857 2.46154 8.857 6.15385 0 3.69232-4.572 5.84615-9.429 5.84615s-8.571-3.07692-8.571-3.07692" stroke-width="6"/>
			<path id="path20498-8" d="m18404.75-163.513v13.01301" stroke-width="4"/>
			<path id="path20498-4-9" d="m18404.75-126.54374v10.03036" stroke-width="4"/>
		</g>
		<g id="1" transform="translate(-97.5)">
			<circle id="path37273-0-4-87" cx="17822.248" cy="-109.49999" r="4.5" style="paint-order:fill markers stroke"/>
			<path id="path37349-4" d="m17819.786-123.89641-3.448-28.14744h11.824l-3.448 28.14744z"/>
			<circle id="path127616" cx="17822.248" cy="-152.77205" r="5.9565001" style="paint-order:fill markers stroke"/>
			<circle id="path127620" cx="17822.248" cy="-124.19821" r="2.4820001" style="paint-order:fill markers stroke"/>
			<path id="path96500-9" d="m17815.25-84.501463c5 0 9-9 9-9v42.001473" fill="none" stroke="#000" stroke-linecap="round" stroke-linejoin="round" stroke-width="6.75"/>
		</g>
		<g id="7" transform="translate(-97.49933)">
			<path id="path37349-4-4" d="m18976.589-126.03014 17.465-22.34136 8.361 8.36154-22.342 17.46443z"/>
			<circle id="path127616-6" transform="rotate(45)" cx="13331.822" cy="-13536.466" r="5.9565001" style="paint-order:fill markers stroke"/>
			<circle id="path127620-6" transform="rotate(45)" cx="13331.822" cy="-13507.892" r="2.4820001" style="paint-order:fill markers stroke"/>
			<path id="path104143" d="m18972.75-93.49999h34v3s-18 6.1462-18 39" fill="none" stroke="#000" stroke-linecap="round" stroke-linejoin="round" stroke-width="6.75"/>
		</g>
		<g id="2" transform="translate(-97.5)">
			<circle id="path127616-2" cx="18005.748" cy="-145.5435" r="5.9565001" style="paint-order:fill markers stroke"/>
			<circle id="path127620-4" cx="18005.748" cy="-126.018" r="2.4820001" style="paint-order:fill markers stroke"/>
			<path id="path127732" d="m17999.889-144.48341 3.419 18.9071 4.884-7e-5 3.419-18.90716z"/>
			<circle id="path127616-2-2" cx="18022.748" cy="-145.5435" r="5.9565001" style="paint-order:fill markers stroke"/>
			<circle id="path127620-4-8" cx="18022.748" cy="-126.018" r="2.4820001" style="paint-order:fill markers stroke"/>
			<path id="path127732-9" d="m18016.889-144.48341 3.419 18.9071 4.884-7e-5 3.419-18.90716z"/>
			<path id="path96506-7" d="m18000.75-82.49999c-0.225-17.000005 32.968-12.93798 25 3-4 8.00032-28 15-28 28h34" fill="none" stroke="#000" stroke-linecap="round" stroke-linejoin="round" stroke-width="6.75"/>
		</g>
		<g id="up" transform="translate(-114.25069)" fill="none" stroke="#000" stroke-linecap="round" stroke-linejoin="round" stroke-width="6">
			<circle id="path137070-5" cx="20696.5" cy="123.9918" r="23" stroke-miterlimit="5" style="paint-order:fill markers stroke"/>
			<path id="path137116-6" d="m20673.501 123.9918h46"/>
			<path id="path136508-9-6" d="m20715.472 86.991819-18.971-41.49989-18.971 41.49989z"/>
		</g>
		<g id="down" transform="translate(-114.75159)" fill="none" stroke="#000" stroke-linecap="round" stroke-linejoin="round" stroke-width="6">
			<circle id="path137070" cx="20892" cy="123.9918" r="23" stroke-miterlimit="5" style="paint-order:fill markers stroke"/>
			<path id="path137116" d="m20869.001 123.99181h46"/>
			<path id="path137116-8" d="m20892.001 100.99181v46"/>
			<path id="path136508-9-6-9" d="m20873.03 45.491874 18.971 41.5 18.971-41.5z"/>
		</g>
	</g>
</svg>
