<!-- Created with Inkscape (http://www.inkscape.org/) -->
<svg id="svg177" width="4047" height="1040" version="1.1" viewBox="0 0 4047.0001 1040" xml:space="preserve"
	xmlns="http://www.w3.org/2000/svg">
	<g id="g183" transform="translate(-16974.75,234)">
		<g id="W" transform="translate(-129.99999)" stroke-linecap="round" stroke-linejoin="round">
			<path id="path79107-3" d="m18112.25 99.617187a3.3753375 3.3753375 0 0 0-3.229 2.392583l-9.263 30.47265-7.776-30.32031a3.375 3.375 0 0 0-4.107-2.431641 3.375 3.375 0 0 0-2.43 4.107421l10.766 41.99219a3.3753375 3.3753375 0 0 0 6.5 0.14258l9.539-31.37891 9.539 31.37891a3.3753375 3.3753375 0 0 0 6.5-0.14258l10.766-41.99219a3.375 3.375 0 0 0-2.43-4.107421 3.375 3.375 0 0 0-4.107 2.431641l-7.776 30.32031-9.263-30.47265a3.3753375 3.3753375 0 0 0-3.229-2.392583z" color="#000000" style="-inkscape-stroke:none"/>
			<path id="path91274-6" d="m18092.48 39.248047a3 3 0 0 0-1.533 3.957031l18.559 42a3.0003 3.0003 0 0 0 5.488 0l18.559-42a3 3 0 0 0-1.533-3.957031 3 3 0 0 0-3.956 1.53125l-15.814 35.789062-15.814-35.789062a3 3 0 0 0-3.956-1.53125z" color="#000000" style="-inkscape-stroke:none"/>
		</g>
		<g id="N" transform="translate(-146.25038)" stroke-linecap="round" stroke-linejoin="round">
			<path id="path85076-3" d="m19021.842 433a3 3 0 0 0-1.15 0.21289 3 3 0 0 0-1.68 3.89649l16.701 42a3.0003 3.0003 0 0 0 5.574 0l16.702-42a3 3 0 0 0-1.68-3.89649 3 3 0 0 0-3.897 1.67773l-2.429 6.10938h-22.965l-2.43-6.10938a3 3 0 0 0-2.746-1.89062zm7.561 14h18.195l-9.098 22.88086-9.097-22.88086z" color="#000000" style="-inkscape-stroke:none"/>
			<path id="path92698" d="m19053.5 489.625a3.375 3.375 0 0 0-3.375 3.375v30.85156l-21.816-32.72461a3.3753375 3.3753375 0 0 0-6.184 1.87305v42a3.375 3.375 0 0 0 3.375 3.375 3.375 3.375 0 0 0 3.375-3.375v-30.85156l21.816 32.72461a3.3753375 3.3753375 0 0 0 6.184-1.87305v-42a3.375 3.375 0 0 0-3.375-3.375z" color="#000000" style="-inkscape-stroke:none"/>
		</g>
		<g id="M" transform="translate(-146.75032)" stroke-linecap="round" stroke-linejoin="round">
			<path id="path79927-5" d="m19217 434a3 3 0 0 0-3 3 3 3 0 0 0 3 3h27v12h-15c-1.657 0-3 1.34315-3 3s1.343 3 3 3h15v14h-27a3 3 0 0 0-3 3 3 3 0 0 0 3 3h30a3.0003 3.0003 0 0 0 3-3v-38a3.0003 3.0003 0 0 0-3-3h-30z" color="#000000" style="-inkscape-stroke:none"/>
			<path id="path93133-1-4-9-9-9-0" d="m19216 489.625a3.3753375 3.3753375 0 0 0-3.375 3.375v42a3.375 3.375 0 0 0 3.375 3.375 3.375 3.375 0 0 0 3.375-3.375v-29.47461l11.492 28.72852a3.3753375 3.3753375 0 0 0 6.266 0l11.492-28.72852v29.47461a3.375 3.375 0 0 0 3.375 3.375 3.375 3.375 0 0 0 3.375-3.375v-42a3.3753375 3.3753375 0 0 0-3.375-3.375h-2a3.3753375 3.3753375 0 0 0-3.133 2.12109l-12.867 32.16797-12.867-32.16797a3.3753375 3.3753375 0 0 0-3.133-2.12109z" color="#000000" style="-inkscape-stroke:none"/>
		</g>
		<g id="Q" transform="translate(-129.99999)" stroke-linecap="round" stroke-linejoin="round">
			<path id="path79105" d="m17915.691 98.617188c-5.874 0-11.107 3.115472-14.691 7.753902-3.584 4.63845-5.684 10.84125-5.684 17.6211 0 6.77983 2.1 12.9807 5.684 17.61914 3.584 4.63843 8.817 7.75586 14.691 7.75586 2.932 0 5.703-0.77687 8.19-2.13086l3.008 3.10351a3.375 3.375 0 0 0 4.771 0.07618 3.375 3.375 0 0 0 0.08-4.77149l-2.545-2.62695c0.412-0.45213 0.811-0.91866 1.188-1.40625 3.584-4.63844 5.683-10.83931 5.683-17.61914 0-6.77985-2.099-12.98265-5.683-17.6211-3.584-4.63843-8.817-7.753902-14.692-7.753902zm0 6.750002c3.515 0 6.781 1.80883 9.35 5.13281s4.275 8.12178 4.275 13.49219c0 5.37039-1.706 10.16821-4.275 13.49219-0.18 0.23338-0.366 0.45743-0.553 0.67578l-4.373-4.51563a3.375 3.375 0 0 0-2.369-1.02734 3.375 3.375 0 0 0-2.402 0.95117 3.375 3.375 0 0 0-0.08 4.77148l3.636 3.75586c-1.036 0.34433-2.11 0.52149-3.209 0.52149-3.514 0-6.781-1.80883-9.349-5.13281-2.569-3.32398-4.276-8.1218-4.276-13.49219 0-5.37041 1.707-10.16821 4.276-13.49219 2.568-3.32398 5.835-5.13281 9.349-5.13281z" color="#000000" style="-inkscape-stroke:none"/>
			<path id="path91274-6-9" d="m17917.25 38.992187a3.0003 3.0003 0 0 0-2.744 1.78711l-18.559 42a3 3 0 0 0 1.533 3.955078 3 3 0 0 0 3.956-1.53125l15.814-35.789063 15.814 35.789063a3 3 0 0 0 3.956 1.53125 3 3 0 0 0 1.533-3.955078l-18.559-42a3.0003 3.0003 0 0 0-2.744-1.78711z" color="#000000" style="-inkscape-stroke:none"/>
		</g>
		<g id="E" transform="translate(-129.99958)" stroke-linecap="round" stroke-linejoin="round">
			<path id="path79927" d="m18292.25 99.617188a3.3753375 3.3753375 0 0 0-3.375 3.375002v42a3.3753375 3.3753375 0 0 0 3.375 3.375h30a3.375 3.375 0 0 0 3.375-3.375 3.375 3.375 0 0 0-3.375-3.375h-26.625v-15.25h18.625c1.864 0 3.375-1.51104 3.375-3.375s-1.511-3.375-3.375-3.375h-18.625v-13.25h26.625a3.375 3.375 0 0 0 3.375-3.375 3.375 3.375 0 0 0-3.375-3.375002h-30z" color="#000000" style="-inkscape-stroke:none"/>
			<path id="path19069-6" d="m18307.25 34.992187c-8.557 0-13.645 4.692324-15.863 9.167969-2.218 4.475646-2.137 8.857422-2.137 8.857422v27.974609a3 3 0 0 0 3 3 3 3 0 0 0 3-3v-28a3.0003 3.0003 0 0 0 0-0.02734s0.01-3.116278 1.514-6.140625c1.499-3.024347 3.911-5.832032 10.486-5.832032s8.987 2.807685 10.486 5.832032 1.514 6.140625 1.514 6.140625a3.0003 3.0003 0 0 0 0 0.02734v28a3 3 0 0 0 3 3 3 3 0 0 0 3-3v-27.974609s0.08-4.381776-2.137-8.857422c-2.218-4.475645-7.306-9.167968-15.863-9.167969z" color="#000000" style="-inkscape-stroke:none"/>
		</g>
		<g id="R" transform="translate(-129.99999)" stroke-linecap="round" stroke-linejoin="round">
			<path id="path81447" d="m18486.75 99.617188a3.3753375 3.3753375 0 0 0-3.375 3.375002v20 22a3.375 3.375 0 0 0 3.375 3.375 3.375 3.375 0 0 0 3.375-3.375v-18.625h15.359l8.143 19.90234a3.375 3.375 0 0 0 4.4 1.8457 3.375 3.375 0 0 0 1.846-4.40039l-7.377-18.03515c0.685-0.19424 1.395-0.42895 2.121-0.75 3.554-1.57165 7.51-5.59779 7.51-11.9375 0-6.12063-3.146-10.1316-6.27-11.82031-3.123-1.688733-6.207-1.552739-6.207-1.552739l0.102-0.001953h-23.002zm23.102 6.748042h2e-3c5e-3 1e-5 1.416 0.0017 2.791 0.74415 1.376 0.74391 2.73 1.73406 2.73 5.88281 0 3.92963-1.544 4.90267-3.49 5.76367-1.947 0.861-4.053 0.86133-4.053 0.86133a3.3753375 3.3753375 0 0 0-0.08 0h-17.625v-13.25h19.625a3.3753375 3.3753375 0 0 0 0.1-0.00196z" color="#000000" style="-inkscape-stroke:none"/>
			<path id="path19069-6-1" d="m18485.75 34.992187a3 3 0 0 0-3 3v27.972657s-0.08 4.383729 2.137 8.859375c2.218 4.475645 7.306 9.167968 15.863 9.167968s13.645-4.692323 15.863-9.167968c2.218-4.475646 2.137-8.859375 2.137-8.859375v-27.972657a3 3 0 0 0-3-3 3 3 0 0 0-3 3v28a3.0003 3.0003 0 0 0 0 0.02539s-0.01 3.118231-1.514 6.142578c-1.499 3.024347-3.911 5.832032-10.486 5.832031-6.575 0-8.987-2.807684-10.486-5.832031s-1.514-6.142578-1.514-6.142578a3.0003 3.0003 0 0 0 0-0.02539v-28a3 3 0 0 0-3-3z" color="#000000" style="-inkscape-stroke:none"/>
		</g>
		<g id="T" transform="translate(-129.99999)" stroke-linecap="round" stroke-linejoin="round">
			<path id="path81451" d="m18679.75 99.617188a3.375 3.375 0 0 0-3.375 3.375002 3.375 3.375 0 0 0 3.375 3.375h13.625v38.625c0 1.86396 1.511 3.375 3.375 3.375s3.375-1.51104 3.375-3.375v-38.625h13.625a3.375 3.375 0 0 0 3.375-3.375 3.375 3.375 0 0 0-3.375-3.375002h-34z" color="#000000" style="-inkscape-stroke:none"/>
			<path id="path19069-6-1-2" d="m18690.777 41.492187s-4.383-0.08141-8.859 2.136719c-4.476 2.21813-9.168 7.306013-9.168 15.863281 0 8.557269 4.692 13.643199 9.168 15.861329 4.476 2.218129 8.859 2.138671 8.859 2.138671h27.973a3 3 0 0 0 3-3 3 3 0 0 0-3-3h-28a3.0003 3.0003 0 0 0-0.03 0s-3.117-0.0148-6.141-1.513671c-3.024-1.498867-5.832-3.911612-5.832-10.486329 0-6.574716 2.808-8.987461 5.832-10.486328 3.024-1.498866 6.141-1.513672 6.141-1.513672a3.0003 3.0003 0 0 0 0.03 0h28a3 3 0 0 0 3-3 3 3 0 0 0-3-3z" color="#000000" style="-inkscape-stroke:none"/>
		</g>
		<g id="Y" transform="translate(-129.99999)" stroke-linecap="round" stroke-linejoin="round">
			<path id="path81455-4" d="m18874.311 100.38672a3.375 3.375 0 0 0-0.459 4.75l16.523 20.06641v19.78906a3.375 3.375 0 0 0 3.375 3.375 3.375 3.375 0 0 0 3.375-3.375v-19.78906l16.523-20.06641a3.375 3.375 0 0 0-0.459-4.75 3.375 3.375 0 0 0-4.75 0.45898l-14.689 17.83594-14.689-17.83594a3.375 3.375 0 0 0-4.75-0.45898z" color="#000000" style="-inkscape-stroke:none"/>
			<path id="path19069-6-1-2-2" d="m18870.75 41.492187a3 3 0 0 0-3 3 3 3 0 0 0 3 3h28a3.0003 3.0003 0 0 0 0.03 0s3.117 0.01481 6.141 1.513672c3.024 1.498867 5.832 3.911612 5.832 10.486328 0 6.574717-2.808 8.987462-5.832 10.486329-3.024 1.498866-6.141 1.513671-6.141 1.513671a3.0003 3.0003 0 0 0-0.03 0h-28a3 3 0 0 0-3 3 3 3 0 0 0 3 3h27.973s4.383 0.07946 8.859-2.138671c4.476-2.21813 9.168-7.30406 9.168-15.861329 0-8.557268-4.692-13.645151-9.168-15.863281s-8.859-2.136719-8.859-2.136719z" color="#000000" style="-inkscape-stroke:none"/>
		</g>
		<g id="A" transform="translate(-146.25032)" stroke-linecap="round" stroke-linejoin="round">
			<path id="path85076" d="m17966 294.625a3.3753375 3.3753375 0 0 0-3.136 2.12891l-16.7 42a3.375 3.375 0 0 0 1.889 4.38281 3.375 3.375 0 0 0 4.383-1.89063l2.334-5.87109h22.461l2.334 5.87109a3.375 3.375 0 0 0 4.383 1.89063 3.375 3.375 0 0 0 1.888-4.38281l-16.699-42a3.3753375 3.3753375 0 0 0-3.137-2.12891zm0 12.50977 8.545 21.49023h-17.09l8.545-21.49023z" color="#000000" style="-inkscape-stroke:none"/>
			<path id="path32889-8-9" d="m17976.819 240.94141a3 3 0 0 0-1.815 0.38281l-21 12.07422a3.0003 3.0003 0 0 0 0 5.20312l21 12.07422a3 3 0 0 0 4.098-1.10547 3 3 0 0 0-1.106-4.0957l-16.476-9.47461 16.476-9.47461a3 3 0 0 0 1.106-4.0957 3 3 0 0 0-2.283-1.48828zm-21.319 33.05859a3 3 0 0 0-3 3 3 3 0 0 0 3 3h21a3 3 0 0 0 3-3 3 3 0 0 0-3-3h-21z" color="#000000" style="-inkscape-stroke:none"/>
		</g>
		<g id="S" transform="translate(-146.24999)" stroke-linecap="round" stroke-linejoin="round">
			<path id="path32889-8-9-2" d="m18151.254 240.94336a3 3 0 0 0-2.281 1.48633 3 3 0 0 0 1.105 4.0957l16.477 9.47461-16.477 9.47461a3 3 0 0 0-1.105 4.0957 3 3 0 0 0 4.095 1.10547l21-12.07422a3.0003 3.0003 0 0 0 0-5.20312l-21-12.07422a3 3 0 0 0-1.814-0.38086zm0.318 33.05664a3 3 0 0 0-3 3 3 3 0 0 0 3 3h21a3 3 0 0 0 3-3 3 3 0 0 0-3-3h-21z" color="#000000" style="-inkscape-stroke:none"/>
			<path id="path7396" d="m18163.539 293.625c-5.181 0-10.062 0.82244-14.014 3.0918-3.951 2.26935-6.837 6.45173-6.849 11.55664-0.01 5.19162 3.154 9.12073 6.834 11.11914s7.867 2.66874 11.49 2.9707c2.882 0.24018 6.971 1.30545 9.961 2.91992 2.99 1.61448 4.434 3.3947 4.434 4.99805 0 1.88473-1.129 3.43573-3.918 4.91602-2.79 1.48028-6.991 2.42773-11.323 2.42773-8.266 0-14.865-4.94141-14.865-4.94141a3.375 3.375 0 0 0-4.732 0.61719 3.375 3.375 0 0 0 0.617 4.73242s8.067 6.3418 18.98 6.3418c5.259 0 10.366-1.02846 14.487-3.21484 4.12-2.18639 7.504-5.9944 7.504-10.87891 0-5.16587-3.915-8.74429-7.977-10.9375s-8.72-3.3831-12.607-3.70703c-3.146-0.26213-6.582-0.95489-8.831-2.17578-2.248-1.22089-3.311-2.36698-3.304-5.16992 0-2.88966 1.07-4.34768 3.461-5.72071 2.39-1.37302 6.243-2.19531 10.652-2.19531 4.133 0 6.822 1.17577 8.535 2.28125s2.237 1.91992 2.237 1.91992a3.375 3.375 0 0 0 4.701 0.83008 3.375 3.375 0 0 0 0.83-4.70117s-1.452-2.00567-4.11-3.72071c-2.658-1.71503-6.737-3.35937-12.193-3.35937z" color="#000000" style="-inkscape-stroke:none"/>
		</g>
		<g id="X" transform="translate(-146.25081)" stroke-linecap="round" stroke-linejoin="round">
			<path id="path90602" d="m18273.761 489.625a3.375 3.375 0 0 0-2.758 1.33203l-12.235 16.09766-11.869-16.06055a3.375 3.375 0 0 0-2.213-1.33203 3.375 3.375 0 0 0-2.506 0.62305 3.375 3.375 0 0 0-0.707 4.7207l13.041 17.64453-15.431 20.30664a3.375 3.375 0 0 0 0.644 4.73047 3.375 3.375 0 0 0 4.729-0.64453l14.24-18.73633 13.82 18.69922a3.375 3.375 0 0 0 4.719 0.70898 3.375 3.375 0 0 0 0.707-4.7207l-14.992-20.2832 13.428-17.66797a3.375 3.375 0 0 0-0.649-4.73047 3.375 3.375 0 0 0-1.968-0.6875z" color="#000000" style="-inkscape-stroke:none"/>
			<path id="path18404-3-5" d="m18261.107 423.12695c-4.208 0.51458-7.358 2.93119-9.148 5.40625-2.387 3.30009-3.031 6.81446-3.031 6.81446l-8.444 43.05859a3 3 0 0 0 2.368 3.51953 3 3 0 0 0 3.521-2.36523l0.477-2.42774c1.848 1.61587 4.169 3.29115 7.67 4.73438 5.374 2.2157 10.809 0.86615 14.724-1.88282 3.915-2.74896 6.653-6.74725 7.469-10.90625 1.529-7.79043-1.674-13.59954-5.174-16.91406-0.813-0.7697-1.643-1.40785-2.445-1.96875 2.063-1.6006 4.35-3.81017 5.976-6.99609 4.057-7.94847-0.812-18.1988-9.41-19.88477-1.627-0.31913-3.148-0.35902-4.551-0.1875zm0.557 5.86719c0.809-0.065 1.744-6e-3 2.84 0.20898 4.112 0.80632 7.288 7.21792 5.221 11.26758-2.479 4.85643-7.702 7.15625-7.702 7.15625a3.0003 3.0003 0 0 0 0.192 5.61133s2.733 0.95024 5.197 3.2832 4.556 5.57475 3.412 11.40235c-0.43 2.19608-2.384 5.29325-5.029 7.15039s-5.64 2.62628-8.988 1.24609c-3.97-1.63666-6.211-3.52873-7.465-4.91992-0.951-1.05495-0.972-1.28348-1.072-1.51367l6.544-33.38477s0.513-2.38609 2.008-4.45312c1.121-1.55028 2.415-2.85956 4.842-3.05469z" color="#000000" style="-inkscape-stroke:none"/>
		</g>
		<g id="Z" transform="translate(-146.24991)" stroke-linecap="round" stroke-linejoin="round">
			<path id="path89739" d="m18046.5 489.625a3.375 3.375 0 0 0-3.375 3.375 3.375 3.375 0 0 0 3.375 3.375h24.439l-9.466 13.25h-24.973a3.375 3.375 0 0 0-3.375 3.375 3.375 3.375 0 0 0 3.375 3.375h20.15l-11.896 16.65039a3.3753375 3.3753375 0 0 0 2.746 5.33789h33a3.375 3.375 0 0 0 3.375-3.375 3.375 3.375 0 0 0-3.375-3.375h-26.441l10.888-15.23828h25.553a3.375 3.375 0 0 0 3.375-3.375 3.375 3.375 0 0 0-3.375-3.375h-20.731l10.477-14.66211a3.3753375 3.3753375 0 0 0-2.746-5.33789h-31z" color="#000000" style="-inkscape-stroke:none"/>
			<path id="path30663-8-0" d="m18077.324 435.05078a3 3 0 0 0-3.758 1.96875s-2.165 6.88096-5.144 14.13867c-0.485-0.8257-0.929-1.67536-1.512-2.4375-1.89-2.47278-4.51-4.61201-7.916-5.17968-4.093-0.68218-8 1.13764-10.539 4.15234s-3.955 7.18164-3.955 11.80664c0 4.82075 2.024 8.97259 5.281 11.42969 3.258 2.45709 7.77 3.09839 11.901 1.32812 2.844-1.21887 4.562-3.72299 6.314-6.64258 0.1 0.26479 0.209 0.59042 0.305 0.84571 0.421 1.11738 0.837 2.13484 1.359 3.07422 0.522 0.93937 1.078 1.92016 2.473 2.63476 2.545 1.30395 5.189 0.95425 6.842 0.23438s2.705-1.8418 2.705-1.8418a3 3 0 0 0-0.118-4.24219 3 3 0 0 0-4.242 0.11719s-0.246 0.25077-0.742 0.4668c-0.435 0.18968-0.814 0.26071-1.469-6e-3 -0.05-0.0592-0.11-0.10745-0.205-0.27735-0.263-0.47333-0.616-1.28518-0.99-2.27734-0.613-1.6252-1.382-3.88376-2.211-6.125 0.709-1.54051 1.518-2.93846 2.16-4.49219 3.17-7.67276 5.43-14.91797 5.43-14.91797a3 3 0 0 0-1.969-3.75781zm-19.318 14.4082c1.526 0.25432 2.821 1.1829 4.137 2.9043 1.126 1.47395 2.124 3.50638 3.021 5.64453-0.618 1.24045-1.188 2.71456-1.809 3.77149-1.702 2.89882-3.66 4.80144-4.037 4.96289-2.303 0.98705-4.29 0.62871-5.923-0.60352-1.634-1.23223-2.895-3.45942-2.895-6.63867 0-3.375 1.084-6.20806 2.545-7.94336s3.054-2.41548 4.961-2.09766z" color="#000000" style="-inkscape-stroke:none"/>
		</g>
		<g id="C" transform="translate(-146.25032)" stroke-linecap="round" stroke-linejoin="round" stroke-miterlimit="9">
			<path id="path90730" d="m18455.5 488.625c-5.875 0-11.107 3.11741-14.691 7.75586-3.585 4.63845-5.684 10.83931-5.684 17.61914s2.099 12.98069 5.684 17.61914c3.584 4.63845 8.816 7.75586 14.691 7.75586a3.3753375 3.3753375 0 0 0 0.01 0c6.308-0.0202 12.101-3.67322 15.822-9.43164a3.375 3.375 0 0 0-1.002-4.66602 3.375 3.375 0 0 0-4.666 1.00196c-2.72 4.20926-6.44 6.33156-10.172 6.3457-3.512-2e-3 -6.777-1.81069-9.344-5.13281-2.568-3.32398-4.275-8.12177-4.275-13.49219s1.707-10.16821 4.275-13.49219c2.569-3.32397 5.836-5.13281 9.35-5.13281 3.728 8.3e-4 7.446 2.10329 10.172 6.29297a3.375 3.375 0 0 0 4.668 0.98828 3.375 3.375 0 0 0 0.988-4.66797c-3.732-5.73501-9.53-9.36189-15.828-9.36328z" color="#000000" style="-inkscape-stroke:none;paint-order:fill markers stroke"/>
			<path id="path224490" d="m18464 429.5c-7.354 0-14.173 2.1574-19.242 6.36914-5.069 4.21175-8.258 10.55473-8.258 18.13086s3.189 13.91911 8.258 18.13086c5.069 4.21174 11.888 6.36914 19.242 6.36914a3 3 0 0 0 3-3 3 3 0 0 0-3-3c-6.177 0-11.608-1.82693-15.406-4.98242-3.129-2.59983-5.235-6.05289-5.881-10.51758h22.787c1.657 0 3-1.34315 3-3s-1.343-3-3-3h-22.787c0.646-4.46469 2.752-7.91775 5.881-10.51758 3.798-3.15549 9.229-4.98242 15.406-4.98242a3 3 0 0 0 3-3 3 3 0 0 0-3-3z" color="#000000" style="-inkscape-stroke:none;paint-order:fill markers stroke"/>
		</g>
		<g id="V" transform="translate(-146.25063)" stroke-linecap="round" stroke-linejoin="round">
			<path id="path91274" d="m18631.16 489.85352a3.375 3.375 0 0 0-2.582 0.0586 3.375 3.375 0 0 0-1.723 4.45117l18.557 42a3.3753375 3.3753375 0 0 0 6.176 0l18.557-42a3.375 3.375 0 0 0-1.723-4.45117 3.375 3.375 0 0 0-4.451 1.72461l-15.471 35.01172-15.471-35.01172a3.375 3.375 0 0 0-1.869-1.7832z" color="#000000" style="-inkscape-stroke:none"/>
			<path id="path31512-7-4" d="m18633.407 428.51953a3 3 0 0 0-2.545 2.15039 3 3 0 0 0 2.055 3.71289s0.09-7e-3 0.787 0.42383c0.7 0.43128 1.775 1.23304 3.039 2.67774 2.37 2.70939 5.421 7.70977 7.64 16.79101l-7.484 22.26953a3 3 0 0 0 1.891 3.79883 3 3 0 0 0 3.799-1.88867l4.773-14.20899c1.924 4.57234 4.306 8.01744 6.506 10.48829 3.349 3.76078 6.5 5.42968 6.5 5.42968a3 3 0 0 0 4.043-1.28515 3 3 0 0 0-1.287-4.04297s-2.034-1.01198-4.776-4.0918c-2.743-3.07982-5.969-8.08151-7.672-15.88476-0.075-0.34455-0.154-0.67205-0.232-1.00782a3 3 0 0 0-0.055-0.23633c-2.41-10.27929-5.949-16.44454-9.131-20.08203-1.655-1.89163-3.206-3.09483-4.404-3.83398-1.199-0.73915-2.279-1.08203-2.279-1.08203a3 3 0 0 0-1.168-0.09766z" color="#000000" style="-inkscape-stroke:none"/>
		</g>
		<g id="B" transform="translate(-146.24999)" stroke-linecap="round" stroke-linejoin="round">
			<path id="path91740-1" d="m18828 489.625a3.3753375 3.3753375 0 0 0-3.375 3.375v42a3.3753375 3.3753375 0 0 0 3.375 3.375h15a3.3753375 3.3753375 0 0 0 0.03 0c3.519-0.032 7.229-0.8833 10.26-3.22461 3.031-2.3413 5.084-6.29863 5.084-11.15039 0-4.59204-1.854-8.34755-4.625-10.73633 2.747-2.1704 4.625-5.77356 4.625-10.26367 0-4.84375-2.138-8.73256-5.252-10.80859-3.114-2.07604-6.748-2.56641-10.123-2.56641zm3.375 6.75h11.625c2.625 0 4.991 0.50963 6.377 1.43359 1.386 0.92397 2.248 2.03516 2.248 5.19141s-0.864 4.27683-2.252 5.20508c-1.385 0.92675-3.745 1.43585-6.361 1.4375-0 1e-5 -0.01-2e-3 -0.02-2e-3a3.375 3.375 0 0 0-0.01 4e-3h-11.605zm11.648 20.01758c2.429-4e-3 4.69 0.63594 6.157 1.77539 1.469 1.14171 2.445 2.67578 2.445 5.83203 0 3.14823-0.976 4.66341-2.459 5.80859-1.483 1.14519-3.773 1.79437-6.197 1.81641h-11.594v-15.23047h11.625l0.02-2e-3z" color="#000000" style="-inkscape-stroke:none"/>
			<path id="path10438" d="m18834.119 435.875c-0.845-0.01344-1.693 0.03295-2.543 0.1543-4.015 0.57354-6.828 2.07242-8.601 3.52343-1.774 1.45103-2.659 3.10547-2.659 3.10547a3 3 0 0 0 1.342 4.02539 3 3 0 0 0 4.026-1.34179s0.115-0.34557 1.091-1.14453c0.322-0.26274 0.729-0.54735 1.225-0.82618v23.62891c0 1.65685 1.343 3 3 3s3-1.34315 3-3v-25.08984c2.436 0.10297 5.716 0.95761 9.154 1.96875 2.544 0.7481 5.173 1.57814 7.846 1.98828v21.13281c0 1.65685 1.343 3 3 3s3-1.34315 3-3v-21.12695c4.471-0.78814 7.4-3.06211 8.99-4.9336a3 3 0 0 0-0.344-4.22851 3 3 0 0 0-4.228 0.34375c-0.912 1.0736-2.553 2.50473-5.842 2.97461-2.47 0.35292-6.48-0.65821-10.73-1.90821-3.188-0.9375-6.51-2.00855-9.883-2.21289-0.281-0.01702-0.562-0.02872-0.844-0.0332z" color="#000000" style="-inkscape-stroke:none"/>
		</g>
		<g id="D" transform="translate(-146.24906)" stroke-linecap="round" stroke-linejoin="round">
			<path id="path85233" d="m18343 294.625a3.3753375 3.3753375 0 0 0-3.375 3.375v42a3.3753375 3.3753375 0 0 0 3.375 3.375h17a3.3753375 3.3753375 0 0 0 0.02 0s4.652-0.0538 9.009-3.33398c4.358-3.28019 8.346-9.82747 8.346-21.04102s-3.988-17.76083-8.346-21.04102c-4.357-3.28018-9.009-3.33398-9.009-3.33398a3.3753375 3.3753375 0 0 0-0.02 0zm3.375 6.75h13.605s2.348-0.0129 4.991 1.97656c2.642 1.98943 5.654 5.94051 5.654 15.64844 0 9.70792-3.012 13.659-5.654 15.64844-2.643 1.98943-4.991 1.97656-4.991 1.97656h-13.605z" color="#000000" style="-inkscape-stroke:none"/>
			<path id="path117134" d="m18331.999 242a3 3 0 0 0-3 3 3 3 0 0 0 3 3h48a3 3 0 0 0 3-3 3 3 0 0 0-3-3h-48zm0 12a3 3 0 0 0-3 3 3 3 0 0 0 3 3h48a3 3 0 0 0 3-3 3 3 0 0 0-3-3h-48zm0 12a3 3 0 0 0-3 3 3 3 0 0 0 3 3h48a3 3 0 0 0 3-3 3 3 0 0 0-3-3h-48z" color="#000000" style="-inkscape-stroke:none"/>
		</g>
		<g id="lbracket" transform="translate(-129.74999)" stroke-linecap="round" stroke-linejoin="round">
			<path id="path27593-4-77-5" d="m19871.75 43.080078c-1.962 0-3.597 0.03204-5.238 0.494141-1.641 0.462105-3.316 1.650051-4.198 3.246093-1.762 3.192086-1.539 6.828857-1.564 13.320313a3.0003 3.0003 0 0 0 0 0.0098c0 2.840277-0.772 4.3422-1.414 5.21289-0.642 0.870691-0.928 0.953125-0.928 0.953125a3.0003 3.0003 0 0 0 0 5.367188s0.286 0.08243 0.928 0.953125c0.642 0.87069 1.414 2.372613 1.414 5.21289a3.0003 3.0003 0 0 0 0 0.0098c0.03 6.491456-0.198 10.128227 1.564 13.320312 0.882 1.596043 2.557 2.783989 4.198 3.246094s3.276 0.494141 5.238 0.494141a3 3 0 0 0 3-3 3 3 0 0 0-3-3c-1.81 0-3.055-0.112212-3.613-0.269531-0.559-0.15732-0.401-0.06451-0.571-0.371094-0.338-0.612689-0.79-4.010255-0.816-10.429688 0-4.008386-1.228-6.931963-2.586-8.773437-0.03-0.03408-0.05-0.04272-0.08-0.07617 0.03-0.03345 0.05-0.04209 0.08-0.07617 1.358-1.841474 2.586-4.765051 2.586-8.773437 0.03-6.419433 0.478-9.816999 0.816-10.429688 0.17-0.306587 0.01-0.213774 0.571-0.371094 0.558-0.157319 1.803-0.269531 3.613-0.269531a3 3 0 0 0 3-3 3 3 0 0 0-3-3z" color="#000000" style="-inkscape-stroke:none"/>
			<path id="path118877" d="m19853.75 100a3.0003 3.0003 0 0 0-3 3v40a3.0003 3.0003 0 0 0 3 3h27a3 3 0 0 0 3-3 3 3 0 0 0-3-3h-24v-34h23a3 3 0 0 0 3-3 3 3 0 0 0-3-3z" color="#000000" style="-inkscape-stroke:none"/>
		</g>
		<g id="rbracket" transform="translate(-129.75043)" stroke-linecap="round" stroke-linejoin="round">
			<path id="path27593-4-77-5-0" d="m20056.25 43.080078a3 3 0 0 0-3 3 3 3 0 0 0 3 3c1.81 0 3.055 0.112212 3.613 0.269531 0.559 0.15732 0.401 0.06451 0.571 0.371094 0.338 0.612689 0.79 4.010255 0.816 10.429688 0 4.008386 1.228 6.931963 2.586 8.773437 0.03 0.03408 0.05 0.04272 0.08 0.07617-0.03 0.03345-0.05 0.04209-0.08 0.07617-1.358 1.841474-2.586 4.765051-2.586 8.773437-0.03 6.419433-0.478 9.816999-0.816 10.429688-0.17 0.306587-0.01 0.213774-0.571 0.371094-0.558 0.157319-1.803 0.269531-3.613 0.269531a3 3 0 0 0-3 3 3 3 0 0 0 3 3c1.962 0 3.597-0.03204 5.238-0.494141 1.641-0.462105 3.316-1.650051 4.198-3.246094 1.762-3.192085 1.539-6.828856 1.564-13.320312a3.0003 3.0003 0 0 0 0-0.0098c0-2.840277 0.772-4.3422 1.414-5.21289 0.642-0.870691 0.928-0.953125 0.928-0.953125a3.0003 3.0003 0 0 0 0-5.367188s-0.286-0.08243-0.928-0.953125c-0.642-0.87069-1.414-2.372613-1.414-5.21289a3.0003 3.0003 0 0 0 0-0.0098c-0.03-6.491456 0.198-10.128227-1.564-13.320313-0.882-1.596042-2.557-2.783988-4.198-3.246093s-3.276-0.494141-5.238-0.494141z" color="#000000" style="-inkscape-stroke:none"/>
			<path id="path118877-6" d="m20049.75 100a3 3 0 0 0-3 3 3 3 0 0 0 3 3h23v34h-24a3 3 0 0 0-3 3 3 3 0 0 0 3 3h27a3.0003 3.0003 0 0 0 3-3v-40a3.0003 3.0003 0 0 0-3-3z" color="#000000" style="-inkscape-stroke:none"/>
		</g>
		<g id="period" transform="translate(-147.24999)">
			<circle id="path125940-9" cx="19624.998" cy="506.00073" r="6"/>
			<path id="path123253-0" d="m19605.949 432.6875a2.5 2.5 0 0 0-3.262 1.36523 2.5 2.5 0 0 0 1.364 3.26172l33.361 13.68555-33.361 13.6875a2.5 2.5 0 0 0-1.364 3.26172 2.5 2.5 0 0 0 3.262 1.36523l39-16a2.50025 2.50025 0 0 0 0-4.62695z" color="#000000" stroke-linecap="round" stroke-linejoin="round" style="-inkscape-stroke:none"/>
		</g>
		<g id="semicolon" transform="translate(-146.24999)">
			<path id="path125940-9-2" d="m19721.998 302a6 6 0 0 0-6 6 6 6 0 0 0 6 6 6 6 0 0 0 6-6 6 6 0 0 0-6-6zm-1 19a5 5 0 0 0-5 5 5 5 0 0 0 5 5 5 5 0 0 1 2e-3 0c3 0-2.121 6.87891-2.121 6.87891l4e-3 0.0039a3 3 0 0 0-0.885 2.11719 3 3 0 0 0 3 3 3 3 0 0 0 2.117-0.88477l6e-3 0.00586c6.96-7.12253 6.88-20.86378-1.877-21.11523a5 5 0 0 0-0.246-0.00586z"/>
			<path id="path124872" d="m19721 248a3 3 0 0 0-3 3v11h-11a3 3 0 0 0-3 3 3 3 0 0 0 3 3h11v11a3 3 0 0 0 3 3 3 3 0 0 0 3-3v-11h11a3 3 0 0 0 3-3 3 3 0 0 0-3-3h-11v-11a3 3 0 0 0-3-3z" color="#000000" stroke-linecap="round" stroke-linejoin="round" style="-inkscape-stroke:none"/>
		</g>
		<g id="comma" transform="translate(-147.24973)">
			<path id="path125940" d="m19427.998 498a5 5 0 0 0-5 5 5 5 0 0 0 5 5 5 5 0 0 1 2e-3 0c3 0-2.121 6.87891-2.121 6.87891l4e-3 0.00586a3 3 0 0 0-0.885 2.11523 3 3 0 0 0 3 3 3 3 0 0 0 2.117-0.88477l6e-3 0.00782c6.954-7.11726 6.88-20.84401-1.858-21.11524a5 5 0 0 0-0.265-0.00781z"/>
			<path id="path123253" d="m19448.051 432.6875-39 16a2.50025 2.50025 0 0 0 0 4.62695l39 16a2.5 2.5 0 0 0 3.261-1.36523 2.5 2.5 0 0 0-1.363-3.26172l-33.361-13.6875 33.361-13.68555a2.5 2.5 0 0 0 1.363-3.26172 2.5 2.5 0 0 0-3.261-1.36523z" color="#000000" stroke-linecap="round" stroke-linejoin="round" style="-inkscape-stroke:none"/>
		</g>
		<g id="slash-question" transform="translate(-147.24999)" stroke-linecap="round" stroke-linejoin="round">
			<path id="path123853-1" d="m19820.5 423c-6.591 0-10.661 4.06136-12.352 7.75-1.69 3.68864-1.648 7.25-1.648 7.25a3 3 0 0 0 3 3 3 3 0 0 0 3-3s0.04-2.43865 1.102-4.75c1.059-2.31135 2.489-4.25 6.898-4.25 4.667 0 6 2.5 6 5 0 1.767-0.158 2.62366-0.707 3.58984-0.549 0.96619-1.71 2.22159-4.094 4.01172-2.962 2.22484-4.707 4.91688-5.484 7.625-0.777 2.70814-0.715 5.28704-0.715 7.77344a3 3 0 0 0 3 3 3 3 0 0 0 3-3c0-2.5136 0.03-4.52892 0.482-6.11914 0.457-1.59022 1.213-2.89876 3.319-4.48047 2.684-2.01642 4.523-3.76158 5.707-5.84375s1.492-4.32364 1.492-6.55664c0-5.49998-4.667-11-12-11zm-1.934 40a4.5 4.5 0 0 0-4.5 4.5 4.5 4.5 0 0 0 4.5 4.5 4.5 4.5 0 0 0 4.5-4.5 4.5 4.5 0 0 0-4.5-4.5z" color="#000000" style="-inkscape-stroke:none"/>
			<path id="path128441-0-3-6-9" d="m19836.5 478a3 3 0 0 0-2.121 0.87891l-39 39a3 3 0 0 0 0 4.24218 3 3 0 0 0 4.242 0l39-38.99804a3 3 0 0 0 0-4.24414 3 3 0 0 0-2.121-0.87891z" color="#000000" style="-inkscape-stroke:none"/>
		</g>
		<g id="backslash" transform="translate(-122.125)" stroke-linecap="round" stroke-linejoin="round">
			<path id="path128441-0" d="m20281.875 42.492187a3 3 0 0 0-3 3v45a3 3 0 0 0 3 3 3 3 0 0 0 3-3v-45a3 3 0 0 0-3-3z" color="#000000" style="-inkscape-stroke:none"/>
			<path id="path128441-0-3" d="m20262.375 101.49219a3 3 0 0 0-2.121 0.8789 3 3 0 0 0 0 4.24219l39 39a3 3 0 0 0 4.242 0 3 3 0 0 0 0-4.24414l-39-38.99805a3 3 0 0 0-2.121-0.8789z" color="#000000" style="-inkscape-stroke:none"/>
		</g>
		<g id="U" transform="translate(-130.00004)" stroke-linecap="round" stroke-linejoin="round">
			<path id="path82649-2" d="m19073.25 99.617187a3.375 3.375 0 0 0-3.375 3.375003v28.5c0 9.55016 8.726 16.875 18.875 16.875s18.875-7.32484 18.875-16.875v-28.5a3.375 3.375 0 0 0-3.375-3.375003 3.375 3.375 0 0 0-3.375 3.375003v28.5c0 5.3615-5.154 10.125-12.125 10.125s-12.125-4.7635-12.125-10.125v-28.5a3.375 3.375 0 0 0-3.375-3.375003z" color="#000000" style="-inkscape-stroke:none"/>
			<path id="path129493" d="m19063.25 45.992187a3 3 0 0 0-3 3 3 3 0 0 0 3 3h45v22a3 3 0 0 0 3 3 3 3 0 0 0 3-3v-25a3.0003 3.0003 0 0 0-3-3z" color="#000000" style="-inkscape-stroke:none"/>
		</g>
		<g id="I" transform="translate(-130.00035)" stroke-linecap="round" stroke-linejoin="round">
			<path id="path84948" d="m19282.252 99.617187a3.375 3.375 0 0 0-3.375 3.375003v42a3.375 3.375 0 0 0 3.375 3.375 3.375 3.375 0 0 0 3.375-3.375v-42a3.375 3.375 0 0 0-3.375-3.375003z" color="#000000" style="-inkscape-stroke:none"/>
			<path id="path130000" d="m19282.25 34.992188c-13.219 0-24 10.780727-24 24s10.781 24 24 24 24-10.780727 24-24-10.781-24-24-24zm0 6c2.429 0 4.74 0.478475 6.85 1.341796l-7.018 12.632813-6.955-12.519531c2.183-0.935532 4.59-1.455078 7.123-1.455078zm10.36 3.263671c4.626 3.250129 7.64 8.624508 7.64 14.736329 0 6.145598-3.046 11.546626-7.716 14.791015l-8.165-14.697265 8.241-14.830079zm-20.961 0.171875 8.144 14.658204-8.068 14.523437c-4.532-3.26144-7.475-8.578974-7.475-14.617187 0-6.004844 2.909-11.298422 7.399-14.564454zm10.433 18.777344 6.932 12.478516c-2.087 0.841406-4.368 1.308594-6.764 1.308594-2.501 0-4.879-0.505166-7.039-1.417969l6.871-12.369141z" color="#000000" stroke-miterlimit="5" style="-inkscape-stroke:none;paint-order:fill markers stroke"/>
		</g>
		<g id="colon" transform="translate(-146.24999)">
			<path id="path125940-9-2-3" d="m19916.998 302a6 6 0 0 0-6 6 6 6 0 0 0 6 6 6 6 0 0 0 6-6 6 6 0 0 0-6-6zm0 19a6 6 0 0 0-6 6 6 6 0 0 0 6 6 6 6 0 0 0 6-6 6 6 0 0 0-6-6z"/>
			<path id="path35601-5" d="m19909 248.875a3 3 0 0 0-1.5 0.40234 3 3 0 0 0-1.098 4.09766l4.403 7.625h-8.805a3 3 0 0 0-3 3 3 3 0 0 0 3 3h8.805l-4.403 7.625a3 3 0 0 0 1.098 4.09766 3 3 0 0 0 4.098-1.09766l4.402-7.625 4.402 7.625a3 3 0 0 0 4.098 1.09766 3 3 0 0 0 1.098-4.09766l-4.403-7.625h8.805a3 3 0 0 0 3-3 3 3 0 0 0-3-3h-8.805l4.403-7.625a3 3 0 0 0-1.098-4.09766 3 3 0 0 0-4.098 1.09766l-4.402 7.625-4.402-7.625a3 3 0 0 0-2.598-1.5z" color="#000000" stroke-linecap="round" stroke-linejoin="round" style="-inkscape-stroke:none"/>
		</g>
		<g id="slash-infinity" transform="translate(-114.24919)" stroke-linecap="round" stroke-linejoin="round">
			<path id="path128441-0-3-6" d="m20524 101.49219a3 3 0 0 0-2.121 0.8789l-39 38.99805a3 3 0 0 0 0 4.24414 3 3 0 0 0 4.242 0l39-39a3 3 0 0 0 0-4.24219 3 3 0 0 0-2.121-0.8789z" color="#000000" style="-inkscape-stroke:none"/>
			<path id="path28244-3" d="m20476.499 48.492188c-6.424 0-11.585 1.331768-15.304 4.134765-3.72 2.802998-5.696 7.149504-5.696 11.865235 0 5.22107 3.271 9.576212 7.58 12.460937s9.812 4.539063 15.42 4.539063c6.3 0 12.292-3.663977 17.006-7.06836 2.476-1.788167 4.547-3.5426 5.996-4.83789 1.449 1.29529 3.518 3.049723 5.994 4.83789 4.714 3.404383 10.706 7.06836 17.006 7.06836 5.608 0 11.111-1.654338 15.42-4.539063s7.58-7.239867 7.58-12.460937c0-4.715731-1.973-9.062237-5.693-11.865235-3.72-2.802997-8.883-4.134765-15.307-4.134765h-2e-3c-7.167 0-13.784 3.905073-18.777 7.583984-2.596 1.912441-4.733 3.799125-6.221 5.199219-1.488-1.400188-3.624-3.286284-6.221-5.199219-4.993-3.678911-11.612-7.583984-18.779-7.583984h-2e-3zm0 6c4.833 0 10.716 3.092987 15.223 6.414062 2.231 1.644402 4.097 3.276375 5.426 4.513672-1.303 1.149005-3.07 2.634919-5.155 4.140625-4.286 3.095605-9.794 5.931641-13.494 5.931641-4.392 0-8.889-1.388991-12.08-3.525391s-4.92-4.780235-4.92-7.474609c0-3.199713 1.027-5.354138 3.307-7.072266s6.117-2.927734 11.693-2.927734zm50 0c5.576 0 9.416 1.209606 11.696 2.927734s3.304 3.872553 3.304 7.072266c0 2.694374-1.729 5.338209-4.92 7.474609s-7.688 3.525391-12.08 3.525391c-3.7 0-9.208-2.836036-13.494-5.931641-2.085-1.505706-3.849-2.99162-5.152-4.140625 1.329-1.237297 3.194-2.86927 5.425-4.513672 4.507-3.321075 10.388-6.414062 15.221-6.414062z" color="#000000" style="-inkscape-stroke:none"/>
		</g>
		<g id="H" transform="translate(-146.25025)" stroke-linecap="round" stroke-linejoin="round">
			<path id="path86915" d="m18926 294.625a3.375 3.375 0 0 0-3.375 3.375v42a3.375 3.375 0 0 0 3.375 3.375 3.375 3.375 0 0 0 3.375-3.375v-17.625h25.25v17.625a3.375 3.375 0 0 0 3.375 3.375 3.375 3.375 0 0 0 3.375-3.375v-42a3.375 3.375 0 0 0-3.375-3.375 3.375 3.375 0 0 0-3.375 3.375v17.625h-25.25v-17.625a3.375 3.375 0 0 0-3.375-3.375z" color="#000000" style="-inkscape-stroke:none"/>
			<path id="path10426-7-7-8-7" d="m18897 247a2 2 0 0 0-2 2v20a2 2 0 0 0 2 2 2 2 0 0 0 2-2v-8h12v8c0 1.10457 0.896 2 2 2 1.105 0 2-0.89543 2-2v-20c0-1.10457-0.895-2-2-2-1.104 0-2 0.89543-2 2v8h-12v-8a2 2 0 0 0-2-2zm26 0a2.0002 2.0002 0 0 0-2 2v20a2.0002 2.0002 0 0 0 2 2h17a2 2 0 0 0 2-2 2 2 0 0 0-2-2h-15v-7h11c1.105 0 2-0.89543 2-2s-0.895-2-2-2h-11v-5h15a2 2 0 0 0 2-2 2 2 0 0 0-2-2h-17zm23 0a2 2 0 0 0-2 2v20a2.0002 2.0002 0 0 0 2 2h16a2 2 0 0 0 2-2 2 2 0 0 0-2-2h-14v-18a2 2 0 0 0-2-2zm23 0a2.0002 2.0002 0 0 0-2 2v11.38086 8.61914a2 2 0 0 0 2 2 2 2 0 0 0 2-2v-6.61914h9.315a2.0002 2.0002 0 0 0 0.185-0.00977s1.662-0.13705 3.293-1.19336c1.631-1.05629 3.286-3.31294 3.203-6.55273-0.08-3.1489-1.52-5.29734-3.002-6.375-1.481-1.07766-3.05-1.24023-3.05-1.24023a2.0002 2.0002 0 0 0-0.204-0.00977h-11.74zm2 4h9.559c0.02 2e-3 0.48 0.04691 1.082 0.48438 0.613 0.4462 1.303 1.1352 1.357 3.24218 0.05 2.01609-0.635 2.61179-1.379 3.09375-0.734 0.47561-1.45 0.55824-1.47 0.56055h-9.149v-7.38086z" color="#000000" style="-inkscape-stroke:none"/>
		</g>
		<g id="return" transform="translate(-138.125)">
			<path id="path79927-0-7" d="m20119.875 273.5c-1.105 1.1e-4 -2 0.89548-2 2v10 11c0 1.10457 0.895 2 2 2s2-0.89543 2-2v-9h7.156l3.992 9.75781c0.418 1.0232 1.587 1.51308 2.61 1.09375 1.023-0.41816 1.513-1.58671 1.094-2.60937l-3.559-8.69727c0.251-0.08239 0.506-0.17624 0.766-0.29101 1.851-0.81873 3.941-2.97247 3.941-6.25391 0-3.1516-1.656-5.29744-3.299-6.18555-1.643-0.8881-3.262-0.81445-3.262-0.81445h-11.439zm23 0c-1.105 1.1e-4 -2 0.89548-2 2v21c0 1.10452 0.895 1.99989 2 2h15c1.105 0 2-0.89543 2-2s-0.895-2-2-2h-13v-7h9c1.105 0 2-0.89543 2-2s-0.895-2-2-2h-9v-6h13c1.105 0 2-0.89543 2-2s-0.895-2-2-2h-15zm22 0a2 2 0 0 0-2 2 2 2 0 0 0 2 2h6.5v19c0 1.10457 0.895 2 2 2s2-0.89543 2-2v-19h6.5a2 2 0 0 0 2-2 2 2 0 0 0-2-2h-17zm24 0a2 2 0 0 0-2 2v14.25c0 4.969 4.529 8.75 9.75 8.75s9.75-3.78064 9.75-8.75v-14.25a2 2 0 0 0-2-2 2 2 0 0 0-2 2v14.25c0 2.48647-2.413 4.75-5.75 4.75-3.339 0-5.75-2.26317-5.75-4.75v-14.25a2 2 0 0 0-2-2zm22.5 0a2.0002 2.0002 0 0 0-2 2v10 11a2 2 0 0 0 2 2 2 2 0 0 0 2-2v-9h7.156l3.992 9.75781a2 2 0 0 0 2.61 1.09375 2 2 0 0 0 1.094-2.60937l-3.559-8.69727c0.251-0.08239 0.506-0.17624 0.766-0.29101 1.851-0.81873 3.941-2.97247 3.941-6.25391 0-3.1516-1.656-5.29744-3.299-6.18555-1.643-0.8881-3.262-0.81445-3.262-0.81445h-11.439zm37 0a2 2 0 0 0-2 2v14.39453l-10.336-15.50391a2.0002 2.0002 0 0 0-3.664 1.10938v21a2 2 0 0 0 2 2 2 2 0 0 0 2-2v-14.39453l10.336 15.50391a2.0002 2.0002 0 0 0 3.664-1.10938v-21a2 2 0 0 0-2-2zm-126.5 4h9.5c0.02 3e-4 0.041 3e-4 0.061 0 0 0 0.631 6e-3 1.238 0.33398 0.607 0.32823 1.199 0.68294 1.199 2.66602 0 1.85325-0.66 2.1981-1.559 2.5957s-1.89 0.4043-1.89 0.4043c-0.02-2.1e-4 -0.031-2.1e-4 -0.051 0h-8.5l2e-3 -6zm91.5 0h9.5a2.0002 2.0002 0 0 0 0.061 0s0.631 6e-3 1.238 0.33398c0.607 0.32823 1.199 0.68294 1.199 2.66602 0 1.85325-0.66 2.1981-1.559 2.5957s-1.89 0.4043-1.89 0.4043a2.0002 2.0002 0 0 0-0.051 0h-8.5l2e-3 -6z" color="#000000" stroke-linecap="round" stroke-linejoin="round" style="-inkscape-stroke:none"/>
		</g>
		<g id="line" transform="translate(-122.125)">
			<path id="path79927-0-4" d="m20473.646 273.49609c-1.019-3.1e-4 -2.02 0.76757-2.021 2.00391v21c0 1.10457 0.895 2 2 2s2-0.89543 2-2v-14.39453l10.336 15.50391c1.098 1.64544 3.663 0.86876 3.664-1.10938v-21c0-1.10457-0.895-2-2-2s-2 0.89543-2 2v14.39453l-10.336-15.50391c-0.412-0.61704-1.031-0.89434-1.643-0.89453zm-29.521 0.00391c-1.105 0-2 0.89543-2 2v21c0 1.10452 0.895 1.99989 2 2h15.5c1.105 0 2-0.89543 2-2s-0.895-2-2-2h-13.5v-19c0-1.10457-0.895-2-2-2zm22.5 0c-1.105 0-2 0.89543-2 2v21c0 1.10457 0.895 2 2 2s2-0.89543 2-2v-21c0-1.10457-0.895-2-2-2zm28 0a2.0002 2.0002 0 0 0-2 2v21a2.0002 2.0002 0 0 0 2 2h15a2 2 0 0 0 2-2 2 2 0 0 0-2-2h-13v-7h9c1.105 0 2-0.89543 2-2s-0.895-2-2-2h-9v-6h13a2 2 0 0 0 2-2 2 2 0 0 0-2-2h-15z" color="#000000" stroke-linecap="round" stroke-linejoin="round" style="-inkscape-stroke:none"/>
		</g>
		<g id="back-next" transform="translate(-114.75 -.5)" stroke-linecap="round" stroke-linejoin="round">
			<path id="path85076-9-8" d="m20706.996 260c-3.043 0.00209-5.748 1.61954-7.586 3.99805-1.839 2.38004-2.908 5.54673-2.908 9.00195s1.069 6.62191 2.908 9.00195c1.839 2.38005 4.546 3.99805 7.592 3.99805 3.273-0.0104 6.267-1.90877 8.174-4.85938a2 2 0 0 0-0.594-2.76367 2 2 0 0 0-2.766 0.59375c-1.314 2.03362-3.078 3.02305-4.824 3.0293-1.646-1e-3 -3.187-0.84539-4.424-2.44531-1.237-1.60117-2.072-3.93479-2.072-6.55469s0.835-4.95352 2.072-6.55469c1.238-1.60116 2.78-2.44531 4.428-2.44531 1.744 3.9e-4 3.507 0.98234 4.824 3.00586a2 2 0 0 0 2.768 0.58398 2 2 0 0 0 0.584-2.76757c-1.912-2.93708-4.904-4.81928-8.17-4.82227h-6e-3zm-51.476 0.5a2.0002 2.0002 0 0 0-2 2v10.00977 10.99023a2.0002 2.0002 0 0 0 2 2h7.5a2.0002 2.0002 0 0 0 0.019 0c1.81-0.0165 3.731-0.45176 5.318-1.67773 1.588-1.22599 2.664-3.31744 2.664-5.82227 0-2.2681-0.945-4.11464-2.292-5.375 1.33-1.16207 2.292-2.91907 2.292-5.125 0-2.5-1.128-4.57271-2.765-5.66406-1.637-1.09136-3.513-1.33594-5.235-1.33594h-7.501zm28.849 0a2.0002 2.0002 0 0 0-1.857 1.26172l-8.35 21a2 2 0 0 0 1.119 2.59766 2 2 0 0 0 2.598-1.1211l1.09-2.73828h10.804l1.088 2.73828a2 2 0 0 0 2.598 1.1211 2 2 0 0 0 1.119-2.59766l-8.349-21a2.0002 2.0002 0 0 0-1.86-1.26172zm38.096 0a2 2 0 0 0-2 2v21a2 2 0 0 0 2 2 2 2 0 0 0 2-2v-4.6582l3.17-3.06641 7.254 8.98047a2 2 0 0 0 2.812 0.30078 2 2 0 0 0 0.299-2.8125l-7.48-9.26172 9.345-9.04492a2 2 0 0 0 0.051-2.82812 2 2 0 0 0-1.402-0.60938h-2e-3a2 2 0 0 0-1.422 0.5625l-12.625 12.2168v-10.7793a2 2 0 0 0-2-2zm-64.945 4h5.5c1.277 0 2.402 0.25542 3.015 0.66406 0.613 0.40865 0.985 0.83594 0.985 2.33594s-0.373 1.93108-0.987 2.3418c-0.613 0.41021-1.736 0.66733-3.01 0.66797h-5.492l-0.011-6.00977zm26.851 3.41211 3.813 9.58789h-7.625l3.812-9.58789zm-26.851 6.59766h5.5c1.163-2e-3 2.226 0.30632 2.888 0.82031 0.663 0.51472 1.104 1.16992 1.104 2.66992 0 1.49517-0.44 2.13899-1.11 2.65625s-1.749 0.83319-2.91 0.84375h-5.48l8e-3 -6.99023z" color="#000000" style="-inkscape-stroke:none"/>
			<path id="path79927-0-0" d="m20655.543 293.49609c-1.02-3.1e-4 -2.023 0.76757-2.023 2.00391v21c0 1.10457 0.895 2 2 2 1.104 0 2-0.89543 2-2v-14.39453l10.335 15.50391c1.098 1.64786 3.665 0.87047 3.665-1.10938v-21c0-1.10457-0.896-2-2-2-1.105 0-2 0.89543-2 2v14.39453l-10.336-15.50391c-0.412-0.61704-1.029-0.89434-1.641-0.89453zm20.977 0.00391c-1.105 1.1e-4 -2 0.89548-2 2v21c0 1.10452 0.895 1.99989 2 2h15c1.104 0 2-0.89543 2-2s-0.896-2-2-2h-13v-7h9c1.104 0 2-0.89543 2-2s-0.896-2-2-2h-9v-6h13c1.104 0 2-0.89543 2-2s-0.896-2-2-2h-15zm37.886 0c-0.065 0.00234-0.131 0.00868-0.197 0.01758-0.526 0.0717-1.001 0.3492-1.322 0.77148l-5.864 7.71485-5.685-7.69336c-0.657-0.88766-1.909-1.07477-2.797-0.41797-0.888 0.6564-1.076 1.90854-0.42 2.79687l6.381 8.63282-7.574 9.96679c-0.668 0.87968-0.497 2.13462 0.383 2.80274 0.879 0.66831 2.133 0.49782 2.802-0.38086l6.867-9.03516 6.663 9.01367c0.656 0.88766 1.908 1.07562 2.796 0.41993 0.889-0.65713 1.076-1.91068 0.418-2.79883l-7.355-9.95313 6.57-8.64648c0.668-0.87968 0.497-2.13462-0.383-2.80274-0.369-0.28114-0.823-0.42461-1.283-0.4082zm7.074 0c-1.105 0-2 0.89543-2 2s0.895 2 2 2h6.5v19c0 1.10457 0.895 2 2 2s2-0.89543 2-2v-19h6.5c1.105 0 2-0.89543 2-2s-0.895-2-2-2h-17z" color="#000000" style="-inkscape-stroke:none"/>
		</g>
		<g id="shift" transform="translate(-114.75)">
			<path id="path81451-3-7" d="m20025.768 468c-2.626 0-5.115 0.41177-7.163 1.58789-2.047 1.17612-3.575 3.39376-3.582 6.04883v0.0039c0 2.7043 1.68 4.79479 3.584 5.83008 1.905 1.0353 4.031 1.36863 5.866 1.52149 1.395 0.1162 3.412 0.64343 4.857 1.42383 1.445 0.78038 2.053 1.58772 2.053 2.2246 0 0.80362-0.46 1.47421-1.793 2.18165-1.333 0.70742-3.392 1.17773-5.516 1.17773-4.009 0-7.242-2.40625-7.242-2.40625-0.876-0.67339-2.132-0.50897-2.805 0.36719-0.673 0.87608-0.509 2.13188 0.368 2.80468 0 0 4.101 3.23438 9.679 3.23438 2.673 0 5.269-0.51862 7.391-1.64453s3.918-3.1338 3.918-5.71485c0-2.74764-2.072-4.62071-4.153-5.74414-2.08-1.12342-4.435-1.72287-6.425-1.88867-1.551-0.12923-3.231-0.47641-4.287-1.05078-1.057-0.574-1.494-1.02336-1.495-2.31445 0-1.33889 0.453-1.94164 1.575-2.58594 1.123-0.64506 3.001-1.05664 5.17-1.05664 2.005 0 3.284 0.56533 4.097 1.08984 0.813 0.52452 1.031 0.87696 1.031 0.87696 0.634 0.90675 1.882 1.12727 2.788 0.49218 0.904-0.6339 1.123-1.8807 0.49-2.78515 0 0-0.768-1.05764-2.141-1.94336s-3.476-1.73047-6.265-1.73047zm13.769 0.5c-1.104 0-2 0.89543-2 2v21c0 1.10457 0.896 2 2 2 1.105 0 2-0.89543 2-2v-8.5h12v8.5c0 1.10457 0.896 2 2 2 1.105 0 2-0.89543 2-2v-21c0-1.10457-0.895-2-2-2-1.104 0-2 0.89543-2 2v8.5h-12v-8.5c0-1.10457-0.895-2-2-2zm23 0c-1.104 0-2 0.89543-2 2v21c0 1.10457 0.896 2 2 2 1.105 0 2-0.89543 2-2v-21c0-1.10457-0.895-2-2-2zm7 0c-1.104 1.1e-4 -2 0.89548-2 2v21c0 1.10457 0.896 2 2 2 1.105 0 2-0.89543 2-2v-9.5h10.5c1.105 0 2-0.89543 2-2s-0.895-2-2-2h-10.5v-5.5h13c1.105 0 2-0.89543 2-2s-0.895-2-2-2h-15zm22 0a2 2 0 0 0-2 2 2 2 0 0 0 2 2h6.5v19c0 1.10457 0.895 2 2 2s2-0.89543 2-2v-19h6.5a2 2 0 0 0 2-2 2 2 0 0 0-2-2h-17z" color="#000000" stroke-linecap="round" stroke-linejoin="round" style="-inkscape-stroke:none"/>
		</g>
		<g id="top" transform="translate(-49.7495)">
			<path id="path81451-3-66" d="m20354.75 468c-3.047 0-5.755 1.61797-7.594 3.99805-1.839 2.38006-2.906 5.54677-2.906 9.00195s1.067 6.62189 2.906 9.00195c1.839 2.38008 4.547 3.99805 7.594 3.99805 3.046 0 5.754-1.61797 7.593-3.99805 1.839-2.38006 2.907-5.54677 2.907-9.00195s-1.068-6.62189-2.907-9.00195c-1.839-2.38008-4.547-3.99805-7.593-3.99805zm-29.5 0.5a2 2 0 0 0-2 2 2 2 0 0 0 2 2h6.5v19c0 1.10457 0.895 2 2 2 1.104 0 2-0.89543 2-2v-19h6.5a2 2 0 0 0 2-2 2 2 0 0 0-2-2h-17zm44.998 0a2.0002 2.0002 0 0 0-2 2v10 11a2 2 0 0 0 2 2 2 2 0 0 0 2-2v-9h8.451s1.758 0.0726 3.609-0.74609c1.851-0.81873 3.94-2.97247 3.94-6.25391 0-3.1516-1.656-5.29744-3.299-6.18555-1.643-0.8881-3.26-0.81445-3.26-0.81445h-11.441zm-15.498 3.5c1.647 0 3.189 0.84418 4.427 2.44531 1.237 1.60114 2.073 3.93474 2.073 6.55469s-0.836 4.95355-2.073 6.55469c-1.238 1.60113-2.78 2.44531-4.427 2.44531-1.648 0-3.19-0.84418-4.428-2.44531-1.237-1.60114-2.072-3.93474-2.072-6.55469s0.835-4.95355 2.072-6.55469c1.238-1.60113 2.78-2.44531 4.428-2.44531zm17.498 0.5h9.5a2.0002 2.0002 0 0 0 0.06 0s0.633 6e-3 1.24 0.33398c0.607 0.32823 1.2 0.68294 1.2 2.66602 0 1.85325-0.66 2.1981-1.559 2.5957-0.898 0.3976-1.891 0.4043-1.891 0.4043a2.0002 2.0002 0 0 0-0.05 0h-8.5v-6z" color="#000000" stroke-linecap="round" stroke-linejoin="round" style="-inkscape-stroke:none"/>
		</g>
		<g id="meta" transform="translate(-48.75 .5)">
			<path id="path79927-0-8-4" d="m17111.15 663c-1.104 1.1e-4 -1.999 0.89548-2 2v21c0 1.10457 0.896 2 2 2 1.105 0 2-0.89543 2-2v-13.11523l5.143 12.85742c0.67 1.67766 3.045 1.67766 3.715 0l5.142-12.85742v13.11523c0 1.10457 0.896 2 2 2 1.105 0 2-0.89543 2-2v-21c0-1.10452-0.895-1.99989-2-2h-1c-0.818 1.3e-4 -1.553 0.49828-1.857 1.25781l-6.143 15.35547-6.142-15.35547c-0.304-0.75986-1.039-1.25809-1.858-1.25781h-1zm25 0c-1.104 1.1e-4 -1.999 0.89548-2 2v21c1e-3 1.10452 0.896 1.99989 2 2h15c1.105 0 2-0.89543 2-2s-0.895-2-2-2h-13v-7h9c1.105 0 2-0.89543 2-2s-0.895-2-2-2h-9v-6h13c1.105 0 2-0.89543 2-2s-0.895-2-2-2h-15zm22 0a2 2 0 0 0-2 2 2 2 0 0 0 2 2h6.5v19c0 1.10457 0.895 2 2 2s2-0.89543 2-2v-19h6.5a2 2 0 0 0 2-2 2 2 0 0 0-2-2h-17zm29.35 0a2.0002 2.0002 0 0 0-1.859 1.26172l-8.35 21a2 2 0 0 0 1.119 2.59766 2 2 0 0 0 2.598-1.1211l1.09-2.73828h10.804l1.09 2.73828a2 2 0 0 0 2.598 1.1211 2 2 0 0 0 1.119-2.59766l-8.35-21a2.0002 2.0002 0 0 0-1.859-1.26172zm0 7.41406 3.812 9.58594h-7.624l3.812-9.58594z" color="#000000" stroke-linecap="round" stroke-linejoin="round" style="-inkscape-stroke:none"/>
		</g>
		<g id="ctrl" transform="translate(-97.5 .5)">
			<path id="path81447-0-6-9" d="m17429.994 662.5c-3.043 0.00209-5.75 1.61954-7.588 3.99805-1.839 2.38004-2.906 5.54673-2.906 9.00195s1.067 6.62191 2.906 9.00195c1.839 2.38005 4.548 3.99805 7.594 3.99805 3.273-0.0104 6.267-1.90877 8.174-4.85938a2 2 0 0 0-0.594-2.76367 2 2 0 0 0-2.766 0.59375c-1.314 2.03362-3.077 3.02305-4.824 3.0293-1.646-1e-3 -3.187-0.84539-4.424-2.44531-1.237-1.60117-2.072-3.93479-2.072-6.55469s0.835-4.95352 2.072-6.55469c1.238-1.60116 2.78-2.44531 4.428-2.44531 1.744 3.9e-4 3.507 0.98234 4.824 3.00586a2 2 0 0 0 2.768 0.58398 2 2 0 0 0 0.584-2.76757c-1.912-2.93708-4.904-4.81928-8.17-4.82227h-6e-3zm10.506 0.5a2 2 0 0 0-2 2 2 2 0 0 0 2 2h6.5v19c0 1.10457 0.895 2 2 2s2-0.89543 2-2v-19h6.5a2 2 0 0 0 2-2 2 2 0 0 0-2-2h-17zm24 0a2.0002 2.0002 0 0 0-2 2v10 11a2 2 0 0 0 2 2 2 2 0 0 0 2-2v-9h7.156l3.992 9.75781a2 2 0 0 0 2.61 1.09375 2 2 0 0 0 1.094-2.60937l-3.559-8.69727c0.251-0.08239 0.506-0.17624 0.766-0.29101 1.851-0.81873 3.941-2.97247 3.941-6.25391 0-3.1516-1.656-5.29744-3.299-6.18555-1.643-0.8881-3.262-0.81445-3.262-0.81445h-11.439zm23 0a2 2 0 0 0-2 2v21a2.0002 2.0002 0 0 0 2 2h15.5a2 2 0 0 0 2-2 2 2 0 0 0-2-2h-13.5v-19a2 2 0 0 0-2-2zm-21 4h9.5a2.0002 2.0002 0 0 0 0.061 0s0.631 6e-3 1.238 0.33398c0.607 0.32823 1.199 0.68294 1.199 2.66602 0 1.85325-0.66 2.1981-1.559 2.5957s-1.89 0.4043-1.89 0.4043a2.0002 2.0002 0 0 0-0.051 0h-8.5l2e-3 -6z" color="#000000" stroke-linecap="round" stroke-linejoin="round" style="-inkscape-stroke:none"/>
		</g>
		<g id="lshift" transform="translate(-105.625,2e-5)">
			<path id="path81451-3-7-5" d="m17709.143 467.99998c-2.626 0-5.115 0.41177-7.163 1.58789-2.047 1.17612-3.575 3.39376-3.582 6.04883a2.0002 2.0002 0 0 0 0 0.0039c0 2.7043 1.68 4.79479 3.584 5.83008 1.905 1.0353 4.031 1.36863 5.866 1.52149a2.0002 2.0002 0 0 0 0 0.00195c1.395 0.1162 3.412 0.64148 4.857 1.42188 1.445 0.78037 2.053 1.58773 2.053 2.2246 0 0.80362-0.46 1.47421-1.793 2.18165-1.333 0.70741-3.392 1.17773-5.516 1.17773-4.009 0-7.242-2.40625-7.242-2.40625a2 2 0 0 0-2.805 0.36719 2 2 0 0 0 0.368 2.80468s4.101 3.23438 9.679 3.23438c2.673 0 5.269-0.51667 7.391-1.64258s3.918-3.13575 3.918-5.7168c0-2.74763-2.072-4.62071-4.153-5.74414-2.08-1.12341-4.435-1.72287-6.425-1.88867-1.551-0.12923-3.231-0.47641-4.287-1.05078-1.057-0.574-1.494-1.02336-1.495-2.31445 0-1.33889 0.453-1.94164 1.575-2.58594 1.123-0.64506 3.001-1.05664 5.17-1.05664 2.005 0 3.284 0.56533 4.097 1.08984 0.813 0.52452 1.031 0.87696 1.031 0.87696a2 2 0 0 0 2.788 0.49218 2 2 0 0 0 0.49-2.78515s-0.768-1.05764-2.141-1.94336-3.476-1.73047-6.265-1.73047zm13.769 0.5a2 2 0 0 0-2 2v21a2 2 0 0 0 2 2 2 2 0 0 0 2-2v-8.5h12v8.5a2 2 0 0 0 2 2 2 2 0 0 0 2-2v-21a2 2 0 0 0-2-2 2 2 0 0 0-2 2v8.5h-12v-8.5a2 2 0 0 0-2-2zm23 0a2 2 0 0 0-2 2v21a2 2 0 0 0 2 2 2 2 0 0 0 2-2v-21a2 2 0 0 0-2-2zm7 0a2.0002 2.0002 0 0 0-2 2v21a2 2 0 0 0 2 2 2 2 0 0 0 2-2v-9.5h10.5c1.105 0 2-0.89543 2-2s-0.895-2-2-2h-10.5v-5.5h13a2 2 0 0 0 2-2 2 2 0 0 0-2-2h-15zm22 0a2 2 0 0 0-2 2 2 2 0 0 0 2 2h6.5v19c0 1.10457 0.895 2 2 2s2-0.89543 2-2v-19h6.5a2 2 0 0 0 2-2 2 2 0 0 0-2-2h-17z" color="#000000" stroke-linecap="round" stroke-linejoin="round" style="-inkscape-stroke:none"/>
		</g>
		<g id="g296604" transform="translate(48.7505)">
			<path id="path81451-3-66-9" d="m17298.751 468c-3.047 0-5.754 1.61797-7.593 3.99805-1.839 2.38006-2.907 5.54677-2.907 9.00195s1.068 6.62189 2.907 9.00195c1.839 2.38008 4.546 3.99805 7.593 3.99805s5.755-1.61797 7.594-3.99805c1.839-2.38006 2.906-5.54677 2.906-9.00195s-1.067-6.62189-2.906-9.00195c-1.839-2.38008-4.547-3.99805-7.594-3.99805zm-29.501 0.5a2 2 0 0 0-2 2 2 2 0 0 0 2 2h6.5v19c0 1.10457 0.895 2 2 2 1.103 0 2-0.89543 2-2v-19h6.5a2 2 0 0 0 2-2 2 2 0 0 0-2-2h-17zm44.998 0a2.0002 2.0002 0 0 0-2 2v10 11a2 2 0 0 0 2 2 2 2 0 0 0 2-2v-9h8.451s1.758 0.0726 3.609-0.74609c1.851-0.81873 3.94-2.97247 3.94-6.25391 0-3.1516-1.656-5.29744-3.299-6.18555-1.643-0.8881-3.26-0.81445-3.26-0.81445h-11.441zm-15.497 3.5c1.648 0 3.19 0.84418 4.428 2.44531 1.237 1.60114 2.072 3.93474 2.072 6.55469s-0.835 4.95355-2.072 6.55469c-1.238 1.60113-2.78 2.44531-4.428 2.44531s-3.19-0.84418-4.427-2.44531c-1.237-1.60114-2.073-3.93474-2.073-6.55469s0.836-4.95355 2.073-6.55469c1.237-1.60113 2.779-2.44531 4.427-2.44531zm17.497 0.5h9.5a2.0002 2.0002 0 0 0 0.06 0s0.633 6e-3 1.24 0.33398c0.607 0.32823 1.2 0.68294 1.2 2.66602 0 1.85325-0.66 2.1981-1.559 2.5957-0.898 0.3976-1.891 0.4043-1.891 0.4043a2.0002 2.0002 0 0 0-0.05 0h-8.5v-6z" color="#000000" stroke-linecap="round" stroke-linejoin="round" style="-inkscape-stroke:none"/>
		</g>
		<g id="shiftlock" transform="translate(-65.0005)" stroke-linecap="round" stroke-linejoin="round">
			<path id="path81451-3-7-5-3" d="m17165.231 452.5c-2.625 0-5.114 0.41177-7.162 1.58789-2.047 1.17612-3.575 3.39376-3.582 6.04883v0.0039c0 2.7043 1.679 4.79479 3.584 5.83008 1.905 1.0353 4.031 1.36863 5.865 1.52149 1.396 0.1162 3.414 0.64343 4.859 1.42383 1.445 0.78038 2.053 1.58772 2.053 2.2246 0 0.80362-0.46 1.47421-1.793 2.18165-1.333 0.70742-3.391 1.17773-5.515 1.17773-4.009 0-7.243-2.40625-7.243-2.40625-0.876-0.67339-2.131-0.50897-2.804 0.36719-0.674 0.87529-0.51 2.13097 0.365 2.80468 0 0 4.104 3.23438 9.682 3.23438 2.673 0 5.268-0.51862 7.39-1.64453 2.121-1.12591 3.918-3.1338 3.918-5.71485 0-2.74764-2.071-4.62071-4.152-5.74414-2.08-1.12342-4.436-1.72287-6.426-1.88867-1.551-0.12923-3.232-0.47641-4.289-1.05078-1.056-0.574-1.493-1.02336-1.494-2.31445 0-1.33889 0.452-1.94164 1.574-2.58594 1.123-0.64506 3.002-1.05664 5.17-1.05664 2.006 0 3.287 0.56533 4.1 1.08984 0.813 0.52452 1.031 0.87696 1.031 0.87696 0.633 0.90487 1.878 1.12521 2.783 0.49218 0.905-0.63295 1.127-1.87992 0.494-2.78515 0 0-0.767-1.05764-2.14-1.94336s-3.478-1.73047-6.268-1.73047zm13.771 0.5c-1.105 0-2 0.89543-2 2v21c0 1.10457 0.895 2 2 2s2-0.89543 2-2v-8.5h12v8.5c0 1.10457 0.895 2 2 2s2-0.89543 2-2v-21c0-1.10457-0.895-2-2-2s-2 0.89543-2 2v8.5h-12v-8.5c0-1.10457-0.895-2-2-2zm23 0c-1.105 0-2 0.89543-2 2v21c0 1.10457 0.895 2 2 2s2-0.89543 2-2v-21c0-1.10457-0.895-2-2-2zm7 0a2.0002 2.0002 0 0 0-2 2v21a2 2 0 0 0 2 2 2 2 0 0 0 2-2v-9.5h10.5c1.105 0 2-0.89543 2-2s-0.895-2-2-2h-10.5v-5.5h13a2 2 0 0 0 2-2 2 2 0 0 0-2-2h-15zm22 0a2 2 0 0 0-2 2 2 2 0 0 0 2 2h6.5v19c0 1.10457 0.895 2 2 2s2-0.89543 2-2v-19h6.5a2 2 0 0 0 2-2 2 2 0 0 0-2-2h-17z" color="#000000" style="-inkscape-stroke:none"/>
			<path id="path84950-0-6" d="m17187.002 485.5c-3.047 0-5.754 1.61797-7.593 3.99805-1.839 2.38006-2.907 5.54677-2.907 9.00195s1.068 6.61992 2.907 9 4.546 4 7.593 4 5.755-1.61992 7.594-4 2.906-5.54482 2.906-9-1.067-6.62189-2.906-9.00195c-1.839-2.38008-4.547-3.99805-7.594-3.99805zm22.979 0c-3.044 0.00208-5.748 1.61959-7.586 3.99805-1.84 2.37998-2.908 5.54662-2.908 9.00195s1.068 6.62197 2.908 9.00195c1.839 2.37999 4.546 3.99805 7.592 3.99805 3.272-0.0104 6.266-1.90725 8.174-4.85742a2 2 0 0 0-0.594-2.76563 2 2 0 0 0-2.766 0.5918c-1.316 2.03405-3.08 3.025-4.826 3.03125-1.645-1e-3 -3.186-0.84532-4.422-2.44531-1.238-1.60123-2.072-3.9349-2.072-6.55469s0.834-4.95346 2.072-6.55469c1.237-1.60122 2.781-2.44531 4.428-2.44531 1.746 3.9e-4 3.505 0.98128 4.824 3.00586a2 2 0 0 0 2.768 0.58398 2 2 0 0 0 0.584-2.76757c-1.912-2.93602-4.903-4.81928-8.17-4.82227h-6e-3zm-49.783 0.5a2 2 0 0 0-2 2v21a2.0002 2.0002 0 0 0 2 2h15.5a2 2 0 0 0 2-2 2 2 0 0 0-2-2h-13.5v-19a2 2 0 0 0-2-2zm63.289 0a2 2 0 0 0-2 2v21a2 2 0 0 0 2 2 2 2 0 0 0 2-2v-4.6543l3.17-3.06836 7.256 8.97852a2 2 0 0 0 2.812 0.30078 2 2 0 0 0 0.299-2.81445l-7.481-9.25781 9.346-9.04688a2 2 0 0 0 0.041-2.82812 2 2 0 0 0-1.4-0.60938h-4e-3a2 2 0 0 0-1.416 0.5625l-12.623 12.21875v-10.78125a2 2 0 0 0-2-2zm-36.485 3.5c1.648 0 3.19 0.84418 4.428 2.44531 1.237 1.60114 2.072 3.93474 2.072 6.55469s-0.835 4.95355-2.072 6.55469c-1.238 1.60113-2.78 2.44531-4.428 2.44531s-3.19-0.84418-4.427-2.44531c-1.237-1.60114-2.073-3.93474-2.073-6.55469s0.836-4.95355 2.073-6.55469c1.237-1.60113 2.779-2.44531 4.427-2.44531z" color="#000000" stroke-miterlimit="9" style="-inkscape-stroke:none;paint-order:fill markers stroke"/>
		</g>
		<g id="rubout" transform="translate(-105.375)">
			<path id="path81447-0-2" d="m17699.875 273c-3.047 0-5.755 1.61797-7.594 3.99805-1.839 2.38006-2.906 5.54677-2.906 9.00195s1.067 6.61992 2.906 9 4.547 4 7.594 4 5.755-1.61992 7.594-4 2.906-5.54482 2.906-9-1.067-6.62189-2.906-9.00195c-1.839-2.38008-4.547-3.99805-7.594-3.99805zm-92 0.5a2.0002 2.0002 0 0 0-2 2v10 11a2 2 0 0 0 2 2 2 2 0 0 0 2-2v-9h7.156l3.992 9.75781a2 2 0 0 0 2.61 1.09375 2 2 0 0 0 1.094-2.60937l-3.559-8.69727c0.251-0.08239 0.506-0.17624 0.766-0.29101 1.851-0.81873 3.941-2.97247 3.941-6.25391 0-3.1516-1.656-5.29744-3.299-6.18555-1.643-0.8881-3.262-0.81445-3.262-0.81445h-11.439zm23 0a2 2 0 0 0-2 2v14.25c0 4.969 4.529 8.75 9.75 8.75s9.75-3.781 9.75-8.75v-14.25a2 2 0 0 0-2-2 2 2 0 0 0-2 2v14.25c0 2.48683-2.411 4.75-5.75 4.75s-5.75-2.26317-5.75-4.75v-14.25a2 2 0 0 0-2-2zm22.5 0a2.0002 2.0002 0 0 0-2 2v10.00977 10.99023a2.0002 2.0002 0 0 0 2 2h7.5a2.0002 2.0002 0 0 0 0.02 0c1.809-0.0165 3.73-0.45176 5.318-1.67773 1.587-1.22599 2.664-3.31744 2.664-5.82227 0-2.26872-0.945-4.11662-2.293-5.37695 1.329-1.16219 2.293-2.91812 2.293-5.12305 0-2.5-1.129-4.57271-2.766-5.66406-1.637-1.09136-3.512-1.33594-5.234-1.33594h-7.502zm62 0a2 2 0 0 0-2 2v14.25c0 4.96899 4.529 8.75 9.75 8.75s9.75-3.78101 9.75-8.75v-14.25a2 2 0 0 0-2-2 2 2 0 0 0-2 2v14.25c0 2.48682-2.411 4.75-5.75 4.75s-5.75-2.26318-5.75-4.75v-14.25a2 2 0 0 0-2-2zm22.5 0a2 2 0 0 0-2 2 2 2 0 0 0 2 2h6.5v19c0 1.10457 0.895 2 2 2s2-0.89543 2-2v-19h6.5a2 2 0 0 0 2-2 2 2 0 0 0-2-2h-17zm-38 3.5c1.648 0 3.19 0.84418 4.428 2.44531 1.237 1.60114 2.072 3.93474 2.072 6.55469s-0.835 4.95355-2.072 6.55469c-1.238 1.60113-2.78 2.44531-4.428 2.44531s-3.19-0.84418-4.428-2.44531c-1.237-1.60114-2.072-3.93474-2.072-6.55469s0.835-4.95355 2.072-6.55469c1.238-1.60113 2.78-2.44531 4.428-2.44531zm-90 0.5h9.5a2.0002 2.0002 0 0 0 0.061 0s0.631 6e-3 1.238 0.33398c0.607 0.32823 1.199 0.68294 1.199 2.66602 0 1.85325-0.66 2.1981-1.559 2.5957s-1.89 0.4043-1.89 0.4043a2.0002 2.0002 0 0 0-0.051 0h-8.5l2e-3 -6zm45.5 0h5.5c1.278 0 2.403 0.25542 3.016 0.66406 0.613 0.40865 0.984 0.83594 0.984 2.33594s-0.372 1.93108-0.986 2.3418c-0.614 0.41021-1.737 0.66733-3.01 0.66797 0 0 0-0.00196-0.01-0.00196a2 2 0 0 0 0 0.00196h-5.49l-4e-3 -6.00977zm0 10.00977h5.5 0.01c1.163-2e-3 2.227 0.30632 2.888 0.82031 0.663 0.51472 1.102 1.16992 1.102 2.66992 0 1.49517-0.438 2.13899-1.107 2.65625-0.67 0.51726-1.749 0.83319-2.911 0.84375h-5.482v-6.99023z" color="#000000" stroke-linecap="round" stroke-linejoin="round" style="-inkscape-stroke:none"/>
		</g>
		<g id="form" transform="translate(-65)">
			<path id="path81447-0-34" d="m17189.25 273c-3.047 0-5.755 1.61797-7.594 3.99805-1.839 2.38006-2.906 5.54677-2.906 9.00195s1.067 6.62189 2.906 9.00195c1.839 2.38008 4.547 3.99805 7.594 3.99805s5.755-1.61797 7.594-3.99805c1.839-2.38006 2.906-5.54677 2.906-9.00195s-1.067-6.62189-2.906-9.00195c-1.839-2.38008-4.547-3.99805-7.594-3.99805zm-30.5 0.5a2.0002 2.0002 0 0 0-2 2v21a2 2 0 0 0 2 2 2 2 0 0 0 2-2v-9.5h10.5c1.105 0 2-0.89543 2-2s-0.895-2-2-2h-10.5v-5.5h13a2 2 0 0 0 2-2 2 2 0 0 0-2-2h-15zm46 0a2.0002 2.0002 0 0 0-2 2v10 11a2 2 0 0 0 2 2 2 2 0 0 0 2-2v-9h7.156l3.992 9.75781a2 2 0 0 0 2.61 1.09375 2 2 0 0 0 1.094-2.60937l-3.559-8.69727c0.251-0.08239 0.506-0.17624 0.766-0.29101 1.851-0.81873 3.941-2.97247 3.941-6.25391 0-3.1516-1.656-5.29744-3.299-6.18555-1.643-0.8881-3.262-0.81445-3.262-0.81445h-11.439zm23 0a2.0002 2.0002 0 0 0-2 2v21a2 2 0 0 0 2 2 2 2 0 0 0 2-2v-13.11523l5.143 12.85742a2.0002 2.0002 0 0 0 3.714 0l5.143-12.85742v13.11523a2 2 0 0 0 2 2 2 2 0 0 0 2-2v-21a2.0002 2.0002 0 0 0-2-2h-1a2.0002 2.0002 0 0 0-1.857 1.25781l-6.143 15.35547-6.143-15.35547a2.0002 2.0002 0 0 0-1.857-1.25781h-1zm-38.5 3.5c1.648 0 3.19 0.84418 4.428 2.44531 1.237 1.60114 2.072 3.93474 2.072 6.55469s-0.835 4.95355-2.072 6.55469c-1.238 1.60113-2.78 2.44531-4.428 2.44531s-3.19-0.84418-4.428-2.44531c-1.237-1.60114-2.072-3.93474-2.072-6.55469s0.835-4.95355 2.072-6.55469c1.238-1.60113 2.78-2.44531 4.428-2.44531zm17.5 0.5h9.5a2.0002 2.0002 0 0 0 0.061 0s0.631 6e-3 1.238 0.33398c0.607 0.32823 1.199 0.68294 1.199 2.66602 0 1.85325-0.66 2.1981-1.559 2.5957s-1.89 0.4043-1.89 0.4043a2.0002 2.0002 0 0 0-0.051 0h-8.5l2e-3 -6z" color="#000000" stroke-linecap="round" stroke-linejoin="round" style="-inkscape-stroke:none"/>
		</g>
		<g id="vt" transform="translate(-64.99999)">
			<path id="path81451-3-2" d="m17401.529 273.5a2 2 0 0 0-2 2 2 2 0 0 0 2 2h6.5v19c0 1.10457 0.895 2 2 2s2-0.89543 2-2v-19h6.5a2 2 0 0 0 2-2 2 2 0 0 0-2-2h-17zm-6.797 0.00977a2 2 0 0 0-2.033 1.18164l-7.449 16.85742-7.449-16.85742a2 2 0 0 0-1.108-1.05664 2 2 0 0 0-1.531 0.03515 2 2 0 0 0-1.019 2.63867l9.277 21a2.0002 2.0002 0 0 0 3.66 0l9.277-21a2 2 0 0 0-1.019-2.63867 2 2 0 0 0-0.606-0.16015z" color="#000000" stroke-linecap="round" stroke-linejoin="round" style="-inkscape-stroke:none"/>
		</g>
		<g id="clear" transform="translate(-65)">
			<path id="path79927-0-1" d="m17157.645 78c-3.044 0.002081-5.751 1.619531-7.588 3.998047-1.84 2.380047-2.907 5.546735-2.907 9.001953s1.067 6.621908 2.907 9.00195c1.839 2.38005 4.547 3.99805 7.593 3.99805 3.273-0.0104 6.267-1.90877 8.174-4.859375a2 2 0 0 0-0.594-2.763672 2 2 0 0 0-2.765 0.59375c-1.315 2.033617-3.077 3.023043-4.824 3.029297-1.646-0.0013-3.188-0.845386-4.424-2.445312-1.238-1.601162-2.072-3.934788-2.072-6.554688s0.834-4.953525 2.072-6.554688c1.237-1.601161 2.781-2.445312 4.428-2.445312 1.745 3.9e-4 3.507 0.982346 4.824 3.005859a2 2 0 0 0 2.765 0.583985 2 2 0 0 0 0.586-2.767578c-1.912-2.937074-4.904-4.819279-8.17-4.822266h-5e-3zm13.505 0.5a2 2 0 0 0-2 2v21a2.0002 2.0002 0 0 0 2 2h15.5a2 2 0 0 0 2-2 2 2 0 0 0-2-2h-13.5v-19a2 2 0 0 0-2-2zm22.5 0a2.0002 2.0002 0 0 0-2 2v21a2.0002 2.0002 0 0 0 2 2h15a2 2 0 0 0 2-2 2 2 0 0 0-2-2h-13v-7h9c1.105 0 2-0.895432 2-2s-0.895-2-2-2h-9v-6h13a2 2 0 0 0 2-2 2 2 0 0 0-2-2h-15zm30.35 0a2.0002 2.0002 0 0 0-1.859 1.261719l-8.35 21.000001a2 2 0 0 0 1.119 2.59766 2 2 0 0 0 2.598-1.1211l1.09-2.73828h10.804l1.09 2.73828a2 2 0 0 0 2.598 1.1211 2 2 0 0 0 1.119-2.59766l-8.35-21.000001a2.0002 2.0002 0 0 0-1.859-1.261719zm15.35 0a2.0002 2.0002 0 0 0-2 2v10 11a2 2 0 0 0 2 2 2 2 0 0 0 2-2v-9h7.156l3.992 9.75781a2 2 0 0 0 2.609 1.09375 2 2 0 0 0 1.094-2.60937l-3.558-8.697268c0.25-0.082284 0.506-0.176484 0.765-0.291016 1.851-0.818725 3.942-2.97247 3.942-6.253906 0-3.1516-1.656-5.297445-3.299-6.185547s-3.26-0.814453-3.26-0.814453h-11.441zm2 4h9.5a2.0002 2.0002 0 0 0 0.06 0s0.631 0.005801 1.238 0.333984c0.608 0.328224 1.202 0.682936 1.202 2.666016 0 1.853244-0.66 2.198104-1.559 2.595703-0.899 0.3976-1.893 0.404297-1.893 0.404297a2.0002 2.0002 0 0 0-0.05 0h-8.5l2e-3 -6zm-17.35 3.414062 3.812 9.585938h-7.624l3.812-9.585938z" color="#000000" stroke-linecap="round" stroke-linejoin="round" style="-inkscape-stroke:none"/>
		</g>
		<g id="tab" transform="translate(-97.499989)">
			<path id="path81451-3-33" d="m17433.15 78.5a2 2 0 0 0-2 2 2 2 0 0 0 2 2h6.5v19c0 1.10457 0.895 2 2 2s2-0.89543 2-2v-19h6.5a2 2 0 0 0 2-2 2 2 0 0 0-2-2h-17zm29.35 0a2.0002 2.0002 0 0 0-1.859 1.261719l-8.35 21.000001a2 2 0 0 0 1.119 2.59766 2 2 0 0 0 2.598-1.1211l1.09-2.73828h10.804l1.09 2.73828a2 2 0 0 0 2.598 1.1211 2 2 0 0 0 1.119-2.59766l-8.35-21.000001a2.0002 2.0002 0 0 0-1.859-1.261719zm15.35 0a2.0002 2.0002 0 0 0-2 2v10.009766 10.990234a2.0002 2.0002 0 0 0 2 2h7.5a2.0002 2.0002 0 0 0 0.019 0c1.81-0.0165 3.731-0.45176 5.318-1.67773 1.588-1.22599 2.665-3.317441 2.665-5.82227 0-2.268097-0.946-4.114641-2.293-5.375 1.33-1.162065 2.293-2.91907 2.293-5.125 0-2.499996-1.129-4.572711-2.766-5.664062s-3.512-1.335938-5.234-1.335938h-7.502zm2 4h5.5c1.277 0 2.402 0.255418 3.015 0.664062 0.613 0.408646 0.985 0.83594 0.985 2.335938 0 1.499997-0.373 1.931081-0.987 2.341797-0.613 0.410207-1.736 0.667335-3.009 0.667969 0 6e-6 0-0.001954-0.01-0.001954a2 2 0 0 0 0 0.001954h-5.49l-4e-3 -6.009766zm-17.35 3.414062 3.812 9.585938h-7.625l3.813-9.585938zm17.35 6.595704h5.5c1.163-0.0022 2.226 0.306327 2.888 0.820312 0.663 0.51472 1.104 1.169925 1.104 2.669922 0 1.495165-0.44 2.138988-1.11 2.65625s-1.749 0.833193-2.91 0.84375h-5.48l8e-3 -6.990234z" color="#000000" stroke-linecap="round" stroke-linejoin="round" style="-inkscape-stroke:none"/>
		</g>
		<g id="alt" transform="translate(-129.99999)">
			<path id="path81451-3-1" d="m17700.5 78.5c-0.82-4.8e-5 -1.556 0.499978-1.859 1.261719l-8.35 21.000001c-0.408 1.02633 0.09 2.18934 1.119 2.59766 1.027 0.40831 2.191-0.0938 2.598-1.1211l1.09-2.73828h10.804l1.09 2.73828c0.407 1.02734 1.571 1.52941 2.598 1.1211 1.026-0.40832 1.527-1.57133 1.119-2.59766l-8.35-21.000001c-0.303-0.761741-1.039-1.261767-1.859-1.261719zm15.35 0c-1.105 0-2 0.895432-2 2v21c0 1.10452 0.895 1.99989 2 2h15.5c1.105 0 2-0.89543 2-2s-0.895-2-2-2h-13.5v-19c0-1.104568-0.895-2-2-2zm19.5 0c-1.105 0-2 0.895432-2 2s0.895 2 2 2h6.5v19c0 1.10457 0.895 2 2 2s2-0.89543 2-2v-19h6.5c1.105 0 2-0.895432 2-2s-0.895-2-2-2h-17zm-34.85 7.414062 3.812 9.585938h-7.625l3.813-9.585938z" color="#000000" stroke-linecap="round" stroke-linejoin="round" style="-inkscape-stroke:none"/>
		</g>
		<g id="F" transform="translate(-146.24999)" stroke-linecap="round" stroke-linejoin="round">
			<path id="path85898" d="m18536 294.625a3.3753375 3.3753375 0 0 0-3.375 3.375v42a3.375 3.375 0 0 0 3.375 3.375 3.375 3.375 0 0 0 3.375-3.375v-19.625h21.625c1.864 0 3.375-1.51104 3.375-3.375s-1.511-3.375-3.375-3.375h-21.625v-12.25h26.625a3.375 3.375 0 0 0 3.375-3.375 3.375 3.375 0 0 0-3.375-3.375h-30z" color="#000000" style="-inkscape-stroke:none"/>
			<path id="path227530-2" d="m18548.973 233.0293c-0.283 0.01368-0.566 0.04225-0.85 0.08593-1.134 0.17475-2.266 0.5843-3.316 1.19141-2.102 1.21423-4.074 3.1359-6.18 5.85742a3 3 0 0 0 0.537 4.20899 3 3 0 0 0 4.209-0.53711c1.811-2.33998 3.364-3.71478 4.436-4.33399 1.071-0.6192 1.466-0.5623 1.843-0.44336 0.754 0.2379 2.533 2.31582 3.797 6.1875 1.444 4.42158 2.347 10.50484 2.858 16.29297-2.109-1.31264-4.591-2.07422-7.243-2.07422-7.578 0-13.787 6.20879-13.787 13.78711 0 7.57833 6.209 13.78516 13.787 13.78516 7.579 0 13.788-6.20683 13.788-13.78516 0-7.8344-0.719-20.73824-3.7-29.86914-1.49-4.56544-3.446-8.70624-7.695-10.04687-0.796-0.25137-1.636-0.34769-2.484-0.30664zm0.091 32.43554c4.336 0 7.788 3.45143 7.788 7.78711 0 4.3357-3.452 7.78516-7.788 7.78516-4.335 0-7.787-3.44946-7.787-7.78516 0-4.33568 3.452-7.78711 7.787-7.78711z" color="#000000" style="-inkscape-stroke:none"/>
		</g>
		<g id="G" transform="translate(-146.24999)" stroke-linecap="round" stroke-linejoin="round">
			<path id="path86479-6" d="m18748.5 293.625c-12.605 0-22.375 11.64942-22.375 25.375s9.77 25.375 22.375 25.375c8.19 0 13.887-3.12144 16.557-8.14453 2.669-5.02309 2.685-11.00607 2.504-17.32813a3.3753375 3.3753375 0 0 0-3.374-3.27734h-14a3.375 3.375 0 0 0-3.375 3.375 3.375 3.375 0 0 0 3.375 3.375h10.538c-0.05 4.48207-0.406 8.38547-1.629 10.6875-1.53 2.87874-3.854 4.5625-10.596 4.5625-8.381 0-15.625-8.05009-15.625-18.625 0-10.57409 7.243-18.62374 15.623-18.625 4.231 2e-3 8.331 2.03371 11.356 5.85547a3.375 3.375 0 0 0 4.74 0.55273 3.375 3.375 0 0 0 0.552-4.74023c-4.169-5.26836-10.227-8.41435-16.644-8.41797z" color="#000000" style="-inkscape-stroke:none"/>
			<path id="path15345-3-5-0-3" d="m18748.885 236.00195a3 3 0 0 0-2.772 2.18164l-3.904 13.81641h-11.709a3 3 0 0 0-3 3 3 3 0 0 0 3 3h10.014l-2.262 8h-7.752a3 3 0 0 0-3 3 3 3 0 0 0 3 3h6.057l-3.444 12.18359a3 3 0 0 0 2.071 3.70313 3 3 0 0 0 3.703-2.07031l3.904-13.81641h14.709a3 3 0 0 0 3-3 3 3 0 0 0-3-3h-13.014l2.262-8h10.752a3 3 0 0 0 3-3 3 3 0 0 0-3-3h-9.057l3.444-12.18359a3 3 0 0 0-2.071-3.70313 3 3 0 0 0-0.931-0.11133z" color="#000000" style="-inkscape-stroke:none"/>
		</g>
		<g id="O" transform="translate(-129.99999)">
			<path id="path29918-7-04-2-4-7-6-3" d="m19466.86 63.649791 6.815 20.442a0.66333999 0.66333999 0 0 0 1.259 0l6.748-20.454a1.4406461 1.4406461 0 0 0-1.373-1.892l-3.521 0.01v-23.471a2 2 0 0 0-2-2h-1a2 2 0 0 0-2 2v23.471h-3.561a1.440346 1.440346 0 0 0-1.367 1.896z" color="#000000"/>
			<path id="path84950" d="m19477.25 98.617187c-5.875 0-11.107 3.115463-14.691 7.753903-3.585 4.63845-5.684 10.84125-5.684 17.6211 0 6.77984 2.099 12.9807 5.684 17.61914 3.584 4.63844 8.816 7.75586 14.691 7.75586s11.107-3.11742 14.691-7.75586c3.585-4.63844 5.684-10.8393 5.684-17.61914 0-6.77985-2.099-12.98265-5.684-17.6211-3.584-4.63844-8.816-7.753903-14.691-7.753903zm0 6.750003c3.514 0 6.781 1.80883 9.35 5.13281 2.568 3.32398 4.275 8.12178 4.275 13.49219 0 5.3704-1.707 10.1682-4.275 13.49218-2.569 3.32399-5.836 5.13282-9.35 5.13282s-6.781-1.80883-9.35-5.13282c-2.568-3.32398-4.275-8.12178-4.275-13.49218 0-5.37041 1.707-10.16821 4.275-13.49219 2.569-3.32398 5.836-5.13281 9.35-5.13281z" color="#000000" stroke-linecap="round" stroke-linejoin="round" stroke-miterlimit="9" style="-inkscape-stroke:none;paint-order:fill markers stroke"/>
		</g>
		<g id="P" transform="translate(-129.99932)">
			<path id="path29918-7-04-2-4-7-6-3-0" d="m19664.84 58.626791 6.815-20.442a0.66333999 0.66333999 0 0 1 1.259 0l6.748 20.454a1.4406461 1.4406461 0 0 1-1.373 1.892l-3.521-0.01v23.471a2 2 0 0 1-2 2h-1a2 2 0 0 1-2-2v-23.471h-3.561a1.440346 1.440346 0 0 1-1.367-1.896z" color="#000000"/>
			<path id="path81447-1" d="m19656.25 99.617187a3.3753375 3.3753375 0 0 0-3.375 3.375003v42a3.375 3.375 0 0 0 3.375 3.375 3.375 3.375 0 0 0 3.375-3.375v-18.625h17.625l-0.08-2e-3s3.394 0.13611 6.947-1.43554c3.554-1.57165 7.51-5.59778 7.51-11.9375 0-6.12063-3.146-10.13159-6.27-11.82031-3.123-1.68873-6.207-1.552739-6.207-1.552739l0.102-2e-3zm23.102 6.748043s1.416 2.2e-4 2.793 0.74415c1.376 0.74392 2.73 1.73406 2.73 5.88281 0 3.92964-1.544 4.90267-3.49 5.76367-1.947 0.861-4.053 0.86133-4.053 0.86133a3.3753375 3.3753375 0 0 0-0.08 0h-17.625v-13.25h19.625a3.3753375 3.3753375 0 0 0 0.102-2e-3z" color="#000000" stroke-linecap="round" stroke-linejoin="round" style="-inkscape-stroke:none"/>
		</g>
		<g id="J" transform="translate(-146.24916)">
			<path id="path87716-7" d="m19152.855 294.625a3.375 3.375 0 0 0-3.375 3.375v30.5c0 4.71468-4.861 9.125-11.625 9.125-6.763 0-11.625-4.41032-11.625-9.125v-7.5a3.375 3.375 0 0 0-3.375-3.375 3.375 3.375 0 0 0-3.375 3.375v7.5c0 9.09242 8.571 15.875 18.375 15.875s18.375-6.78258 18.375-15.875v-30.5a3.375 3.375 0 0 0-3.375-3.375z" color="#000000" stroke-linecap="round" stroke-linejoin="round" style="-inkscape-stroke:none"/>
			<path id="path29918-7-04-2-4-7-6" d="m19133.486 258.56979-20.442 6.81496a0.66333999 0.66333999 0 0 0 0 1.25923l20.454 6.74861a1.4406461 1.4406461 0 0 0 1.892-1.37332l-0.01-3.5215h23.471a2 2 0 0 0 2-2v-1a2 2 0 0 0-2-2h-23.471v-3.56054a1.440346 1.440346 0 0 0-1.896-1.36744z" color="#000000"/>
		</g>
		<g id="K" transform="translate(-146.25071)">
			<path id="path87740-2" d="m19315.145 294.625a3.375 3.375 0 0 0-3.375 3.375v42a3.375 3.375 0 0 0 3.375 3.375 3.375 3.375 0 0 0 3.375-3.375v-9.57031l7.026-6.80078 14.933 18.49218a3.375 3.375 0 0 0 4.748 0.50391 3.375 3.375 0 0 0 0.504-4.74609l-15.314-18.96289 19.103-18.49024a3.375 3.375 0 0 0 0.08-4.77344 3.375 3.375 0 0 0-2.369-1.02734 3.375 3.375 0 0 0-2.4 0.94922l-26.311 25.46289v-23.03711a3.375 3.375 0 0 0-3.375-3.375z" color="#000000" stroke-linecap="round" stroke-linejoin="round" style="-inkscape-stroke:none"/>
			<path id="path29918-7-04-2-4-7" d="m19333.512 258.57202 20.442 6.81496a0.66333999 0.66333999 0 0 1 0 1.25923l-20.454 6.74861a1.4406461 1.4406461 0 0 1-1.892-1.37332l0.01-3.5215h-23.471a2 2 0 0 1-2-2v-1a2 2 0 0 1 2-2h23.471v-3.56054a1.440346 1.440346 0 0 1 1.896-1.36744z" color="#000000"/>
		</g>
		<g id="L" transform="translate(-146.24905)">
			<path id="path88893-0" d="m19514.5 294.625a3.375 3.375 0 0 0-3.375 3.375v42a3.3753375 3.3753375 0 0 0 3.375 3.375h31a3.375 3.375 0 0 0 3.375-3.375 3.375 3.375 0 0 0-3.375-3.375h-27.625v-38.625a3.375 3.375 0 0 0-3.375-3.375z" color="#000000" stroke-linecap="round" stroke-linejoin="round" style="-inkscape-stroke:none"/>
			<path id="path231110-9-3" d="m19520.987 258.57161-20.446 6.81516c-0.606 0.20098-0.606 1.05817 0 1.25915l20.453 6.74857c0.936 0.30848 1.899-0.38825 1.899-1.37331v-3.52118h6.216v3.52118c0 0.98506 0.963 1.68179 1.899 1.37333l20.454-6.74861c0.606-0.20096 0.606-1.05815 0-1.25911l-20.447-6.8152c-0.933-0.31081-1.897 0.38385-1.897 1.36756v3.56085h-6.224v-3.56086c0-0.98516-0.968-1.67914-1.903-1.36753z" color="#000000"/>
		</g>
		<g id="rmeta" transform="translate(242.75)">
			<path id="path79927-0-8-4-9" d="m20167.15 663.5c-1.104 1.1e-4 -1.999 0.89548-2 2v21c0 1.10457 0.896 2 2 2 1.105 0 2-0.89543 2-2v-13.11523l5.143 12.85742c0.67 1.67766 3.045 1.67766 3.715 0l5.142-12.85742v13.11523c0 1.10457 0.896 2 2 2 1.105 0 2-0.89543 2-2v-21c0-1.10452-0.895-1.99989-2-2h-1c-0.818 1.3e-4 -1.553 0.49828-1.857 1.25781l-6.143 15.35547-6.142-15.35547c-0.304-0.75986-1.039-1.25809-1.858-1.25781h-1zm25 0c-1.105 1.1e-4 -2 0.89548-2 2v21c0 1.10452 0.895 1.99989 2 2h15c1.105 0 2-0.89543 2-2s-0.895-2-2-2h-13v-7h9c1.105 0 2-0.89543 2-2s-0.895-2-2-2h-9v-6h13c1.105 0 2-0.89543 2-2s-0.895-2-2-2h-15zm22 0c-1.105 0-2 0.89543-2 2s0.895 2 2 2h6.5v19c0 1.10457 0.895 2 2 2s2-0.89543 2-2v-19h6.5c1.105 0 2-0.89543 2-2s-0.895-2-2-2h-17zm29.35 0a2.0002 2.0002 0 0 0-1.859 1.26172l-8.35 21a2 2 0 0 0 1.119 2.59766 2 2 0 0 0 2.598-1.1211l1.09-2.73828h10.804l1.09 2.73828a2 2 0 0 0 2.598 1.1211 2 2 0 0 0 1.119-2.59766l-8.35-21a2.0002 2.0002 0 0 0-1.859-1.26172zm0 7.41406 3.812 9.58594h-7.624l3.812-9.58594z" color="#000000" stroke-linecap="round" stroke-linejoin="round" style="-inkscape-stroke:none"/>
		</g>
		<g id="rctrl" transform="translate(-309.75)">
			<path id="path81447-0-6-9-2" d="m20469.744 663c-3.043 0.00209-5.75 1.61954-7.588 3.99805-1.839 2.38004-2.906 5.54673-2.906 9.00195s1.067 6.62191 2.906 9.00195c1.839 2.38005 4.548 3.99805 7.594 3.99805 3.273-0.0104 6.267-1.90877 8.174-4.85938 0.598-0.92731 0.333-2.16414-0.594-2.76367-0.928-0.60009-2.166-0.33422-2.766 0.59375-1.314 2.03362-3.077 3.02305-4.824 3.0293-1.646-1e-3 -3.187-0.84539-4.424-2.44531-1.237-1.60117-2.072-3.93479-2.072-6.55469s0.835-4.95352 2.072-6.55469c1.238-1.60116 2.78-2.44531 4.428-2.44531 1.744 3.9e-4 3.507 0.98234 4.824 3.00586 0.603 0.9258 1.842 1.18729 2.768 0.58398 0.926-0.60296 1.187-1.84208 0.584-2.76757-1.912-2.93708-4.904-4.81928-8.17-4.82227h-6e-3zm10.506 0.5c-1.105 0-2 0.89543-2 2s0.895 2 2 2h6.5v19c0 1.10457 0.895 2 2 2s2-0.89543 2-2v-19h6.5c1.105 0 2-0.89543 2-2s-0.895-2-2-2h-17zm24 0a2.0002 2.0002 0 0 0-2 2v10 11a2 2 0 0 0 2 2 2 2 0 0 0 2-2v-9h7.156l3.992 9.75781a2 2 0 0 0 2.61 1.09375 2 2 0 0 0 1.094-2.60937l-3.559-8.69727c0.251-0.08239 0.506-0.17624 0.766-0.29101 1.851-0.81873 3.941-2.97247 3.941-6.25391 0-3.1516-1.656-5.29744-3.299-6.18555-1.643-0.8881-3.262-0.81445-3.262-0.81445h-11.439zm23 0a2 2 0 0 0-2 2v21a2.0002 2.0002 0 0 0 2 2h15.5a2 2 0 0 0 2-2 2 2 0 0 0-2-2h-13.5v-19a2 2 0 0 0-2-2zm-21 4h9.5a2.0002 2.0002 0 0 0 0.061 0s0.631 6e-3 1.238 0.33398c0.607 0.32823 1.199 0.68294 1.199 2.66602 0 1.85325-0.66 2.1981-1.559 2.5957s-1.89 0.4043-1.89 0.4043a2.0002 2.0002 0 0 0-0.051 0h-8.5l2e-3 -6z" color="#000000" stroke-linecap="round" stroke-linejoin="round" style="-inkscape-stroke:none"/>
		</g>
		<g id="hyphen" transform="translate(-97.49933)" stroke-linecap="round" stroke-linejoin="round">
			<path id="path15345-3-2" d="m19759.249-133.5a3 3 0 0 0-3 3 3 3 0 0 0 3 3h21a3 3 0 0 0 3-3 3 3 0 0 0-3-3h-21zm0 10.5a3 3 0 0 0-3 3 3 3 0 0 0 3 3h21a3 3 0 0 0 3-3 3 3 0 0 0-3-3h-21z" color="#000000" style="-inkscape-stroke:none"/>
			<path id="path15345-2-7-1-9" d="m19759.25-69.5a3 3 0 0 0-3 3 3 3 0 0 0 3 3h21a3 3 0 0 0 3-3 3 3 0 0 0-3-3z" color="#000000" style="-inkscape-stroke:none"/>
		</g>
		<g id="3" transform="translate(-97.5)" stroke-linecap="round" stroke-linejoin="round">
			<path id="path1173-7" d="m18194.25-96.875a3.375 3.375 0 0 0-3.375 3.375 3.375 3.375 0 0 0 3.375 3.375h22.398c-1.631 1.742935-3.993 3.689306-6.388 5.439453-4.8 3.506657-9.662 6.242188-9.662 6.242188a3.3753375 3.3753375 0 0 0 2.271 6.261718s5.867-1.037692 11.391-0.226562c2.762 0.405565 5.311 1.288529 6.955 2.625 1.643 1.336471 2.66 2.962862 2.66 6.283203 0 4.198609-1.286 6.028137-3.545 7.460938-2.258 1.4328-5.917 2.164062-10.08 2.164062-7.288 0-15.924-6.285156-15.924-6.285156a3.375 3.375 0 0 0-4.736 0.583984 3.375 3.375 0 0 0 0.584 4.736328s9.3 7.714844 20.076 7.714844c4.87 0 9.712-0.687983 13.695-3.214844 3.983-2.52686 6.68-7.197436 6.68-13.160156 0-5.008706-2.108-9.046261-5.152-11.521484s-6.745-3.552283-10.233-4.064453c-0.377-0.05536-0.721-0.04159-1.095-0.08398 0.03-0.02551 0.06-0.03886 0.1-0.06445 2.601-1.899889 5.232-4.02434 7.35-6.289062 2.118-2.264723 4.035-4.622304 4.035-7.976563a3.3753375 3.3753375 0 0 0-3.375-3.375z" color="#000000" style="-inkscape-stroke:none"/>
			<path id="path15264-5" d="m18208.938-164.98242a3 3 0 0 0-2.622 2.35742l-3.218 15.125h-7.848a3 3 0 0 0-3 3 3 3 0 0 0 3 3h6.572l-1.916 9h-6.656a3 3 0 0 0-3 3 3 3 0 0 0 3 3h5.381l-2.315 10.875a3 3 0 0 0 2.309 3.55859 3 3 0 0 0 3.559-2.30859l2.58-12.125h6.867l-2.315 10.875a3 3 0 0 0 2.309 3.55859 3 3 0 0 0 3.559-2.30859l2.58-12.125h7.486a3 3 0 0 0 3-3 3 3 0 0 0-3-3h-6.211l1.916-9h6.295a3 3 0 0 0 3-3 3 3 0 0 0-3-3h-5.02l2.954-13.875a3 3 0 0 0-2.309-3.55859 3 3 0 0 0-3.559 2.30859l-3.218 15.125h-6.868l2.954-13.875a3 3 0 0 0-2.309-3.55859 3 3 0 0 0-0.937-0.04883zm-0.983 23.48242h6.867l-1.916 9h-6.867l1.916-9z" color="#000000" style="-inkscape-stroke:none"/>
		</g>
		<g id="0" transform="translate(-97.49933)" stroke-linecap="round" stroke-linejoin="round">
			<path id="path105190" d="m19590.595-100.9375a3.5 3.5 0 0 0-2.24 1.46875l-3.567 5.246094c-3.037-2.275399-6.645-3.652344-10.541-3.652344-5.875 0-11.105 3.117423-14.689 7.755859-3.585 4.638438-5.686 10.839295-5.686 17.619141 0 6.267016 1.796 12.036243 4.899 16.537109l-4.416 6.494141a3.5 3.5 0 0 0 0.926 4.863281 3.5 3.5 0 0 0 4.865-0.925781l3.564-5.242188c3.036 2.273661 6.644 3.648438 10.537 3.648438 5.875 0 11.108-3.117423 14.692-7.755859 3.585-4.638438 5.683-10.839295 5.683-17.619141 0-6.264744-1.795-12.031094-4.896-16.53125l4.42-6.5a3.5 3.5 0 0 0-0.928-4.86328 3.5 3.5 0 0 0-2.623-0.54297zm-16.348 9.8125c2.417 0 4.718 0.85513 6.754 2.470703l-18.037 26.523438c-1.454-2.936633-2.342-6.502469-2.342-10.369141 0-5.370394 1.708-10.168207 4.276-13.492188 2.569-3.323981 5.835-5.132812 9.349-5.132812zm11.286 8.259766c1.453 2.935961 2.339 6.500116 2.339 10.365234 0 5.370394-1.705 10.168206-4.273 13.492188-2.569 3.32398-5.838 5.132812-9.352 5.132812-2.415 0-4.714-0.854273-6.75-2.46875l18.036-26.521484z" color="#000000" stroke-miterlimit="9" style="-inkscape-stroke:none;paint-order:fill markers stroke"/>
			<path id="path128441" d="m19552.25-133.5a3 3 0 0 0-3 3 3 3 0 0 0 3 3h45a3 3 0 0 0 3-3 3 3 0 0 0-3-3z" color="#000000" style="-inkscape-stroke:none"/>
		</g>
		<g id="9" transform="translate(-97.49933)" stroke-linecap="round" stroke-linejoin="round">
			<path id="path103462-8" d="m19377.749-97.875c-9.595 0-17.875 6.723893-17.875 15.375s8.42 14.875 17.875 14.875c6.117 0 11.796-2.60802 15.047-6.789062 0.052 0.627516 0.078 1.265874 0.078 1.914062 0 10.616371-7.077 18.625-15.125 18.625-3.795 0-7.266-1.695759-10.011-4.689453a3.375 3.375 0 0 0-4.77-0.207031 3.375 3.375 0 0 0-0.207 4.769531c3.839 4.187611 9.145 6.876953 14.988 6.876953 12.386 0 21.875-11.69092 21.875-25.375 0-7.587898-2.921-14.558829-7.632-19.267578-9e-3 -0.0093-0.018-0.018061-0.026-0.027344-3.061-3.437079-7.749-5.708295-12.926-6.035156-0.074-0.004967-0.149-0.009565-0.224-0.013672-0.354-0.018401-0.709-0.03125-1.067-0.03125zm0 6.75c0.247 0 0.492 0.008593 0.737 0.023438 5e-3 3.14e-4 0.01-3.22e-4 0.015 0 7e-3 4.05e-4 0.015 0.001536 0.022 0.001953 2.679 0.171023 5.223 1.228053 7.408 2.960937 1.846 1.623571 2.943 3.689143 2.943 5.638672 0 4.051407-4.564 8.125-11.125 8.125s-11.125-4.073593-11.125-8.125 4.704-8.625 11.125-8.625z" color="#000000" stroke-miterlimit="9" style="-inkscape-stroke:none;paint-order:fill markers stroke"/>
			<path id="path130557-9" d="m19371.174-157.44336a3 3 0 0 0-1.912 1.26758 3 3 0 0 0 0.812 4.16406s1.971 1.28844 4.188 4.58399 4.488 8.40702 4.488 15.92773c0 14.79558-10.467 20.38281-10.467 20.38281a3 3 0 0 0-1.15 4.08399 3 3 0 0 0 4.084 1.15039s13.533-7.87152 13.533-25.61719c0-8.74992-2.729-15.13861-5.512-19.27539s-5.812-6.21289-5.812-6.21289a3 3 0 0 0-2.252-0.45508z" color="#000000" style="-inkscape-stroke:none"/>
		</g>
		<g id="at" transform="translate(-97.49933)">
			<path id="path37349-4-4-9" d="m19952.974-150.64648a5.9565 5.9565 0 0 0-3.787 1.72851 5.9565 5.9565 0 0 0 0 8.42383 5.9565 5.9565 0 0 0 0.551 0.47852l-6e-3 0.00585 22.342 17.46485 3e-3 -0.00391a2.4820001 2.4820001 0 0 0 3.282-0.19726 2.4820001 2.4820001 0 0 0 0.199-3.28321l-17.465-22.34179a5.9565 5.9565 0 0 0-0.482-0.54688 5.9565 5.9565 0 0 0-4.637-1.72851z"/>
			<path id="path14396" d="m19965.582-95.5c-4.556 0-9.849 1.428074-14.107 5.244141-4.259 3.816066-7.225 10.01028-7.225 18.589843 0 9.074532 5.48 14.935532 10.598 18.076172s10.199 4.041016 10.199 4.041016a3 3 0 0 0 3.488-2.414063 3 3 0 0 0-2.416-3.488281s-4.084-0.767599-8.133-3.251953c-4.048-2.484354-7.736-6.204104-7.736-12.962891 0-7.253754 2.282-11.478833 5.23-14.121093 2.949-2.642261 6.822-3.712891 10.102-3.712891 6.126 0 13.668 5.227315 13.668 15.333984 0 5.024262-1.824 7.602807-3.604 9.22461-0.798 0.727371-1.513 1.148574-2.107 1.464844l-1.359-1.087891 2.191-12.414063a3.0003 3.0003 0 0 0 0.05-0.521484s0-1.449748-0.676-2.990234c-0.685-1.540487-2.352-3.441086-4.931-4.085938-3.322-0.830491-6.088 1.08899-8.122 3.25-2.033 2.161011-3.643 4.949827-4.619 7.876953-2.109 6.328166 0.454 12.202644 5.231 13.794922 2.293 0.764529 4.299 0.340731 5.894-0.02734 0.604-0.139409 0.62-0.185411 1.075-0.328125l2.939 2.351563a3.0003 3.0003 0 0 0 2.676 0.548828s2.999-0.841351 5.802-3.396484c2.804-2.555133 5.563-7.058856 5.563-13.660157 0-13.144451-10.118-21.333984-19.668-21.333984zm1.773 16.744141c0.755 0.188481 0.756 0.368613 0.905 0.703125 0.121 0.27301 0.122 0.388622 0.129 0.451172l-2.108 11.943359c-0.214 0.06029-0.188 0.07371-0.435 0.130859-1.114 0.256924-2.44 0.250444-2.647 0.181641-0.223-0.07439-2.66-2.533254-1.435-6.205078 0.69-2.072869 1.995-4.28341 3.295-5.664063 1.299-1.380652 2.285-1.543856 2.296-1.541015z" color="#000000" stroke-linecap="round" stroke-linejoin="round" style="-inkscape-stroke:none"/>
		</g>
		<g id="caret" transform="translate(-97.4993)" stroke-linecap="round" stroke-linejoin="round">
			<path id="path138025" d="m20160.75-96.5a3.0003 3.0003 0 0 0-2.766 1.835938l-16 38a3 3 0 0 0 1.602 3.929687 3 3 0 0 0 3.93-1.601562l13.234-31.431641 13.234 31.431641a3 3 0 0 0 3.93 1.601562 3 3 0 0 0 1.602-3.929687l-16-38a3.0003 3.0003 0 0 0-2.766-1.835938z" color="#000000" style="-inkscape-stroke:none"/>
			<path id="path5444" d="m20147.756-144.5c-9.575-0.021-17.006 7.71603-17.006 17a3 3 0 0 0 3 3 3 3 0 0 0 3-3c0-6.17999 4.569-11.01409 10.994-11 6.435 0.0141 8.427 2.90763 11.678 6.9043 3.251 3.99666 7.764 9.0957 16.328 9.0957 5.033 0 9.366-2.61552 12.314-6.19336 2.949-3.57783 4.686-8.16465 4.686-12.80664a3 3 0 0 0-3-3 3 3 0 0 0-3 3c0 3.09-1.263 6.50303-3.314 8.99219-2.052 2.48916-4.72 4.00781-7.686 4.00781-6.436 0-8.423-2.88576-11.672-6.88086s-7.757-9.10035-16.322-9.11914z" color="#000000" stroke-miterlimit="9" style="-inkscape-stroke:none;paint-order:fill markers stroke"/>
		</g>
		<g id="5" transform="translate(-97.50006)" stroke-linecap="round" stroke-linejoin="round">
			<path id="path22080-5" d="m18613.09-166.49414a3 3 0 0 0-1.168 0.09766 3 3 0 0 0-1.795 1.43164l-26 47a3 3 0 0 0 1.174 4.07617 3 3 0 0 0 4.076-1.17188l26-47a3 3 0 0 0-1.172-4.07812 3 3 0 0 0-1.115-0.35547zm-25.84 0.48047c-6.868 0-12.5 5.63198-12.5 12.5 0 6.86801 5.632 12.5 12.5 12.5s12.5-5.63199 12.5-12.5c0-6.86802-5.632-12.5-12.5-12.5zm0 6c3.625 0 6.5 2.87462 6.5 6.5 0 3.62537-2.875 6.5-6.5 6.5s-6.5-2.87463-6.5-6.5c0-3.62538 2.875-6.5 6.5-6.5zm25 21c-6.868 0-12.5 5.63198-12.5 12.5 0 6.86801 5.632 12.5 12.5 12.5s12.5-5.63199 12.5-12.5c0-6.86802-5.632-12.5-12.5-12.5zm0 6c3.625 0 6.5 2.87462 6.5 6.5 0 3.62537-2.875 6.5-6.5 6.5s-6.5-2.87463-6.5-6.5c0-3.62538 2.875-6.5 6.5-6.5z" color="#000000" style="-inkscape-stroke:none"/>
			<path id="path4364" d="m18592.266-96.875a3.3753375 3.3753375 0 0 0-3.204 2.308594l-6.14 18.423828a3.3753375 3.3753375 0 0 0 5.779 3.246094c2.196-2.60029 8.374-4.938677 12.873-4.953125 7.944 0.0024 13.938 5.561062 13.938 11.988281 0 6.426271-5.994 11.983886-13.938 11.986328-4.704-0.0093-9.042-2.095679-11.564-5.34375a3.375 3.375 0 0 0-4.737-0.595703 3.375 3.375 0 0 0-0.595 4.736328c3.926 5.056823 10.219 7.939915 16.883 7.953125 11.183 5.1e-4 20.694-8.195756 20.694-18.736328 0-10.541151-9.51-18.738791-20.694-18.738281-3.011 0.0088-6.223 0.554772-9.243 1.61914l2.381-7.144531h22.133a3.375 3.375 0 0 0 3.375-3.375 3.375 3.375 0 0 0-3.375-3.375z" color="#000000" stroke-miterlimit="9" style="-inkscape-stroke:none;paint-order:fill markers stroke"/>
		</g>
		<g id="bs" transform="translate(-117.937)">
			<path id="path91740-1-7-3" d="m20453.304-117c-2.626 0-5.115 0.41177-7.162 1.58789-2.048 1.17612-3.576 3.39376-3.582 6.04883a2.0002 2.0002 0 0 0 0 0.0039c0 2.7043 1.679 4.79479 3.584 5.83008 1.904 1.0353 4.031 1.36863 5.865 1.52149 1.395 0.1162 3.413 0.64343 4.858 1.42383 1.445 0.780389 2.052 1.587707 2.052 2.224605 0 0.803613-0.46 1.474202-1.793 2.181641-1.333 0.707437-3.391 1.177734-5.515 1.177734-4.009 0-7.242-2.40625-7.242-2.40625a2 2 0 0 0-2.805 0.367188 2 2 0 0 0 0.367 2.804687s4.102 3.234375 9.68 3.234375c2.673 0 5.268-0.518622 7.39-1.644531s3.918-3.133804 3.918-5.714844c0-2.747655-2.072-4.620715-4.152-5.744145-2.081-1.12342-4.435-1.72287-6.426-1.88867-1.551-0.12923-3.232-0.47641-4.289-1.05078-1.056-0.574-1.492-1.02336-1.492-2.31445 0-1.33889 0.452-1.94164 1.574-2.58594 1.123-0.64506 3.001-1.05664 5.17-1.05664 2.005 0 3.285 0.56533 4.098 1.08984 0.813 0.52452 1.031 0.87696 1.031 0.87696a2 2 0 0 0 2.787 0.49218 2 2 0 0 0 0.49-2.78515s-0.767-1.05764-2.14-1.94336c-1.372-0.88572-3.477-1.73047-6.266-1.73047zm-30.654 0.5a2.0002 2.0002 0 0 0-2 2v10.00977 10.99023a2.0002 2.0002 0 0 0 2 2h7.5a2.0002 2.0002 0 0 0 0.019 0c1.81-0.01645 3.732-0.451753 5.319-1.677734 1.588-1.225983 2.664-3.317438 2.664-5.822266 0-2.26872-0.945-4.11662-2.293-5.37695 1.33-1.16219 2.293-2.91812 2.293-5.12305 0-2.5-1.129-4.57271-2.766-5.66406-1.637-1.09136-3.511-1.33594-5.234-1.33594h-7.502zm2 4h5.5c1.278 0 2.403 0.25542 3.016 0.66406 0.613 0.40865 0.984 0.83594 0.984 2.33594s-0.374 1.93108-0.988 2.3418c-0.613 0.41021-1.734 0.66733-3.008 0.66797h-5.49l-0.014-6.00977zm0 10.00977h5.5 0.01c1.163-2e-3 2.226 0.30632 2.888 0.82031 0.662 0.51472 1.102 1.16992 1.102 2.66992 0 1.495164-0.439 2.138988-1.109 2.65625s-1.75 0.833193-2.911 0.84375h-5.48v-6.99023z" color="#000000" stroke-linecap="round" stroke-linejoin="round" style="-inkscape-stroke:none"/>
		</g>
		<g id="call" transform="translate(-126.562)">
			<path id="path85076-9-3" d="m20775.957-117c-3.045 0.00209-5.751 1.61954-7.588 3.99805-1.839 2.38004-2.907 5.54673-2.907 9.00195s1.068 6.621906 2.907 9.001953c1.839 2.380048 4.546 3.998047 7.593 3.998047 3.273-0.01043 6.266-1.90877 8.174-4.859375a2 2 0 0 0-0.595-2.763672 2 2 0 0 0-2.764 0.59375c-1.314 2.032697-3.078 3.020205-4.824 3.027344-1.646-0.0015-3.188-0.843595-4.424-2.443359-1.237-1.601163-2.072-3.934788-2.072-6.554688s0.835-4.95352 2.072-6.55469c1.237-1.60054 2.779-2.44466 4.426-2.44531 1.744 3.9e-4 3.507 0.98234 4.824 3.00586a2 2 0 0 0 2.767 0.58398 2 2 0 0 0 0.586-2.76757c-1.912-2.93708-4.904-4.81928-8.17-4.82227h-5e-3zm18.855 0.5a2.0002 2.0002 0 0 0-1.859 1.26172l-8.348 20.999999a2 2 0 0 0 1.117 2.597656 2 2 0 0 0 2.598-1.121094l1.09-2.738281h10.804l1.088 2.738281a2 2 0 0 0 2.598 1.121094 2 2 0 0 0 1.119-2.597656l-8.35-20.999999a2.0002 2.0002 0 0 0-1.857-1.26172zm13.85 0a2 2 0 0 0-2 2v21a2.0002 2.0002 0 0 0 2 2h15.5a2 2 0 0 0 2-2 2 2 0 0 0-2-2h-13.5v-19a2 2 0 0 0-2-2zm21 0a2 2 0 0 0-2 2v21a2.0002 2.0002 0 0 0 2 2h15.5a2 2 0 0 0 2-2 2 2 0 0 0-2-2h-13.5v-19a2 2 0 0 0-2-2zm-34.85 7.41211 3.813 9.58789h-7.625l3.812-9.58789z" color="#000000" stroke-linecap="round" stroke-linejoin="round" style="-inkscape-stroke:none"/>
		</g>
		<g id="esc" transform="translate(-81.25)">
			<path id="path79927-0-15" d="m17512.27-117c-2.626 0-5.115 0.41177-7.163 1.58789-2.047 1.17612-3.575 3.39376-3.582 6.04883a2.0002 2.0002 0 0 0 0 0.0039c0 2.7043 1.679 4.79479 3.584 5.83008 1.905 1.0353 4.031 1.36863 5.866 1.52149 1.395 0.1162 3.412 0.64343 4.857 1.42383 1.445 0.780389 2.053 1.587707 2.053 2.224605 0 0.803613-0.46 1.474202-1.793 2.181641-1.333 0.707437-3.392 1.177734-5.516 1.177734-4.009 0-7.242-2.40625-7.242-2.40625a2 2 0 0 0-2.805 0.367188 2 2 0 0 0 0.367 2.804687s4.102 3.234375 9.68 3.234375c2.673 0 5.269-0.518622 7.391-1.644531s3.918-3.133804 3.918-5.714844c0-2.747655-2.072-4.620715-4.153-5.744145-2.08-1.12342-4.435-1.72287-6.425-1.88867-1.551-0.12923-3.231-0.47641-4.287-1.05078-1.057-0.574-1.494-1.02336-1.495-2.31445 0-1.33889 0.453-1.94164 1.575-2.58594 1.123-0.64506 3.001-1.05664 5.17-1.05664 2.005 0 3.284 0.56533 4.097 1.08984 0.813 0.52452 1.033 0.87696 1.033 0.87696a2 2 0 0 0 2.786 0.49218 2 2 0 0 0 0.49-2.78515s-0.768-1.05764-2.141-1.94336-3.476-1.73047-6.265-1.73047zm21.511 0c-3.043 0.00209-5.749 1.61954-7.588 3.99805-1.839 2.38004-2.906 5.54673-2.906 9.00195s1.067 6.621906 2.906 9.001953c1.84 2.380048 4.548 3.998047 7.594 3.998047 3.273-0.01043 6.267-1.90877 8.174-4.859375a2 2 0 0 0-0.594-2.763672 2 2 0 0 0-2.765 0.59375c-1.314 2.033615-3.078 3.023043-4.825 3.029297-1.646-0.0013-3.186-0.845387-4.423-2.445312-1.237-1.601163-2.073-3.934788-2.073-6.554688s0.836-4.95352 2.073-6.55469c1.238-1.60116 2.78-2.44531 4.427-2.44531 1.744 3.9e-4 3.507 0.98234 4.824 3.00586a2 2 0 0 0 2.768 0.58398 2 2 0 0 0 0.584-2.76757c-1.912-2.93708-4.904-4.81928-8.17-4.82227h-6e-3zm-52.068 0.5c-1.105 1.1e-4 -2 0.89548-2 2v21c0 1.104523 0.895 1.99989 2 2h15c1.105 0 2-0.895432 2-2s-0.895-2-2-2h-13v-7h9c1.105 0 2-0.89543 2-2s-0.895-2-2-2h-9v-6h13c1.105 0 2-0.89543 2-2s-0.895-2-2-2h-15z" color="#000000" stroke-linecap="round" stroke-linejoin="round" style="-inkscape-stroke:none"/>
		</g>
		<g id="break" transform="translate(-68.12)">
			<path id="path79927-0-9" d="m17155.763-116.5a2.0002 2.0002 0 0 0-2 2v10.00977 10.99023a2.0002 2.0002 0 0 0 2 2h7.5a2.0002 2.0002 0 0 0 0.019 0c1.81-0.01645 3.73-0.451755 5.318-1.677734 1.587-1.225982 2.665-3.317441 2.665-5.822266 0-2.26872-0.945-4.11662-2.293-5.37695 1.329-1.16219 2.293-2.91812 2.293-5.12305 0-2.5-1.129-4.57271-2.766-5.66406-1.637-1.09136-3.512-1.33594-5.234-1.33594h-7.502zm19 0a2.0002 2.0002 0 0 0-2 2v10 11a2 2 0 0 0 2 2 2 2 0 0 0 2-2v-9h7.154l3.992 9.757812a2 2 0 0 0 2.611 1.09375 2 2 0 0 0 1.092-2.609374l-3.558-8.697268c0.251-0.08239 0.506-0.17624 0.765-0.29101 1.851-0.81873 3.944-2.97247 3.944-6.25391 0-3.1516-1.656-5.29744-3.299-6.18555-1.643-0.8881-3.262-0.81445-3.262-0.81445h-11.439zm21.5 0a2.0002 2.0002 0 0 0-2 2v21a2.0002 2.0002 0 0 0 2 2h15a2 2 0 0 0 2-2 2 2 0 0 0-2-2h-13v-7h9c1.105 0 2-0.89543 2-2s-0.895-2-2-2h-9v-6h13a2 2 0 0 0 2-2 2 2 0 0 0-2-2h-15zm28.847 0a2.0002 2.0002 0 0 0-1.855 1.26172l-8.352 20.999999a2 2 0 0 0 1.119 2.597656 2 2 0 0 0 2.6-1.121094l1.088-2.738281h10.805l1.089 2.738281a2 2 0 0 0 2.596 1.121094 2 2 0 0 0 1.119-2.597656l-8.347-20.999999a2.0002 2.0002 0 0 0-1.862-1.26172zm13.854 0a2 2 0 0 0-2 2v21a2 2 0 0 0 2 2 2 2 0 0 0 2-2v-4.648438l3.174-3.070312 7.25 8.974609a2 2 0 0 0 2.81 0.300782 2 2 0 0 0 0.301-2.8125l-7.477-9.255861 9.352-9.05078a2 2 0 0 0 0.051-2.82812 2 2 0 0 0-1.407-0.60938h-7e-3a2 2 0 0 0-1.422 0.5625l-12.625 12.21484v-10.77734a2 2 0 0 0-2-2zm-81.201 4h5.5c1.277 0 2.4 0.25542 3.013 0.66406 0.613 0.40865 0.987 0.83594 0.987 2.33594s-0.375 1.93108-0.989 2.3418c-0.613 0.41021-1.735 0.66733-3.008 0.66797 0 0 1e-3 -0.00196-9e-3 -0.00196a2 2 0 0 0 0 0.00196h-5.491l-3e-3 -6.00977zm19 0h9.5a2.0002 2.0002 0 0 0 0.058 0s0.632 6e-3 1.24 0.33398c0.607 0.32823 1.202 0.68294 1.202 2.66602 0 1.85325-0.662 2.1981-1.561 2.5957s-1.891 0.4043-1.891 0.4043a2.0002 2.0002 0 0 0-0.05 0h-8.5l2e-3 -6zm48.349 3.41211 3.813 9.58789h-7.625l3.812-9.58789zm-67.349 6.59766h5.5c1.163-2e-3 2.227 0.30632 2.888 0.82031 0.663 0.51472 1.102 1.16992 1.102 2.66992 0 1.495163-0.438 2.138989-1.108 2.65625-0.669 0.517261-1.749 0.833193-2.91 0.84375h-5.482l0.01-6.99023z" color="#000000" stroke-linecap="round" stroke-linejoin="round" style="-inkscape-stroke:none"/>
		</g>
		<g id="6" transform="translate(-97.49933)" stroke-linecap="round" stroke-linejoin="round">
			<path id="path103462-0-7" d="m18796.978-97.875c-12.387 0-21.875 11.69092-21.875 25.375 0 7.587765 2.92 14.558832 7.631 19.267578 6e-3 0.006182 0.011 0.013357 0.017 0.019531 3.059 3.440383 7.751 5.712521 12.93 6.041016 0.077 0.005162 0.155 0.011386 0.232 0.015625 0.353 0.018334 0.708 0.03125 1.065 0.03125 9.595 0 17.875-6.723893 17.875-15.375s-8.421-14.875-17.875-14.875c-6.116 0-11.796 2.60802-15.047 6.789062-0.051-0.627516-0.078-1.265874-0.078-1.914062 0-10.616371 7.077-18.625 15.125-18.625 3.795 0 7.266 1.695759 10.01 4.689453a3.375 3.375 0 0 0 4.767 0.207031 3.375 3.375 0 0 0 0.207-4.769531c-3.839-4.187611-9.142-6.876953-14.984-6.876953zm0 27.25c6.561 0 11.125 4.073593 11.125 8.125s-4.705 8.625-11.125 8.625c-0.246 0-0.492-0.008593-0.736-0.023438-6e-3 -2.86e-4 -0.011 2.94e-4 -0.016 0-7e-3 -4.46e-4 -0.014-0.001493-0.022-0.001953-2.679-0.171047-5.225-1.22761-7.41-2.960937-1.845-1.62347-2.941-3.689411-2.941-5.638672 0-4.051407 4.563-8.125 11.125-8.125z" color="#000000" stroke-miterlimit="9" style="-inkscape-stroke:none;paint-order:fill markers stroke"/>
			<path id="path15593-8-4" d="m18786.477-164.5c-6.278 0-11.5 5.40001-11.5 12a3.0003 3.0003 0 0 0 0 2e-3c0 4.02084 2.063 7.69446 4.865 11.25196 0.262 0.33344 0.621 0.65615 0.898 0.98828-1.69 1.44187-3.413 2.94471-5.021 4.7832-4.409 5.03895-3.788 11.72113-0.948 16.50586 2.841 4.78473 7.706 8.46875 13.206 8.46875 4.625 0 9.289-1.58472 13.291-5.30078 1.189-1.10429 2.313-2.4445 3.406-3.91016 2.778 2.04295 5.599 4.09009 7.428 5.55274a3 3 0 0 0 4.216-0.4668 3 3 0 0 0-0.468-4.2168c-2.089-1.67081-5.029-3.80982-7.981-5.98242 1.362-2.51967 2.674-5.31017 3.916-8.62305a3 3 0 0 0-1.756-3.86132 3 3 0 0 0-3.861 1.75586c-1.056 2.81475-2.151 4.85012-3.242 6.9375-2.937-2.20842-5.931-4.4316-8.76-6.82227-1.674-1.41468-3.235-2.84466-4.711-4.26367 0.523-0.42197 1.073-0.85178 1.578-1.27735 3.546-2.98534 6.944-6.51082 6.944-11.52148 0-4.1854-1.269-7.49275-3.61-9.50195-2.341-2.00921-5.256-2.49805-7.89-2.49805zm0 6c1.865 0 3.198 0.37761 3.982 1.05078 0.784 0.67318 1.518 1.86416 1.518 4.94922 0 2.25981-1.603 4.23461-4.807 6.93164-0.533 0.44836-1.236 0.99904-1.828 1.4707-0.236-0.28202-0.566-0.58337-0.785-0.86132-2.387-3.02995-3.578-5.75761-3.58-7.54102v-2e-3c0-3.39901 2.778-5.99805 5.5-5.99805zm-1.686 22.66992c1.726 1.68476 3.577 3.34749 5.502 4.97461 3.152 2.66402 6.433 5.11445 9.611 7.49805-0.909 1.23024-1.817 2.32149-2.718 3.1582-2.999 2.78394-5.834 3.69922-9.209 3.69922-2.5 0-6.138-2.31599-8.047-5.53125s-2.287-6.5331 0.304-9.49414c1.379-1.57599 2.962-2.95474 4.557-4.30469z" color="#000000" style="-inkscape-stroke:none"/>
		</g>
		<g id="8" transform="translate(-97.49933)" stroke-linecap="round" stroke-linejoin="round">
			<path id="path104634-5" d="m19184.749-97.875c-4.696 0-8.998 1.19958-12.345 3.375-3.346 2.17542-5.885 5.588217-5.885 9.658203 0 4.069987 2.539 7.484737 5.885 9.660156 0.183 0.119301 0.371 0.234273 0.56 0.347657-3.897 2.829179-6.445 7.063875-6.445 11.992187 0 9.01177 8.509 15.716797 18.23 15.716797s18.233-6.705027 18.233-15.716797c0-4.928312-2.549-9.163008-6.446-11.992187 0.19-0.11335 0.376-0.228393 0.559-0.347657 3.346-2.175419 5.887-5.590169 5.887-9.660156 0-4.069986-2.541-7.482783-5.887-9.658203-3.347-2.17542-7.65-3.375-12.346-3.375zm0 6.75c3.51 0 6.635 0.962927 8.666 2.283203s2.817 2.735734 2.817 4-0.786 2.679724-2.817 4-5.156 2.283203-8.666 2.283203-6.635-0.962927-8.666-2.283203-2.814-2.735734-2.814-4 0.783-2.679724 2.814-4 5.156-2.283203 8.666-2.283203zm0 19.316406c6.69 0 11.483 4.346591 11.483 8.966797 0 4.620207-4.793 8.966797-11.483 8.966797s-11.48-4.34659-11.48-8.966797c0-4.620206 4.79-8.966797 11.48-8.966797z" color="#000000" stroke-miterlimit="9" style="-inkscape-stroke:none;paint-order:fill markers stroke"/>
			<path id="path130557-0" d="m19189.328-157.44336a3 3 0 0 0-2.252 0.45508s-3.029 2.07611-5.812 6.21289-5.512 10.52547-5.512 19.27539c0 17.74568 13.533 25.61719 13.533 25.61719a3 3 0 0 0 4.084-1.15039 3 3 0 0 0-1.15-4.08399s-10.467-5.58722-10.467-20.38281c0-7.52071 2.271-12.63218 4.488-15.92773s4.188-4.58399 4.188-4.58399a3 3 0 0 0 0.812-4.16406 3 3 0 0 0-1.912-1.26758z" color="#000000" style="-inkscape-stroke:none"/>
		</g>
		<g id="4" transform="translate(-97.5)" stroke-linecap="round" stroke-linejoin="round">
			<path id="path101122" d="m18415.229-96.636719a3.3753375 3.3753375 0 0 0-3.702 0.824219l-26.234 27.875a3.3753375 3.3753375 0 0 0 2.457 5.6875h22.859v10.75a3.375 3.375 0 0 0 3.375 3.375 3.375 3.375 0 0 0 3.375-3.375v-10.75h4.391a3.375 3.375 0 0 0 3.375-3.375 3.375 3.375 0 0 0-3.375-3.375h-4.391v-24.5a3.3753375 3.3753375 0 0 0-2.13-3.136719zm-4.62 11.648438v15.988281h-15.048z" color="#000000" style="-inkscape-stroke:none"/>
			<path id="path7396-8-5" d="m18404.75-166.51367a3 3 0 0 0-3 3v10.33789c-1.454 0.28547-2.844 0.77074-4.107 1.55273-2.311 1.42925-4.025 4.16311-4.032 7.25782 0 3.16497 1.903 5.7814 4.053 7.03906 2.151 1.25793 4.45 1.62645 6.393 1.80078 1.233 0.11073 3.175 0.65649 4.474 1.41211 1.3 0.75562 1.651 1.3781 1.651 1.7539 0 0.60791-0.236 1.04866-1.381 1.70313-1.146 0.65447-3.062 1.14258-5.047 1.14258-3.59 0-6.658-2.38672-6.658-2.38672a3 3 0 0 0-4.225 0.39648 3 3 0 0 0 0.397 4.22461s3.433 2.95921 8.482 3.62891v7.13672a3 3 0 0 0 3 3 3 3 0 0 0 3-3v-7.42188c1.428-0.31331 2.79-0.8047 4.027-1.51172 2.355-1.34551 4.405-3.82771 4.405-6.91211 0-3.3165-2.363-5.61814-4.635-6.93945-2.272-1.3213-4.759-2.00616-6.953-2.20312-1.486-0.13336-3.049-0.50585-3.901-1.00391-0.851-0.49805-1.084-0.65287-1.082-1.84766 0-1.26595 0.287-1.60851 1.188-2.16601s2.61-0.99414 4.67-0.99414c3.59 0 4.342 1.71289 4.342 1.71289a3 3 0 0 0 4.15 0.8789 3 3 0 0 0 0.879-4.15039s-2.444-3.34083-7.09-4.22656v-10.21484a3 3 0 0 0-3-3z" color="#000000" style="-inkscape-stroke:none"/>
		</g>
		<g id="1" transform="translate(-97.5)">
			<path id="path37273-0-4-87" d="m17822.248-158.72852a5.9565001 5.9565001 0 0 0-5.957 5.95704 5.9565001 5.9565001 0 0 0 0.053 0.72851h-6e-3l0.012 0.10156a5.9565001 5.9565001 0 0 0 4e-3 0.02735l3.431 28.01758h2e-3a2.4820001 2.4820001 0 0 0 2.461 2.17968 2.4820001 2.4820001 0 0 0 2.461-2.17968h6e-3l3.447-28.14649h-0.01a5.9565001 5.9565001 0 0 0 0.053-0.72851 5.9565001 5.9565001 0 0 0-5.957-5.95704zm0 44.72852a4.5 4.5 0 0 0-4.5 4.5 4.5 4.5 0 0 0 4.5 4.5 4.5 4.5 0 0 0 4.5-4.5 4.5 4.5 0 0 0-4.5-4.5z"/>
			<path id="path96500-9" d="m17824.951-96.800781a3.3753375 3.3753375 0 0 0-3.785 1.927734s-0.893 1.979473-2.277 3.896485c-1.385 1.917011-3.164 3.099609-3.639 3.099609a3.375 3.375 0 0 0-3.375 3.375 3.375 3.375 0 0 0 3.375 3.375c2.309 0 4.13-0.871991 5.625-2.060547v31.6875a3.375 3.375 0 0 0 3.375 3.375 3.375 3.375 0 0 0 3.375-3.375v-42.001953a3.3753375 3.3753375 0 0 0-2.674-3.298828z" color="#000000" stroke-linecap="round" stroke-linejoin="round" style="-inkscape-stroke:none"/>
		</g>
		<g id="7" transform="translate(-97.49933)">
			<path id="path37349-4-4" d="m18998.324-150.64648a5.9565001 5.9565001 0 0 0-3.788 1.73046 5.9565001 5.9565001 0 0 0-0.478 0.54883l-4e-3 -0.0039-0.074 0.0957-17.391 22.24609 2e-3 0.00196a2.4820001 2.4820001 0 0 0 0.197 3.2832 2.4820001 2.4820001 0 0 0 3.282 0.19531l4e-3 0.00391 22.341-17.46485-6e-3 -0.00585a5.9565001 5.9565001 0 0 0 0.551-0.47657 5.9565001 5.9565001 0 0 0 0-8.42383 5.9565001 5.9565001 0 0 0-4.636-1.73046z"/>
			<path id="path104143" d="m18972.75-96.875a3.375 3.375 0 0 0-3.375 3.375 3.375 3.375 0 0 0 3.375 3.375h27.133c-1.531 1.213367-3.148 2.665149-4.772 4.701172-4.997 6.267303-9.736 16.880578-9.736 33.923828a3.375 3.375 0 0 0 3.375 3.375 3.375 3.375 0 0 0 3.375-3.375c0-15.810517 4.261-24.697561 8.264-29.716797 4.002-5.019236 7.451-6.089844 7.451-6.089844a3.3753375 3.3753375 0 0 0 2.285-3.193359v-3a3.3753375 3.3753375 0 0 0-3.375-3.375z" color="#000000" stroke-linecap="round" stroke-linejoin="round" style="-inkscape-stroke:none"/>
		</g>
		<g id="2" transform="translate(-97.5)">
			<path id="path127616-2" d="m18005.748-151.5a5.9565001 5.9565001 0 0 0-5.957 5.95703 5.9565001 5.9565001 0 0 0 0.107 1.05859h-9e-3l3.4 18.80469a2.4820001 2.4820001 0 0 0 0.012 0.0586l8e-3 0.04492h2e-3a2.4820001 2.4820001 0 0 0 2.437 2.04101 2.4820001 2.4820001 0 0 0 2.438-2.04101h5e-3l3.42-18.90821h-0.013a5.9565001 5.9565001 0 0 0 0.107-1.05859 5.9565001 5.9565001 0 0 0-5.957-5.95703zm17 0a5.9565001 5.9565001 0 0 0-5.957 5.95703 5.9565001 5.9565001 0 0 0 0.107 1.05859h-9e-3l3.4 18.80469a2.4820001 2.4820001 0 0 0 0.012 0.0586l8e-3 0.04492h2e-3a2.4820001 2.4820001 0 0 0 2.437 2.04101 2.4820001 2.4820001 0 0 0 2.438-2.04101h5e-3l3.42-18.90821h-0.013a5.9565001 5.9565001 0 0 0 0.107-1.05859 5.9565001 5.9565001 0 0 0-5.957-5.95703z"/>
			<path id="path96506-7-3" d="m18013.75-96.875c-4.116 0-8.085 1.336048-11.166 3.802734-3.081 2.466687-5.269 6.257389-5.209 10.619141a3.375 3.375 0 0 0 3.422 3.328125 3.375 3.375 0 0 0 3.328-3.421875c-0.03-2.138252 0.918-3.847548 2.678-5.255859 1.759-1.408312 4.336-2.322266 6.947-2.322266 4.971 0 9.625 3.585819 9.625 10.125 0 1.819995-0.97 3.350073-3.291 5.246094s-5.798 3.783225-9.434 5.740234c-3.635 1.957009-7.433 3.984274-10.558 6.648438-3.125 2.664163-5.717 6.317453-5.717 10.865234a3.3753375 3.3753375 0 0 0 3.375 3.375h34a3.375 3.375 0 0 0 3.375-3.375 3.375 3.375 0 0 0-3.375-3.375h-29.398c0.537-0.769314 1.154-1.53102 2.119-2.353516 2.312-1.971124 5.764-3.895857 9.379-5.841796 3.614-1.94594 7.387-3.911871 10.504-6.457032 3.116-2.545161 5.771-6.042662 5.771-10.472656 0-9.960812-7.892-16.875-16.375-16.875z" color="#000000" stroke-linecap="round" stroke-linejoin="round" style="-inkscape-stroke:none"/>
		</g>
		<g id="up" transform="translate(-114.25069)" stroke-linecap="round" stroke-linejoin="round">
			<path id="path137070-5" d="m20696.501 97.992188c-14.324 0-26 11.676152-26 26.000002 0 14.32383 11.676 26 26 26 14.319 0 25.992-11.66877 26-25.98633a3 3 0 0 0 2e-3 -0.01367 3 3 0 0 0-4e-3 -0.05078c-0.028-14.3005-11.691-25.949222-25.998-25.949222zm0 6.000002c10.061 0 18.338 7.35216 19.777 17h-39.557c1.439-9.64784 9.719-17 19.78-17zm-19.78 23h39.557c-1.439 9.64783-9.716 17-19.777 17s-18.341-7.35217-19.78-17z" color="#000000" stroke-miterlimit="5" style="-inkscape-stroke:none;paint-order:fill markers stroke"/>
			<path id="path136508-9-6" d="m20696.502 42.492187a3.0003 3.0003 0 0 0-2.729 1.751954l-18.972 41.5a3.0003 3.0003 0 0 0 2.728 4.248046h37.944a3.0003 3.0003 0 0 0 2.728-4.248046l-18.972-41.5a3.0003 3.0003 0 0 0-2.727-1.751954zm-0 10.212891 14.303 31.287109h-28.604z" color="#000000" style="-inkscape-stroke:none"/>
		</g>
		<g id="down" transform="translate(-114.75159)" stroke-linecap="round" stroke-linejoin="round">
			<path id="path137070" d="m20892 97.992188c-14.324 0-26 11.676152-26 26.000002 0 14.32383 11.676 26 26 26h2e-3c14.317-0.00107 25.989-11.66837 25.998-25.98438a3 3 0 0 0 2e-3 -0.01562 3 3 0 0 0-4e-3 -0.05664c-0.031-14.2965-11.691-25.941233-25.994-25.943362h-4e-3zm-2.998 6.222652v16.77735h-16.78c1.293-8.66982 8.11-15.48449 16.78-16.77735zm6 0.00196c8.668 1.2937 15.484 8.10632 16.777 16.77539h-16.777v-16.77539zm-22.78 22.77539h16.78v16.77734c-8.67-1.29285-15.487-8.10752-16.78-16.77734zm22.78 0h16.777c-1.293 8.66907-8.109 15.48169-16.777 16.77539v-16.77539z" color="#000000" stroke-miterlimit="5" style="-inkscape-stroke:none;paint-order:fill markers stroke"/>
			<path id="path136508-9-6-9" d="m20873.029 42.492187a3.0003 3.0003 0 0 0-2.728 4.246094l18.972 41.5a3.0003 3.0003 0 0 0 5.456 0l18.972-41.5a3.0003 3.0003 0 0 0-2.728-4.246094zm4.67 6h28.604l-14.303 31.285157z" color="#000000" style="-inkscape-stroke:none"/>
		</g>
	</g>
</svg>
